<?xml version="1.0" encoding="UTF-8" standalone="no"?>
<!-- Created with Inkscape (http://www.inkscape.org/) -->

<svg
   xmlns:dc="http://purl.org/dc/elements/1.1/"
   xmlns:cc="http://creativecommons.org/ns#"
   xmlns:rdf="http://www.w3.org/1999/02/22-rdf-syntax-ns#"
   xmlns:svg="http://www.w3.org/2000/svg"
   xmlns="http://www.w3.org/2000/svg"
   xmlns:sodipodi="http://sodipodi.sourceforge.net/DTD/sodipodi-0.dtd"
   xmlns:inkscape="http://www.inkscape.org/namespaces/inkscape"
   id="svg3004"
   version="1.1"
   inkscape:version="0.48.3.1 r9886"
   width="30"
   height="30"
   xml:space="preserve"
   sodipodi:docname="Nuke_Icons_Toolbar_for_frank_nukepedia.ai"><metadata
     id="metadata3010"><rdf:RDF><cc:Work
         rdf:about=""><dc:format>image/svg+xml</dc:format><dc:type
           rdf:resource="http://purl.org/dc/dcmitype/StillImage" /><dc:title></dc:title></cc:Work></rdf:RDF></metadata><defs
     id="defs3008"><linearGradient
       x1="0"
       y1="0"
       x2="1"
       y2="0"
       gradientUnits="userSpaceOnUse"
       gradientTransform="matrix(-9e-7,20.053223,20.053223,9e-7,12.071777,1.6469727)"
       spreadMethod="pad"
       id="linearGradient3026"><stop
         style="stop-opacity:1;stop-color:#8c8c8c"
         offset="0"
         id="stop3028" /><stop
         style="stop-opacity:1;stop-color:#afafaf"
         offset="1"
         id="stop3030" /></linearGradient><clipPath
       clipPathUnits="userSpaceOnUse"
       id="clipPath3046"><path
         d="M 0,24 24,24 24,0 0,0 0,24 z"
         id="path3048" /></clipPath></defs><sodipodi:namedview
     pagecolor="#ffffff"
     bordercolor="#666666"
     borderopacity="1"
     objecttolerance="10"
     gridtolerance="10"
     guidetolerance="10"
     inkscape:pageopacity="0"
     inkscape:pageshadow="2"
     inkscape:window-width="1352"
     inkscape:window-height="1340"
     id="namedview3006"
     showgrid="false"
     inkscape:zoom="29.9"
     inkscape:cx="15"
     inkscape:cy="15"
     inkscape:window-x="0"
     inkscape:window-y="0"
     inkscape:window-maximized="0"
     inkscape:current-layer="g3012" /><g
     id="g3012"
     inkscape:groupmode="layer"
     inkscape:label="Nuke_Icons_Toolbar_for_frank_nukepedia"
     transform="matrix(1.25,0,0,-1.25,0,30)"><g
       id="g3014"><g
         id="g3016"><g
           id="g3022"><g
             id="g3024"><path
               d="m 2.018,4.552 0,13.388 9.364,3.76 10.743,-2.278 0,-12.932 L 13.09,1.647 2.018,4.552 z"
               style="fill:url(#linearGradient3026);stroke:none"
               id="path3032" /></g></g></g></g><g
       id="g3034"
       transform="translate(11.3369,22.2212)"><path
         d="m 0,0 -0.283,-0.114 -8.909,-3.577 -0.627,-0.252 0,-0.676 0,-12.664 0,-0.772 0.746,-0.195 10.509,-2.758 0.379,-0.099 0.347,0.185 8.599,4.609 0.527,0.282 0,0.599 0,12.228 0,0.81 -0.793,0.168 L 0.297,-0.063 0,0 z m 0.09,-1.042 10.198,-2.162 0,-12.228 -8.599,-4.609 -10.508,2.758 0,12.664 8.909,3.577 z"
         style="fill:#323232;fill-opacity:1;fill-rule:nonzero;stroke:none"
         id="path3036" /></g><g
       id="g3038"
       transform="translate(2,17.7529)"><path
         d="M 0,0 11.054,-2.56"
         style="fill:none;stroke:#323232;stroke-opacity:1;stroke-width:1;stroke-linecap:butt;stroke-linejoin:miter;stroke-miterlimit:4;stroke-dasharray:none"
         id="path3040" /></g><g
       id="g3042"><g
         id="g3044"
         clip-path="url(#clipPath3046)"><g
           id="g3050"
           transform="translate(22.2402,18.9873)"><path
             d="M 0,0 -9.214,-3.794"
             style="fill:none;stroke:#323232;stroke-opacity:1;stroke-width:1;stroke-linecap:butt;stroke-linejoin:miter;stroke-miterlimit:4;stroke-dasharray:none"
             id="path3052" /></g></g></g><g
       id="g3054"
       transform="translate(13.5039,2)"><path
         d="M 0,0 0,13.223"
         style="fill:none;stroke:#323232;stroke-opacity:1;stroke-width:1;stroke-linecap:butt;stroke-linejoin:miter;stroke-miterlimit:4;stroke-dasharray:none"
         id="path3056" /></g></g></svg>