<?xml version="1.0" encoding="UTF-8" standalone="no"?>
<!-- Created with Inkscape (http://www.inkscape.org/) -->

<svg
   xmlns:dc="http://purl.org/dc/elements/1.1/"
   xmlns:cc="http://creativecommons.org/ns#"
   xmlns:rdf="http://www.w3.org/1999/02/22-rdf-syntax-ns#"
   xmlns:svg="http://www.w3.org/2000/svg"
   xmlns="http://www.w3.org/2000/svg"
   xmlns:sodipodi="http://sodipodi.sourceforge.net/DTD/sodipodi-0.dtd"
   xmlns:inkscape="http://www.inkscape.org/namespaces/inkscape"
   id="svg3908"
   version="1.1"
   inkscape:version="0.48.3.1 r9886"
   width="30"
   height="30"
   xml:space="preserve"
   sodipodi:docname="Nuke_Icons_Toolbar_for_frank_nukepedia.ai"><metadata
     id="metadata3914"><rdf:RDF><cc:Work
         rdf:about=""><dc:format>image/svg+xml</dc:format><dc:type
           rdf:resource="http://purl.org/dc/dcmitype/StillImage" /><dc:title></dc:title></cc:Work></rdf:RDF></metadata><defs
     id="defs3912"><linearGradient
       x1="0"
       y1="0"
       x2="1"
       y2="0"
       gradientUnits="userSpaceOnUse"
       gradientTransform="matrix(-7e-7,17,17,7e-7,12.000488,3.5)"
       spreadMethod="pad"
       id="linearGradient3930"><stop
         style="stop-opacity:1;stop-color:#8c8c8c"
         offset="0"
         id="stop3932" /><stop
         style="stop-opacity:1;stop-color:#afafaf"
         offset="1"
         id="stop3934" /></linearGradient><clipPath
       clipPathUnits="userSpaceOnUse"
       id="clipPath3942"><path
         d="M 0,24 24,24 24,0 0,0 0,24 z"
         id="path3944" /></clipPath></defs><sodipodi:namedview
     pagecolor="#ffffff"
     bordercolor="#666666"
     borderopacity="1"
     objecttolerance="10"
     gridtolerance="10"
     guidetolerance="10"
     inkscape:pageopacity="0"
     inkscape:pageshadow="2"
     inkscape:window-width="640"
     inkscape:window-height="480"
     id="namedview3910"
     showgrid="false"
     inkscape:zoom="7.8666667"
     inkscape:cx="15"
     inkscape:cy="15"
     inkscape:window-x="0"
     inkscape:window-y="0"
     inkscape:window-maximized="0"
     inkscape:current-layer="g3916" /><g
     id="g3916"
     inkscape:groupmode="layer"
     inkscape:label="Nuke_Icons_Toolbar_for_frank_nukepedia"
     transform="matrix(1.25,0,0,-1.25,0,30)"><g
       id="g3918"><g
         id="g3920"><g
           id="g3926"><g
             id="g3928"><path
               d="M 3,20.5 C 2.173,20.5 1.5,19.827 1.5,19 l 0,0 0,-2.667 c 0,-0.827 0.673,-1.5 1.5,-1.5 l 0,0 c -0.827,0 -1.5,-0.672 -1.5,-1.5 l 0,0 0,-2.666 c 0,-0.827 0.673,-1.5 1.5,-1.5 l 0,0 c -0.827,0 -1.5,-0.673 -1.5,-1.5 l 0,0 L 1.5,5 C 1.5,4.173 2.173,3.5 3,3.5 l 0,0 18,0 c 0.827,0 1.5,0.673 1.5,1.5 l 0,0 0,2.667 c 0,0.827 -0.673,1.5 -1.5,1.5 l 0,0 c 0.827,0 1.5,0.673 1.5,1.5 l 0,0 0,2.666 c 0,0.828 -0.673,1.5 -1.5,1.5 l 0,0 c 0.827,0 1.5,0.673 1.5,1.5 l 0,0 0,2.667 c 0,0.827 -0.673,1.5 -1.5,1.5 l 0,0 -18,0 z"
               style="fill:url(#linearGradient3930);stroke:none"
               id="path3936" /></g></g></g></g><g
       id="g3938"><g
         id="g3940"
         clip-path="url(#clipPath3942)"><g
           id="g3946"
           transform="translate(21,21)"><path
             d="m 0,0 -18,0 c -1.103,0 -2,-0.897 -2,-2 l 0,-2.667 c 0,-0.597 0.263,-1.133 0.679,-1.5 C -19.737,-6.534 -20,-7.07 -20,-7.667 l 0,-2.666 c 0,-0.597 0.263,-1.133 0.679,-1.5 C -19.737,-12.2 -20,-12.736 -20,-13.333 L -20,-16 c 0,-1.103 0.897,-2 2,-2 l 18,0 c 1.103,0 2,0.897 2,2 l 0,2.667 c 0,0.597 -0.263,1.133 -0.679,1.5 0.416,0.367 0.679,0.903 0.679,1.5 l 0,2.666 C 2,-7.07 1.737,-6.534 1.321,-6.167 1.737,-5.8 2,-5.264 2,-4.667 L 2,-2 C 2,-0.897 1.103,0 0,0 m 0,-12.333 c 0.553,0 1,-0.447 1,-1 L 1,-16 c 0,-0.553 -0.447,-1 -1,-1 l -18,0 c -0.553,0 -1,0.447 -1,1 l 0,2.667 c 0,0.553 0.447,1 1,1 l 18,0 m 0,5.666 c 0.553,0 1,-0.447 1,-1 l 0,-2.666 c 0,-0.553 -0.447,-1 -1,-1 l -18,0 c -0.553,0 -1,0.447 -1,1 l 0,2.666 c 0,0.553 0.447,1 1,1 l 18,0 M 0,-1 c 0.553,0 1,-0.447 1,-1 l 0,-2.667 c 0,-0.553 -0.447,-1 -1,-1 l -18,0 c -0.553,0 -1,0.447 -1,1 L -19,-2 c 0,0.553 0.447,1 1,1 l 18,0"
             style="fill:#323232;fill-opacity:1;fill-rule:nonzero;stroke:none"
             id="path3948" /></g></g></g></g></svg>