<?xml version="1.0" encoding="UTF-8" standalone="no"?>
<!-- Created with Inkscape (http://www.inkscape.org/) -->

<svg
   xmlns:dc="http://purl.org/dc/elements/1.1/"
   xmlns:cc="http://creativecommons.org/ns#"
   xmlns:rdf="http://www.w3.org/1999/02/22-rdf-syntax-ns#"
   xmlns:svg="http://www.w3.org/2000/svg"
   xmlns="http://www.w3.org/2000/svg"
   xmlns:sodipodi="http://sodipodi.sourceforge.net/DTD/sodipodi-0.dtd"
   xmlns:inkscape="http://www.inkscape.org/namespaces/inkscape"
   id="svg4178"
   version="1.1"
   inkscape:version="0.48.3.1 r9886"
   width="30"
   height="30"
   xml:space="preserve"
   sodipodi:docname="Nuke_Icons_Toolbar_for_frank_nukepedia.ai"><metadata
     id="metadata4184"><rdf:RDF><cc:Work
         rdf:about=""><dc:format>image/svg+xml</dc:format><dc:type
           rdf:resource="http://purl.org/dc/dcmitype/StillImage" /><dc:title></dc:title></cc:Work></rdf:RDF></metadata><defs
     id="defs4182"><linearGradient
       x1="0"
       y1="0"
       x2="1"
       y2="0"
       gradientUnits="userSpaceOnUse"
       gradientTransform="matrix(-8e-7,18.974609,18.974609,8e-7,12.000488,2.5126953)"
       spreadMethod="pad"
       id="linearGradient4200"><stop
         style="stop-opacity:1;stop-color:#8c8c8c"
         offset="0"
         id="stop4202" /><stop
         style="stop-opacity:1;stop-color:#afafaf"
         offset="1"
         id="stop4204" /></linearGradient><clipPath
       clipPathUnits="userSpaceOnUse"
       id="clipPath4212"><path
         d="M 0,24 24,24 24,0 0,0 0,24 z"
         id="path4214" /></clipPath></defs><sodipodi:namedview
     pagecolor="#ffffff"
     bordercolor="#666666"
     borderopacity="1"
     objecttolerance="10"
     gridtolerance="10"
     guidetolerance="10"
     inkscape:pageopacity="0"
     inkscape:pageshadow="2"
     inkscape:window-width="640"
     inkscape:window-height="480"
     id="namedview4180"
     showgrid="false"
     inkscape:zoom="7.8666667"
     inkscape:cx="15"
     inkscape:cy="15"
     inkscape:window-x="0"
     inkscape:window-y="0"
     inkscape:window-maximized="0"
     inkscape:current-layer="g4186" /><g
     id="g4186"
     inkscape:groupmode="layer"
     inkscape:label="Nuke_Icons_Toolbar_for_frank_nukepedia"
     transform="matrix(1.25,0,0,-1.25,0,30)"><g
       id="g4188"><g
         id="g4190"><g
           id="g4196"><g
             id="g4198"><path
               d="M 12.156,21.351 C 12.056,21.256 12,21.125 12,20.987 l 0,0 c 0,0.138 -0.057,0.269 -0.156,0.364 l 0,0 c -0.094,0.088 -0.217,0.137 -0.344,0.137 l 0,0 c -0.01,0 -0.018,-0.001 -0.028,-0.001 l 0,0 C 6.441,21.21 2.5,17.049 2.5,12.012 l 0,0 c 0,-1.496 0.346,-2.938 1.029,-4.285 l 0,0 C 3.591,7.604 3.701,7.513 3.832,7.474 l 0,0 C 3.879,7.46 3.927,7.453 3.974,7.453 l 0,0 c 0.088,0 0.174,0.022 0.251,0.067 l 0,0 L 6.923,9.079 4.222,7.518 C 4.102,7.449 4.017,7.334 3.985,7.201 l 0,0 C 3.954,7.067 3.978,6.926 4.054,6.81 l 0,0 C 5.818,4.119 8.789,2.513 12,2.513 l 0,0 c 3.211,0 6.182,1.606 7.947,4.297 l 0,0 c 0.074,0.116 0.1,0.257 0.067,0.391 l 0,0 c -0.03,0.13 -0.11,0.24 -0.224,0.31 l 0,0 c 0.073,-0.039 0.154,-0.059 0.235,-0.059 l 0,0 c 0.049,0 0.096,0.007 0.143,0.021 l 0,0 c 0.131,0.039 0.241,0.13 0.303,0.254 l 0,0 c 0.683,1.347 1.029,2.789 1.029,4.285 l 0,0 c 0,5.037 -3.941,9.198 -8.973,9.475 l 0,0 c -0.009,0 -0.018,0.001 -0.027,0.001 l 0,0 c -0.128,0 -0.25,-0.049 -0.344,-0.137 M 12,12.301 c 0,-0.173 0.089,-0.332 0.234,-0.424 l 0,0 C 12.161,11.916 12.081,11.936 12,11.936 l 0,0 c -0.08,0 -0.161,-0.02 -0.234,-0.059 l 0,0 C 11.911,11.969 12,12.128 12,12.301"
               style="fill:url(#linearGradient4200);stroke:none"
               id="path4206" /></g></g></g></g><g
       id="g4208"><g
         id="g4210"
         clip-path="url(#clipPath4212)"><g
           id="g4216"
           transform="translate(12.5,21.9873)"><path
             d="M 0,0 C -0.177,0 -0.349,-0.047 -0.5,-0.134 -0.651,-0.047 -0.823,0 -1,0 -1.018,0 -1.037,0 -1.055,-0.001 -6.351,-0.293 -10.5,-4.674 -10.5,-9.975 c 0,-1.576 0.364,-3.094 1.083,-4.511 0.087,-0.174 0.223,-0.316 0.389,-0.412 -10e-4,-0.195 0.055,-0.387 0.163,-0.553 1.858,-2.832 4.985,-4.524 8.365,-4.524 3.38,0 6.507,1.692 8.364,4.524 0.109,0.165 0.165,0.357 0.164,0.552 0.165,0.096 0.301,0.238 0.39,0.412 0.718,1.419 1.082,2.937 1.082,4.512 0,5.301 -4.148,9.682 -9.445,9.974 C 0.037,0 0.018,0 0,0 m -0.5,-10.552 7.528,-4.35 c -1.607,-2.452 -4.375,-4.073 -7.528,-4.073 -3.153,0 -5.921,1.621 -7.528,4.073 l 7.528,4.35 M -1,-1 l 0,-8.687 -7.525,-4.347 c -0.619,1.22 -0.975,2.596 -0.975,4.059 0,4.805 3.761,8.714 8.5,8.975 m 1,0 c 4.739,-0.261 8.5,-4.17 8.5,-8.975 0,-1.463 -0.356,-2.839 -0.975,-4.06 L 0,-9.687 0,-1"
             style="fill:#323232;fill-opacity:1;fill-rule:nonzero;stroke:none"
             id="path4218" /></g></g></g></g></svg>