<?xml version="1.0" encoding="UTF-8" standalone="no"?>
<!-- Created with Inkscape (http://www.inkscape.org/) -->

<svg
   xmlns:dc="http://purl.org/dc/elements/1.1/"
   xmlns:cc="http://creativecommons.org/ns#"
   xmlns:rdf="http://www.w3.org/1999/02/22-rdf-syntax-ns#"
   xmlns:svg="http://www.w3.org/2000/svg"
   xmlns="http://www.w3.org/2000/svg"
   xmlns:xlink="http://www.w3.org/1999/xlink"
   xmlns:sodipodi="http://sodipodi.sourceforge.net/DTD/sodipodi-0.dtd"
   xmlns:inkscape="http://www.inkscape.org/namespaces/inkscape"
   width="24"
   height="24"
   id="svg9814"
   version="1.1"
   inkscape:version="0.48.3.1 r9886"
   sodipodi:docname="New document 35">
  <defs
     id="defs9816">
    <linearGradient
       inkscape:collect="always"
       xlink:href="#SVGID_40_-4"
       id="linearGradient8053-6"
       gradientUnits="userSpaceOnUse"
       x1="12"
       y1="22.5"
       x2="12"
       y2="1.5" />
    <linearGradient
       y2="1.5"
       x2="12"
       y1="22.5"
       x1="12"
       gradientUnits="userSpaceOnUse"
       id="SVGID_40_-4">
      <stop
         id="stop7105-7"
         style="stop-color:#8C8C8C"
         offset="0" />
      <stop
         id="stop7107-4"
         style="stop-color:#AFAFAF"
         offset="1" />
    </linearGradient>
  </defs>
  <sodipodi:namedview
     id="base"
     pagecolor="#ffffff"
     bordercolor="#666666"
     borderopacity="1.0"
     inkscape:pageopacity="0.0"
     inkscape:pageshadow="2"
     inkscape:zoom="22.666667"
     inkscape:cx="12"
     inkscape:cy="12"
     inkscape:document-units="px"
     inkscape:current-layer="layer1"
     showgrid="false"
     inkscape:window-width="918"
     inkscape:window-height="753"
     inkscape:window-x="761"
     inkscape:window-y="468"
     inkscape:window-maximized="0" />
  <metadata
     id="metadata9819">
    <rdf:RDF>
      <cc:Work
         rdf:about="">
        <dc:format>image/svg+xml</dc:format>
        <dc:type
           rdf:resource="http://purl.org/dc/dcmitype/StillImage" />
        <dc:title></dc:title>
      </cc:Work>
    </rdf:RDF>
  </metadata>
  <g
     inkscape:label="Layer 1"
     inkscape:groupmode="layer"
     id="layer1"
     transform="translate(0,-1028.3622)">
    <g
       transform="translate(0,1028.3622)"
       style="display:inline"
       id="g7084">
      <g
         id="g7086">
        <path
           style="fill:#323232"
           inkscape:connector-curvature="0"
           id="path7088"
           d="M 7.658,6.867 C 7.527,7.263 7.393,7.651 7.283,8.054 7.086,8.778 8.61,8.403 8.854,8.239 9.72,7.652 10.185,6.974 10.592,6.009 10.914,5.247 9.062,5.785 8.848,5.955 8.146,6.512 7.574,7.135 7.036,7.846 6.464,8.601 8.382,8.348 8.715,8.045 9.218,7.589 9.713,7.126 10.215,6.67 9.655,6.604 9.096,6.537 8.536,6.471 8.216,6.978 7.944,7.438 7.721,7.992 7.471,8.61 8.874,8.382 9.073,8.288 9.927,7.886 10.373,7.351 11.027,6.67 10.467,6.604 9.908,6.537 9.348,6.471 8.91,7.193 8.369,7.81 7.848,8.471 7.291,9.177 9.256,9.005 9.651,8.529 10.256,7.801 10.922,7.132 11.526,6.404 12.097,5.717 10.323,5.851 10.021,6.074 9.298,6.609 8.616,7.188 7.834,7.636 8.357,7.65 8.881,7.665 9.403,7.679 9.549,7.275 9.694,6.871 9.839,6.467 10.355,5.706 8.497,5.883 8.16,6.268 8.014,6.434 7.868,6.6 7.723,6.767 7.15,7.42 8.135,7.594 8.634,7.438 9.567,7.145 10.427,6.736 11.323,6.351 10.896,6.341 10.469,6.33 10.042,6.32 c 0.613,0.633 1.233,0.857 2.095,1.033 0.806,0.164 1.44,0.145 2.155,0.717 0.646,0.518 0.663,2.012 0.741,2.755 0.194,1.852 1.197,5.198 -1.716,5.693 -0.778,0.132 -3.68,0.518 -3.789,-0.59 -0.073,-0.741 -1.771,-0.112 -1.933,0.375 -0.156,0.358 -0.24,0.733 -0.25,1.125 -0.107,0.839 1.738,0.358 1.934,-0.233 C 10.29,14.146 9.705,10.943 9.653,7.803 9.643,7.183 7.74,7.553 7.72,8.178 7.641,10.675 7.054,13.114 7.032,15.616 7.025,16.444 8.961,16.038 8.966,15.383 8.987,12.882 9.575,10.443 9.654,7.945 9.01,8.071 8.366,8.196 7.722,8.321 c 0.05,3.053 0.605,6.146 -0.376,9.108 0.645,-0.078 1.289,-0.156 1.934,-0.233 0.011,-0.392 0.094,-0.767 0.25,-1.125 -0.645,0.125 -1.288,0.25 -1.933,0.375 0.275,2.795 7.647,1.133 8.805,-0.417 1.474,-1.973 0.74,-4.723 0.403,-6.986 C 16.328,5.848 13.531,7.305 11.833,5.556 11.527,5.24 10.898,5.376 10.552,5.525 9.826,5.836 9.121,6.2 8.366,6.438 8.67,6.662 8.973,6.885 9.277,7.108 9.423,6.941 9.569,6.775 9.715,6.608 9.155,6.542 8.596,6.475 8.036,6.409 7.611,7.037 7.439,7.437 7.472,8.196 7.497,8.802 8.814,8.369 9.041,8.238 9.837,7.781 10.491,7.22 11.229,6.676 10.727,6.566 10.225,6.456 9.724,6.346 9.118,7.074 8.453,7.744 7.849,8.471 c 0.6,0.019 1.202,0.039 1.802,0.058 0.522,-0.661 1.063,-1.278 1.5,-2 C 11.648,5.709 9.801,5.987 9.472,6.33 9.189,6.624 8.615,7.314 8.302,7.462 8.753,7.561 9.203,7.66 9.654,7.758 9.846,7.328 10.075,6.918 10.339,6.529 10.864,5.697 8.982,6.037 8.66,6.33 8.157,6.786 7.662,7.249 7.16,7.705 7.72,7.771 8.279,7.838 8.839,7.904 9.323,7.265 9.785,6.787 10.402,6.296 9.821,6.277 9.239,6.26 8.658,6.242 8.492,6.838 8.155,7.303 7.646,7.636 8.169,7.698 8.693,7.759 9.216,7.821 9.325,7.418 9.46,7.029 9.591,6.633 9.82,5.942 7.878,6.202 7.658,6.867 l 0,0 z" />
      </g>
    </g>
    <g
       transform="translate(0,1028.3622)"
       style="display:inline"
       id="g7090">
      <g
         id="g7092">
        <path
           style="fill:#323232"
           inkscape:connector-curvature="0"
           id="path7094"
           d="m 11.487,17.914 c 0.39,0.707 1.663,0.623 2.324,0.583 0.866,-0.052 1.997,-0.217 2.7,-0.774 0.947,-0.75 0.018,-1.455 -0.887,-1.311 -0.513,0.082 -0.995,0.257 -1.483,0.429 -0.253,0.089 -0.508,0.176 -0.764,0.255 -0.14,0.043 -0.281,0.079 -0.423,0.112 0.058,-0.013 -0.209,-0.013 -0.048,0.001 0.023,0.397 0.048,0.794 0.072,1.192 1.438,-0.565 3.521,-0.844 3.871,-2.675 0.175,-0.914 -1.795,-0.642 -1.951,0.171 -0.188,0.981 -1.983,1.147 -2.754,1.45 -0.681,0.268 -0.748,1.119 0.072,1.192 0.668,0.06 1.321,-0.143 1.946,-0.354 0.303,-0.102 0.603,-0.212 0.905,-0.314 0.132,-0.044 0.265,-0.083 0.397,-0.122 0.137,-0.03 0.157,-0.038 0.062,-0.022 -0.246,-0.001 -0.43,-0.147 -0.549,-0.439 -0.01,-0.192 0.407,-0.428 0.226,-0.343 -0.268,0.125 0.179,-0.05 -0.149,0.047 -0.255,0.076 -0.513,0.118 -0.775,0.149 -0.392,0.047 -0.956,0.058 -1.019,-0.056 -0.387,-0.705 -2.241,-0.022 -1.773,0.829 l 0,0 z" />
      </g>
    </g>
    <g
       transform="translate(0,1028.3622)"
       style="display:inline"
       id="g7096">
      <g
         id="g7098">
        <path
           style="fill:#323232"
           inkscape:connector-curvature="0"
           id="path7100"
           d="m 12.77,6.878 c 0.676,0.164 1.151,0.678 1.571,1.203 0.606,-0.221 1.212,-0.441 1.818,-0.662 -0.723,-0.418 -1.294,-1.047 -2.04,-1.436 -0.886,-0.461 -2.06,-0.255 -2.86,0.295 -0.088,0.061 -0.346,0.243 -0.168,0.365 0.122,0.084 0.242,0.122 0.375,0.188 0.361,0.181 0.893,0.024 1.245,-0.104 C 12.772,6.705 13.607,6.33 13.284,6.169 13.16,6.107 13.024,6.061 12.909,5.981 12.853,6.103 12.797,6.224 12.741,6.346 11.917,6.42 11.679,6.487 12.028,6.545 c 0.144,0.029 0.274,0.102 0.403,0.169 0.233,0.121 0.447,0.281 0.658,0.437 0.417,0.308 0.8,0.67 1.251,0.931 C 14.693,8.286 16.502,7.849 16.158,7.42 15.671,6.811 15.13,6.311 14.354,6.123 13.926,6.019 13.386,6.184 13.002,6.367 12.845,6.442 12.338,6.773 12.77,6.878 l 0,0 z" />
      </g>
    </g>
    <g
       transform="translate(0,1028.3622)"
       style="display:inline"
       id="g7102">
      <linearGradient
         y2="1.5"
         x2="12"
         y1="22.5"
         x1="12"
         gradientUnits="userSpaceOnUse"
         id="linearGradient7997">
        <stop
           id="stop7999"
           style="stop-color:#8C8C8C"
           offset="0" />
        <stop
           id="stop8001"
           style="stop-color:#AFAFAF"
           offset="1" />
      </linearGradient>
      <path
         inkscape:connector-curvature="0"
         style="fill:url(#linearGradient8053-6)"
         id="path7109"
         d="M 12,22.5 C 6.21,22.5 1.5,17.79 1.5,12 1.5,6.21 6.21,1.5 12,1.5 17.79,1.5 22.5,6.21 22.5,12 22.5,17.79 17.79,22.5 12,22.5 z M 8.19,5.883 C 7.976,5.911 7.928,5.971 7.928,6.196 v 11.55 c 0,0.111 0.012,0.168 0.02,0.193 0.029,0.129 0.179,0.178 0.451,0.178 h 3.447 c 2.064,0 3.486,-0.47 4.227,-1.397 0.663,-0.841 1,-2.383 1,-4.581 0,-0.568 -0.013,-1.054 -0.038,-1.454 C 16.889,8.28 16.13,6.793 14.776,6.266 14.136,6.012 13.152,5.884 11.846,5.884 H 8.19 z m 3.28,10.936 c -0.491,0 -0.967,-0.02 -1.431,-0.062 C 9.78,16.734 9.583,16.518 9.583,16.259 V 7.74 c 0,-0.26 0.198,-0.476 0.457,-0.498 0.464,-0.04 0.939,-0.062 1.43,-0.062 1.08,0 1.845,0.104 2.339,0.319 0.709,0.305 1.18,0.971 1.398,1.978 0.103,0.476 0.15,1.334 0.15,2.702 0,0.82 -0.027,1.418 -0.083,1.829 -0.045,0.393 -0.111,0.718 -0.201,0.984 -0.305,0.934 -1.027,1.529 -2.089,1.719 -0.428,0.072 -0.936,0.108 -1.514,0.108 z" />
      <path
         style="fill:#323232"
         inkscape:connector-curvature="0"
         id="path7111"
         d="M 12,2 C 17.522,2 22,6.477 22,12 22,17.523 17.522,22 12,22 6.477,22 2,17.523 2,12 2,6.477 6.477,2 12,2 M 8.398,18.617 h 3.447 c 2.232,0 3.772,-0.527 4.617,-1.585 0.738,-0.937 1.109,-2.568 1.109,-4.893 0,-0.581 -0.013,-1.077 -0.039,-1.486 C 17.373,8.025 16.513,6.407 14.956,5.8 14.257,5.523 13.218,5.384 11.845,5.384 H 8.398 c -0.092,0 -0.171,0 -0.237,0 C 7.673,5.437 7.428,5.707 7.428,6.196 v 11.55 c 0,0.132 0.013,0.244 0.04,0.335 0.079,0.358 0.388,0.536 0.93,0.536 M 11.47,7.681 c 1.005,0 1.717,0.094 2.14,0.277 0.555,0.239 0.926,0.78 1.109,1.625 0.094,0.436 0.139,1.301 0.139,2.596 0,0.792 -0.026,1.38 -0.078,1.762 -0.041,0.356 -0.1,0.654 -0.18,0.892 -0.25,0.766 -0.819,1.229 -1.703,1.386 -0.396,0.066 -0.87,0.1 -1.427,0.1 -0.476,0 -0.937,-0.02 -1.387,-0.06 V 7.74 C 10.533,7.702 10.994,7.681 11.47,7.681 M 12,1 C 5.935,1 1,5.935 1,12 1,18.065 5.935,23 12,23 18.065,23 23,18.065 23,12 23,5.935 18.065,1 12,1 l 0,0 z M 8.428,6.383 h 3.418 c 1.547,0 2.345,0.188 2.742,0.346 0.437,0.17 1.747,0.681 1.947,3.984 0.024,0.385 0.037,0.863 0.037,1.426 0,2.594 -0.486,3.756 -0.895,4.274 -0.637,0.797 -1.928,1.204 -3.832,1.204 H 8.428 V 6.383 l 0,0 z m 3.042,0.298 c -0.487,0 -0.982,0.021 -1.472,0.063 C 9.48,6.788 9.083,7.221 9.083,7.74 v 8.52 c 0,0.518 0.396,0.95 0.911,0.996 0.475,0.042 0.971,0.063 1.476,0.063 0.614,0 1.135,-0.037 1.592,-0.114 1.595,-0.285 2.232,-1.278 2.488,-2.062 0.099,-0.291 0.173,-0.65 0.223,-1.088 0.057,-0.414 0.085,-1.034 0.085,-1.876 0,-1.845 -0.092,-2.485 -0.161,-2.807 C 15.379,7.908 14.601,7.295 14.006,7.039 13.441,6.795 12.636,6.681 11.47,6.681 l 0,0 z" />
    </g>
  </g>
</svg>
