<?xml version="1.0" encoding="UTF-8" standalone="no"?>
<!-- Created with Inkscape (http://www.inkscape.org/) -->

<svg
   xmlns:dc="http://purl.org/dc/elements/1.1/"
   xmlns:cc="http://creativecommons.org/ns#"
   xmlns:rdf="http://www.w3.org/1999/02/22-rdf-syntax-ns#"
   xmlns:svg="http://www.w3.org/2000/svg"
   xmlns="http://www.w3.org/2000/svg"
   xmlns:sodipodi="http://sodipodi.sourceforge.net/DTD/sodipodi-0.dtd"
   xmlns:inkscape="http://www.inkscape.org/namespaces/inkscape"
   id="svg3349"
   version="1.1"
   inkscape:version="0.48.3.1 r9886"
   width="30"
   height="30"
   xml:space="preserve"
   sodipodi:docname="Nuke_Icons_Toolbar_for_frank_nukepedia.ai"><metadata
     id="metadata3355"><rdf:RDF><cc:Work
         rdf:about=""><dc:format>image/svg+xml</dc:format><dc:type
           rdf:resource="http://purl.org/dc/dcmitype/StillImage" /><dc:title></dc:title></cc:Work></rdf:RDF></metadata><defs
     id="defs3353"><linearGradient
       x1="0"
       y1="0"
       x2="1"
       y2="0"
       gradientUnits="userSpaceOnUse"
       gradientTransform="matrix(-8e-7,18.677734,18.677734,8e-7,12.000488,2.6611328)"
       spreadMethod="pad"
       id="linearGradient3371"><stop
         style="stop-opacity:1;stop-color:#8c8c8c"
         offset="0"
         id="stop3373" /><stop
         style="stop-opacity:1;stop-color:#afafaf"
         offset="1"
         id="stop3375" /></linearGradient><clipPath
       clipPathUnits="userSpaceOnUse"
       id="clipPath3383"><path
         d="M 0,24 24,24 24,0 0,0 0,24 z"
         id="path3385" /></clipPath></defs><sodipodi:namedview
     pagecolor="#ffffff"
     bordercolor="#666666"
     borderopacity="1"
     objecttolerance="10"
     gridtolerance="10"
     guidetolerance="10"
     inkscape:pageopacity="0"
     inkscape:pageshadow="2"
     inkscape:window-width="630"
     inkscape:window-height="445"
     id="namedview3351"
     showgrid="false"
     inkscape:zoom="7.8666667"
     inkscape:cx="15"
     inkscape:cy="15"
     inkscape:window-x="0"
     inkscape:window-y="0"
     inkscape:window-maximized="0"
     inkscape:current-layer="g3357" /><g
     id="g3357"
     inkscape:groupmode="layer"
     inkscape:label="Nuke_Icons_Toolbar_for_frank_nukepedia"
     transform="matrix(1.25,0,0,-1.25,0,30)"><g
       id="g3359"><g
         id="g3361"><g
           id="g3367"><g
             id="g3369"><path
               d="M 12,21.192 8.499,17.69 C 8.394,17.586 8.341,17.44 8.355,17.293 l 0,0 c 0.012,-0.147 0.09,-0.281 0.211,-0.366 l 0,0 c 1.068,-0.746 2.567,-1.87 3.982,-3.196 l 0,0 c -1.454,1.361 -3.016,2.524 -4.13,3.296 l 0,0 c -0.08,0.056 -0.175,0.082 -0.27,0.082 l 0,0 c -0.142,0 -0.284,-0.057 -0.386,-0.156 l 0,0 C 7.708,16.901 7.668,16.838 7.642,16.769 l 0,0 L 4.595,8.498 C 4.523,8.302 4.581,8.081 4.739,7.945 l 0,0 C 5.347,7.427 5.908,6.91 6.41,6.409 l 0,0 c 0.5,-0.5 1.016,-1.061 1.535,-1.67 l 0,0 C 8.042,4.626 8.182,4.564 8.325,4.564 l 0,0 c 0.058,0 0.116,0.01 0.173,0.03 l 0,0 8.272,3.048 c 0.066,0.024 0.146,0.083 0.197,0.131 l 0,0 c 0.174,0.17 0.2,0.443 0.061,0.644 l 0,0 c -0.819,1.18 -2.074,2.861 -3.534,4.38 l 0,0 c 1.429,-1.486 2.644,-3.101 3.434,-4.232 l 0,0 c 0.085,-0.12 0.219,-0.199 0.366,-0.211 l 0,0 c 0.015,-10e-4 0.029,-0.002 0.044,-0.002 l 0,0 c 0.132,0 0.26,0.052 0.353,0.147 l 0,0 3.501,3.501 c 0.134,0.134 0.181,0.332 0.122,0.512 l 0,0 c -0.031,0.091 -0.778,2.266 -3.657,5.145 l 0,0 c -2.88,2.878 -5.054,3.625 -5.145,3.656 l 0,0 c -0.052,0.018 -0.106,0.026 -0.159,0.026 l 0,0 c -0.13,0 -0.258,-0.051 -0.353,-0.147 M 4.569,7.805 C 4.41,7.764 4.281,7.647 4.224,7.493 l 0,0 L 2.692,3.334 C 2.624,3.151 2.67,2.946 2.808,2.808 l 0,0 C 2.902,2.712 3.031,2.661 3.161,2.661 l 0,0 c 0.058,0 0.117,0.01 0.173,0.031 l 0,0 4.159,1.532 C 7.647,4.281 7.764,4.41 7.805,4.569 l 0,0 c 0.04,0.16 0,0.329 -0.107,0.453 l 0,0 C 7.287,5.492 6.858,5.96 6.409,6.409 l 0,0 C 5.961,6.858 5.491,7.288 5.022,7.698 l 0,0 C 4.929,7.777 4.813,7.82 4.693,7.82 l 0,0 C 4.652,7.82 4.611,7.816 4.569,7.805"
               style="fill:url(#linearGradient3371);stroke:none"
               id="path3377" /></g></g></g></g><g
       id="g3379"><g
         id="g3381"
         clip-path="url(#clipPath3383)"><g
           id="g3387"
           transform="translate(12.3535,21.8389)"><path
             d="M 0,0 C -0.261,0 -0.517,-0.103 -0.707,-0.293 L -4.208,-3.795 C -4.336,-3.923 -4.426,-4.082 -4.47,-4.253 -4.635,-4.296 -4.791,-4.381 -4.92,-4.507 l -0.021,-0.021 c -0.106,-0.104 -0.188,-0.23 -0.24,-0.369 l -3.047,-8.271 c -0.066,-0.182 -0.078,-0.374 -0.039,-0.556 -0.149,-0.113 -0.265,-0.268 -0.332,-0.449 l -1.532,-4.159 c -0.135,-0.366 -0.044,-0.777 0.232,-1.053 0.191,-0.191 0.446,-0.293 0.707,-0.293 0.116,0 0.233,0.02 0.345,0.062 l 4.16,1.532 c 0.18,0.067 0.335,0.183 0.448,0.332 0.07,-0.016 0.14,-0.023 0.211,-0.023 0.115,0 0.233,0.02 0.345,0.062 l 8.272,3.047 c 0.132,0.049 0.252,0.124 0.352,0.223 0.139,0.134 0.234,0.304 0.281,0.485 0.175,0.043 0.339,0.133 0.469,0.264 l 3.501,3.502 C 9.46,-9.925 9.554,-9.528 9.434,-9.169 9.402,-9.073 8.618,-6.79 5.657,-3.828 2.695,-0.867 0.412,-0.083 0.316,-0.051 0.212,-0.017 0.106,0 0,0 m -7.66,-14.519 c 0.461,-0.401 0.922,-0.823 1.362,-1.264 0.441,-0.441 0.862,-0.901 1.265,-1.363 l -4.159,-1.532 1.532,4.159 m 3.439,9.297 c 1.27,-0.881 3.084,-2.242 4.663,-3.821 1.578,-1.578 2.94,-3.394 3.822,-4.665 l -0.021,-0.02 -8.271,-3.047 c -0.487,0.571 -1.009,1.147 -1.562,1.699 -0.553,0.552 -1.129,1.076 -1.699,1.562 l 3.047,8.271 0.021,0.021 M 0,-1 c 0,0 2.121,-0.707 4.95,-3.535 2.828,-2.829 3.535,-4.95 3.535,-4.95 l -3.501,-3.502 c -0.902,1.291 -2.253,3.069 -3.835,4.651 -1.582,1.582 -3.36,2.932 -4.65,3.834 L 0,-1"
             style="fill:#323232;fill-opacity:1;fill-rule:nonzero;stroke:none"
             id="path3389" /></g></g></g></g></svg>