<?xml version="1.0" encoding="UTF-8" standalone="no"?>
<!-- Created with Inkscape (http://www.inkscape.org/) -->

<svg
   xmlns:dc="http://purl.org/dc/elements/1.1/"
   xmlns:cc="http://creativecommons.org/ns#"
   xmlns:rdf="http://www.w3.org/1999/02/22-rdf-syntax-ns#"
   xmlns:svg="http://www.w3.org/2000/svg"
   xmlns="http://www.w3.org/2000/svg"
   xmlns:sodipodi="http://sodipodi.sourceforge.net/DTD/sodipodi-0.dtd"
   xmlns:inkscape="http://www.inkscape.org/namespaces/inkscape"
   id="svg3004"
   version="1.1"
   inkscape:version="0.48.3.1 r9886"
   width="30"
   height="30"
   xml:space="preserve"
   sodipodi:docname="Nuke_Icons_Toolbar_for_frank_nukepedia.ai"><metadata
     id="metadata3010"><rdf:RDF><cc:Work
         rdf:about=""><dc:format>image/svg+xml</dc:format><dc:type
           rdf:resource="http://purl.org/dc/dcmitype/StillImage" /><dc:title></dc:title></cc:Work></rdf:RDF></metadata><defs
     id="defs3008"><linearGradient
       x1="0"
       y1="0"
       x2="1"
       y2="0"
       gradientUnits="userSpaceOnUse"
       gradientTransform="matrix(-9e-7,21,21,9e-7,12.000488,1.5)"
       spreadMethod="pad"
       id="linearGradient3026"><stop
         style="stop-opacity:1;stop-color:#8c8c8c"
         offset="0"
         id="stop3028" /><stop
         style="stop-opacity:1;stop-color:#afafaf"
         offset="1"
         id="stop3030" /></linearGradient><clipPath
       clipPathUnits="userSpaceOnUse"
       id="clipPath3038"><path
         d="M 0,24 24,24 24,0 0,0 0,24 z"
         id="path3040" /></clipPath></defs><sodipodi:namedview
     pagecolor="#ffffff"
     bordercolor="#666666"
     borderopacity="1"
     objecttolerance="10"
     gridtolerance="10"
     guidetolerance="10"
     inkscape:pageopacity="0"
     inkscape:pageshadow="2"
     inkscape:window-width="640"
     inkscape:window-height="480"
     id="namedview3006"
     showgrid="false"
     inkscape:zoom="7.8666667"
     inkscape:cx="15"
     inkscape:cy="15"
     inkscape:window-x="0"
     inkscape:window-y="0"
     inkscape:window-maximized="0"
     inkscape:current-layer="g3012" /><g
     id="g3012"
     inkscape:groupmode="layer"
     inkscape:label="Nuke_Icons_Toolbar_for_frank_nukepedia"
     transform="matrix(1.25,0,0,-1.25,0,30)"><g
       id="g3014"><g
         id="g3016"><g
           id="g3022"><g
             id="g3024"><path
               d="M 10.949,22.447 C 10.618,22.415 10.293,22.363 9.9,22.289 l 0,0 C 9.544,22.217 9.193,22.126 8.833,22.011 l 0,0 C 8.481,21.901 8.138,21.768 7.799,21.621 l 0,0 c -0.361,-0.159 -0.71,-0.34 -1.05,-0.537 l 0,0 C 6.404,20.885 6.058,20.654 5.71,20.394 l 0,0 C 5.305,20.09 4.957,19.795 4.65,19.493 l 0,0 L 4.507,19.35 C 4.206,19.042 3.911,18.696 3.6,18.282 l 0,0 C 3.346,17.943 3.116,17.596 2.915,17.25 l 0,0 C 2.725,16.922 2.55,16.585 2.38,16.198 l 0,0 -10e-4,0 C 2.232,15.863 2.1,15.52 1.982,15.15 l 0,0 C 1.875,14.807 1.784,14.457 1.7,14.027 l 0,0 C 1.637,13.707 1.586,13.382 1.553,13.049 l 0,0 C 1.518,12.704 1.5,12.354 1.5,12 l 0,0 c 0,-0.354 0.018,-0.704 0.053,-1.05 l 0,0 C 1.588,10.595 1.641,10.245 1.711,9.899 l 0,0 C 1.784,9.543 1.874,9.193 1.982,8.851 l 0,0 C 2.095,8.491 2.23,8.141 2.38,7.799 l 0,0 C 2.409,7.731 2.443,7.664 2.492,7.566 l 0,0 C 2.622,7.287 2.763,7.015 2.917,6.748 l 0,0 C 3.116,6.404 3.346,6.058 3.6,5.719 l 0,0 C 3.906,5.311 4.202,4.961 4.507,4.65 l 0,0 L 4.65,4.507 C 4.961,4.203 5.311,3.906 5.719,3.599 l 0,0 C 6.058,3.345 6.404,3.116 6.749,2.915 l 0,0 C 7.016,2.762 7.287,2.622 7.598,2.476 l 0,0 C 7.664,2.443 7.731,2.409 7.799,2.38 l 0,0 C 8.141,2.23 8.491,2.095 8.843,1.984 l 0,0 C 8.85,1.982 8.855,1.981 8.861,1.978 l 0,0 C 9.2,1.873 9.546,1.783 9.901,1.71 l 0,0 C 10.245,1.641 10.595,1.588 10.95,1.553 l 0,0 C 11.296,1.518 11.646,1.5 12,1.5 l 0,0 c 0.354,0 0.704,0.018 1.051,0.053 l 0,0 c 0.327,0.033 0.649,0.083 1.048,0.158 l 0,0 c 0.358,0.073 0.709,0.164 1.074,0.279 l 0,0 c 0.438,0.139 0.889,0.322 1.382,0.56 l 0,0 c 0.236,0.114 0.468,0.235 0.696,0.366 l 0,0 c 0.349,0.202 0.701,0.436 1.05,0.698 l 0,0 c 0.401,0.302 0.744,0.594 1.053,0.897 l 0,0 0.138,0.139 c 0.3,0.304 0.592,0.648 0.896,1.052 l 0,0 c 0.255,0.34 0.49,0.692 0.679,1.021 l 0,0 c 0.009,0.013 0.016,0.024 0.023,0.037 l 0,0 c 0.39,0.676 0.701,1.374 0.928,2.091 l 0,0 C 22.338,9.87 22.5,10.93 22.5,12 l 0,0 c 0,1.072 -0.162,2.131 -0.482,3.15 l 0,0 c -0.223,0.711 -0.538,1.417 -0.936,2.104 l 0,0 c -0.206,0.354 -0.44,0.706 -0.696,1.047 l 0,0 c -0.3,0.399 -0.592,0.741 -0.893,1.049 l 0,0 -0.146,0.145 c -0.303,0.298 -0.645,0.589 -1.046,0.891 l 0,0 c -0.341,0.256 -0.692,0.49 -1.05,0.698 l 0,0 c -0.227,0.132 -0.46,0.252 -0.723,0.38 l 0,0 c -0.499,0.238 -0.949,0.419 -1.382,0.554 l 0,0 c -0.34,0.108 -0.689,0.199 -1.047,0.271 l 0,0 c -0.344,0.07 -0.693,0.123 -1.049,0.158 l 0,0 C 12.704,22.481 12.354,22.5 12,22.5 l 0,0 c -0.354,0 -0.704,-0.019 -1.051,-0.053"
               style="fill:url(#linearGradient3026);stroke:none"
               id="path3032" /></g></g></g></g><g
       id="g3034"><g
         id="g3036"
         clip-path="url(#clipPath3038)"><g
           id="g3042"
           transform="translate(12,23)"><path
             d="m 0,0 c -0.361,0 -0.73,-0.019 -1.099,-0.055 -0.008,-0.001 -0.016,-0.002 -0.024,-0.003 -0.323,-0.033 -0.651,-0.082 -1.001,-0.151 0,0 -10e-4,0 -0.002,0 -0.007,0 -0.037,-0.004 -0.066,-0.01 C -2.569,-0.296 -2.939,-0.392 -3.299,-0.505 -3.313,-0.509 -3.33,-0.515 -3.346,-0.521 -3.671,-0.624 -4.01,-0.752 -4.368,-0.907 -4.379,-0.912 -4.39,-0.916 -4.401,-0.921 -4.759,-1.078 -5.118,-1.262 -5.5,-1.482 -5.863,-1.693 -6.227,-1.934 -6.581,-2.199 -7.014,-2.524 -7.377,-2.833 -7.701,-3.15 l -0.15,-0.151 c -0.316,-0.322 -0.625,-0.685 -0.943,-1.109 -0.272,-0.363 -0.513,-0.727 -0.723,-1.089 -0.221,-0.382 -0.405,-0.742 -0.562,-1.1 -0.004,-0.008 -0.007,-0.017 -0.01,-0.025 -0.155,-0.356 -0.283,-0.694 -0.391,-1.032 -0.003,-0.01 -0.007,-0.019 -0.009,-0.027 -0.119,-0.378 -0.215,-0.748 -0.29,-1.117 -0.005,-0.025 -0.014,-0.085 -0.018,-0.11 -0.063,-0.317 -0.112,-0.644 -0.145,-0.967 l -0.003,-0.024 C -10.981,-10.27 -11,-10.639 -11,-11 c 0,-0.361 0.019,-0.73 0.055,-1.099 0.037,-0.369 0.092,-0.739 0.166,-1.1 10e-4,-0.007 0.003,-0.013 0.004,-0.02 0.074,-0.36 0.168,-0.723 0.279,-1.078 0.001,-0.002 0.001,-0.004 0.002,-0.006 0.113,-0.357 0.248,-0.716 0.415,-1.097 0.034,-0.078 0.071,-0.152 0.108,-0.226 0.148,-0.316 0.296,-0.601 0.448,-0.865 0.002,-0.004 0.004,-0.008 0.007,-0.011 0.207,-0.357 0.443,-0.715 0.704,-1.063 l 0.012,-0.017 c 0.319,-0.425 0.63,-0.791 0.95,-1.118 l 0.151,-0.151 c 0.326,-0.319 0.692,-0.63 1.117,-0.949 0.355,-0.266 0.718,-0.507 1.08,-0.716 0.269,-0.155 0.557,-0.305 0.857,-0.445 0.093,-0.047 0.167,-0.084 0.243,-0.117 0.384,-0.168 0.743,-0.304 1.101,-0.417 0.006,-0.002 0.012,-0.004 0.018,-0.005 0.351,-0.11 0.709,-0.202 1.065,-0.275 0.006,-0.002 0.013,-0.003 0.019,-0.004 0.361,-0.074 0.731,-0.129 1.1,-0.166 C -0.73,-21.981 -0.361,-22 0,-22 c 0.361,0 0.73,0.019 1.099,0.055 0.007,0.001 0.016,0.002 0.024,0.003 0.314,0.032 0.639,0.081 0.991,0.15 0.012,0 0.053,0.006 0.093,0.014 0.363,0.074 0.733,0.17 1.093,0.283 0.013,0.004 0.028,0.009 0.043,0.015 0.454,0.145 0.922,0.335 1.428,0.58 0.245,0.117 0.483,0.241 0.716,0.375 0.005,0.003 0.009,0.005 0.014,0.008 0.367,0.212 0.735,0.457 1.096,0.728 10e-4,0.001 0.002,0.001 0.002,0.002 10e-4,0 0.002,10e-4 0.002,10e-4 0.419,0.315 0.779,0.622 1.099,0.936 l 0.012,0.012 0.121,0.121 c 0.009,0.008 0.017,0.017 0.025,0.026 0.314,0.32 0.617,0.676 0.927,1.09 0.004,0.005 0.008,0.01 0.011,0.015 0.265,0.352 0.507,0.716 0.721,1.084 0.003,0.005 0.005,0.01 0.008,0.016 0.408,0.706 0.732,1.436 0.963,2.169 C 10.83,-13.23 11,-12.121 11,-11 c 0,1.113 -0.167,2.213 -0.496,3.271 -0.003,0.009 -0.006,0.019 -0.009,0.028 -0.234,0.746 -0.563,1.488 -0.978,2.203 -0.004,0.006 -0.008,0.012 -0.012,0.019 -0.214,0.366 -0.456,0.73 -0.72,1.081 -0.307,0.409 -0.608,0.763 -0.919,1.081 -0.008,0.008 -0.015,0.016 -0.023,0.024 l -0.144,0.144 c -0.006,0.005 -0.012,0.011 -0.018,0.017 -0.318,0.31 -0.67,0.61 -1.08,0.917 C 6.251,-1.951 5.887,-1.708 5.52,-1.494 5.513,-1.49 5.507,-1.487 5.501,-1.483 5.264,-1.346 5.02,-1.219 4.771,-1.1 4.224,-0.837 3.752,-0.647 3.3,-0.505 l -0.029,0.009 c -0.35,0.108 -0.706,0.2 -1.058,0.272 L 2.198,-0.221 C 1.837,-0.147 1.467,-0.092 1.099,-0.055 0.73,-0.019 0.361,0 0,0 m -1,-18 -1,0 0,1 1,0 0,-1 z m 2,0 -1,0 0,1 1,0 0,-1 z m 2,0 -1,0 0,1 1,0 0,-1 z m -7,1 -1,0 0,1 1,0 0,-1 z m 2,0 -1,0 0,1 1,0 0,-1 z m 2,0 -1,0 0,1 1,0 0,-1 z m 2,0 -1,0 0,1 1,0 0,-1 z m 2,0 -1,0 0,1 1,0 0,-1 z m -9,1 -1,0 0,1 1,0 0,-1 z m 2,0 -1,0 0,1 1,0 0,-1 z m 2,0 -1,0 0,1 1,0 0,-1 z m 2,0 -1,0 0,1 1,0 0,-1 z m 2,0 -1,0 0,1 1,0 0,-1 z m 2,0 -1,0 0,1 1,0 0,-1 z m -9,1 -1,0 0,1 1,0 0,-1 z m 2,0 -1,0 0,1 1,0 0,-1 z m 2,0 -1,0 0,1 1,0 0,-1 z m 2,0 -1,0 0,1 1,0 0,-1 z m 2,0 -1,0 0,1 1,0 0,-1 z m 2,0 -1,0 0,1 1,0 0,-1 z m -11,1 -1,0 0,1 1,0 0,-1 z m 2,0 -1,0 0,1 1,0 0,-1 z m 2,0 -1,0 0,1 1,0 0,-1 z m 2,0 -1,0 0,1 1,0 0,-1 z m 2,0 -1,0 0,1 1,0 0,-1 z m 2,0 -1,0 0,1 1,0 0,-1 z m 2,0 -1,0 0,1 1,0 0,-1 z m -13,1 -1,0 0,1 1,0 0,-1 z m 2,0 -1,0 0,1 1,0 0,-1 z m 2,0 -1,0 0,1 1,0 0,-1 z m 2,0 -1,0 0,1 1,0 0,-1 z m 2,0 -1,0 0,1 1,0 0,-1 z m 2,0 -1,0 0,1 1,0 0,-1 z m 2,0 -1,0 0,1 1,0 0,-1 z m -11,1 -1,0 0,1 1,0 0,-1 z m 2,0 -1,0 0,1 1,0 0,-1 z m 2,0 -1,0 0,1 1,0 0,-1 z m 2,0 -1,0 0,1 1,0 0,-1 z m 2,0 -1,0 0,1 1,0 0,-1 z m 2,0 -1,0 0,1 1,0 0,-1 z m 2,0 -1,0 0,1 1,0 0,-1 z m -13,1 -1,0 0,1 1,0 0,-1 z m 2,0 -1,0 0,1 1,0 0,-1 z m 2,0 -1,0 0,1 1,0 0,-1 z m 2,0 -1,0 0,1 1,0 0,-1 z m 2,0 -1,0 0,1 1,0 0,-1 z m 2,0 -1,0 0,1 1,0 0,-1 z m 2,0 -1,0 0,1 1,0 0,-1 z m -11,1 -1,0 0,1 1,0 0,-1 z m 2,0 -1,0 0,1 1,0 0,-1 z m 2,0 -1,0 0,1 1,0 0,-1 z m 2,0 -1,0 0,1 1,0 0,-1 z m 2,0 -1,0 0,1 1,0 0,-1 z m 2,0 -1,0 0,1 1,0 0,-1 z m 2,0 -1,0 0,1 1,0 0,-1 z m -13,1 -1,0 0,1 1,0 0,-1 z m 2,0 -1,0 0,1 1,0 0,-1 z m 2,0 -1,0 0,1 1,0 0,-1 z m 2,0 -1,0 0,1 1,0 0,-1 z m 2,0 -1,0 0,1 1,0 0,-1 z m 2,0 -1,0 0,1 1,0 0,-1 z m 2,0 -1,0 0,1 1,0 0,-1 z m -11,1 -1,0 0,1 1,0 0,-1 z m 2,0 -1,0 0,1 1,0 0,-1 z m 2,0 -1,0 0,1 1,0 0,-1 z m 2,0 -1,0 0,1 1,0 0,-1 z m 2,0 -1,0 0,1 1,0 0,-1 z m 2,0 -1,0 0,1 1,0 0,-1 z m -9,1 -1,0 0,1 1,0 0,-1 z m 2,0 -1,0 0,1 1,0 0,-1 z m 2,0 -1,0 0,1 1,0 0,-1 z m 2,0 -1,0 0,1 1,0 0,-1 z m 2,0 -1,0 0,1 1,0 0,-1 z m 2,0 -1,0 0,1 1,0 0,-1 z m -9,1 -1,0 0,1 1,0 0,-1 z m 2,0 -1,0 0,1 1,0 0,-1 z m 2,0 -1,0 0,1 1,0 0,-1 z m 2,0 -1,0 0,1 1,0 0,-1 z m 2,0 -1,0 0,1 1,0 0,-1 z m -7,1 -1,0 0,1 1,0 0,-1 z m 2,0 -1,0 0,1 1,0 0,-1 z m 2,0 -1,0 0,1 1,0 0,-1 z m -4,1 0,0.737 C -2.342,-3.352 -2.677,-3.458 -3,-3.589 L -3,-4 -3.864,-4 C -3.911,-4.026 -3.954,-4.056 -4,-4.083 L -4,-5 l -1,0 0,0.235 C -5.094,-4.84 -5.184,-4.92 -5.274,-5 l 0.274,0 0,-1 -1,0 0,0.274 C -6.08,-5.816 -6.16,-5.906 -6.235,-6 L -6,-6 -6,-7 -6.917,-7 C -6.944,-7.046 -6.974,-7.089 -7,-7.136 L -7,-8 -7.411,-8 c -0.131,-0.323 -0.237,-0.658 -0.326,-1 l 0.737,0 0,-1 -0.931,0 C -7.972,-10.328 -8,-10.661 -8,-11 l 1,0 0,-1 -0.931,0 c 0.043,-0.341 0.11,-0.674 0.194,-1 l 0.737,0 0,-1 -0.411,0 c 0.121,-0.297 0.257,-0.586 0.411,-0.864 l 0,0.864 1,0 0,-1 -0.917,0 c 0.203,-0.351 0.429,-0.686 0.682,-1 l 0.235,0 0,-0.274 c 0.227,-0.257 0.469,-0.499 0.726,-0.726 l 0.274,0 0,-0.235 c 0.314,-0.253 0.649,-0.479 1,-0.682 l 0,0.917 1,0 0,-1 -0.864,0 c 0.278,-0.154 0.567,-0.29 0.864,-0.411 l 0,0.411 1,0 0,-0.737 c 0.326,-0.084 0.659,-0.151 1,-0.194 l 0,0.931 1,0 0,-1 c 0.339,0 0.672,0.028 1,0.069 l 0,0.931 1,0 0,-0.737 c 0.342,0.089 0.677,0.195 1,0.326 l 0,0.411 0.864,0 c 0.047,0.026 0.09,0.056 0.136,0.083 l 0,0.917 1,0 0,-0.235 C 5.094,-17.16 5.184,-17.08 5.273,-17 L 5,-17 l 0,1 1,0 0,-0.274 c 0.079,0.09 0.159,0.18 0.235,0.274 L 6,-16 l 0,1 0.918,0 c 0.026,0.046 0.057,0.089 0.082,0.136 l 0,0.864 0.411,0 c 0.131,0.323 0.237,0.658 0.325,1 L 7,-13 l 0,1 0.931,0 C 7.972,-11.672 8,-11.339 8,-11 l -1,0 0,1 0.931,0 c -0.043,0.341 -0.11,0.674 -0.195,1 L 7,-9 7,-8 7.411,-8 C 7.29,-7.703 7.154,-7.414 7,-7.136 L 7,-8 6,-8 6,-7 6.918,-7 C 6.714,-6.649 6.487,-6.314 6.235,-6 L 6,-6 6,-5.726 C 5.773,-5.469 5.531,-5.227 5.273,-5 L 5,-5 5,-4.765 C 4.686,-4.512 4.351,-4.286 4,-4.083 L 4,-5 3,-5 3,-4 3.864,-4 C 3.586,-3.846 3.297,-3.71 3,-3.589 L 3,-4 2,-4 2,-3.263 C 1.674,-3.179 1.341,-3.112 1,-3.069 L 1,-4 0,-4 0,-3 c -0.339,0 -0.672,-0.028 -1,-0.069 L -1,-4 -2,-4 m 2,3 c 0.337,0 0.671,-0.018 1,-0.05 0.339,-0.034 0.672,-0.084 1,-0.151 10e-4,0 10e-4,0 0.002,0 C 2.34,-1.27 2.672,-1.356 2.997,-1.458 2.998,-1.458 2.999,-1.459 3,-1.459 3.453,-1.602 3.888,-1.785 4.312,-1.987 4.319,-1.992 4.328,-1.996 4.337,-2 4.562,-2.109 4.784,-2.224 5,-2.349 5.001,-2.349 5.002,-2.35 5.003,-2.351 5.35,-2.552 5.682,-2.774 6,-3.014 l 0,0 C 6.35,-3.277 6.686,-3.556 6.997,-3.862 6.998,-3.863 6.999,-3.863 7,-3.864 7.046,-3.909 7.091,-3.954 7.136,-4 7.137,-4.001 7.138,-4.002 7.139,-4.003 7.444,-4.315 7.724,-4.65 7.986,-5 l 0,0 C 8.227,-5.319 8.448,-5.65 8.649,-5.997 8.65,-5.998 8.65,-5.999 8.651,-6 9.016,-6.628 9.319,-7.295 9.541,-8 l 0,-0.002 C 9.839,-8.949 10,-9.955 10,-11 10,-12.045 9.838,-13.053 9.541,-14 L 9.535,-14.016 C 9.314,-14.714 9.013,-15.375 8.652,-15.998 8.652,-15.999 8.651,-16 8.651,-16 8.45,-16.347 8.229,-16.678 7.988,-16.997 7.987,-16.998 7.987,-16.999 7.986,-17 7.723,-17.351 7.442,-17.687 7.136,-18 7.135,-18.001 7.135,-18.001 7.134,-18.002 7.09,-18.046 7.046,-18.09 7.002,-18.134 7.001,-18.134 7.001,-18.135 7,-18.136 6.687,-18.442 6.351,-18.723 6,-18.986 5.999,-18.987 5.997,-18.988 5.996,-18.989 5.678,-19.229 5.347,-19.451 5,-19.651 L 4.998,-19.652 C 4.783,-19.777 4.562,-19.891 4.337,-20 3.912,-20.205 3.477,-20.389 3.021,-20.533 3.014,-20.535 3.007,-20.539 3,-20.541 2.674,-20.644 2.34,-20.73 2,-20.799 1.975,-20.805 1.948,-20.806 1.923,-20.811 1.62,-20.87 1.313,-20.918 1.002,-20.949 1.001,-20.949 1.001,-20.95 1,-20.95 0.671,-20.982 0.337,-21 0,-21 c -0.337,0 -0.671,0.018 -1,0.05 -0.339,0.034 -0.672,0.084 -1,0.151 l -10e-4,0 c -0.339,0.069 -0.672,0.155 -0.997,0.257 -10e-4,0 -0.002,0.001 -0.002,0.001 -0.342,0.108 -0.675,0.236 -1,0.378 -0.076,0.034 -0.148,0.071 -0.222,0.108 -0.266,0.124 -0.526,0.258 -0.778,0.404 0,0 0,0 -0.001,0 -0.34,0.197 -0.666,0.416 -0.98,0.651 0,0 0,0 -0.001,0 -0.357,0.268 -0.7,0.552 -1.018,0.864 -0.046,0.045 -0.091,0.09 -0.136,0.136 -0.312,0.318 -0.596,0.661 -0.864,1.018 0,10e-4 0,10e-4 0,10e-4 -0.235,0.314 -0.454,0.64 -0.651,0.98 0,0.001 0,0.001 0,0.001 -0.146,0.252 -0.28,0.512 -0.404,0.778 -0.037,0.074 -0.074,0.146 -0.108,0.222 -0.142,0.325 -0.27,0.658 -0.378,1 0,0 -10e-4,10e-4 -10e-4,0.002 -0.102,0.325 -0.188,0.658 -0.257,0.997 l 0,10e-4 c -0.067,0.328 -0.117,0.661 -0.151,1 -0.032,0.329 -0.05,0.663 -0.05,1 0,0.337 0.018,0.671 0.05,1 0,10e-4 10e-4,10e-4 10e-4,0.002 0.031,0.314 0.079,0.624 0.139,0.929 0.005,0.023 0.006,0.047 0.011,0.069 0.069,0.34 0.155,0.673 0.258,1 0.002,0.006 0.004,0.011 0.006,0.017 0.106,0.335 0.232,0.662 0.372,0.981 0,10e-4 0,0.002 0,0.002 0.151,0.345 0.324,0.676 0.511,1 10e-4,0 10e-4,0 10e-4,0 0.197,0.341 0.416,0.667 0.651,0.982 0.002,0.002 0.004,0.005 0.006,0.008 0.266,0.354 0.549,0.695 0.858,1.01 0.045,0.046 0.09,0.091 0.136,0.136 0.315,0.309 0.656,0.592 1.01,0.858 0.003,0.002 0.006,0.004 0.008,0.006 0.315,0.235 0.641,0.454 0.982,0.651 0,0 0,0 0,0.001 0.324,0.187 0.655,0.36 1,0.511 l 0.002,0 c 0.319,0.14 0.646,0.266 0.981,0.372 0.006,0.002 0.011,0.004 0.017,0.006 0.327,0.103 0.66,0.189 1,0.258 0.022,0.005 0.046,0.006 0.069,0.011 0.305,0.06 0.615,0.108 0.929,0.139 0.001,0 0.001,10e-4 0.002,10e-4 0.329,0.032 0.663,0.05 1,0.05"
             style="fill:#323232;fill-opacity:1;fill-rule:nonzero;stroke:none"
             id="path3044" /></g></g></g></g></svg>