<?xml version="1.0" encoding="UTF-8" standalone="no"?>
<!-- Created with Inkscape (http://www.inkscape.org/) -->

<svg
   xmlns:dc="http://purl.org/dc/elements/1.1/"
   xmlns:cc="http://creativecommons.org/ns#"
   xmlns:rdf="http://www.w3.org/1999/02/22-rdf-syntax-ns#"
   xmlns:svg="http://www.w3.org/2000/svg"
   xmlns="http://www.w3.org/2000/svg"
   xmlns:sodipodi="http://sodipodi.sourceforge.net/DTD/sodipodi-0.dtd"
   xmlns:inkscape="http://www.inkscape.org/namespaces/inkscape"
   width="50"
   height="50"
   id="svg2"
   version="1.1"
   inkscape:version="0.48.3.1 r9886"
   sodipodi:docname="render.svg">
  <defs
     id="defs4" />
  <sodipodi:namedview
     id="base"
     pagecolor="#ffffff"
     bordercolor="#666666"
     borderopacity="1.0"
     inkscape:pageopacity="0.0"
     inkscape:pageshadow="2"
     inkscape:zoom="3.34"
     inkscape:cx="25"
     inkscape:cy="25"
     inkscape:document-units="px"
     inkscape:current-layer="g3128"
     showgrid="false"
     inkscape:window-width="2560"
     inkscape:window-height="1545"
     inkscape:window-x="-2"
     inkscape:window-y="-3"
     inkscape:window-maximized="1" />
  <metadata
     id="metadata7">
    <rdf:RDF>
      <cc:Work
         rdf:about="">
        <dc:format>image/svg+xml</dc:format>
        <dc:type
           rdf:resource="http://purl.org/dc/dcmitype/StillImage" />
        <dc:title></dc:title>
      </cc:Work>
    </rdf:RDF>
  </metadata>
  <g
     inkscape:groupmode="layer"
     id="layer2"
     inkscape:label="paths"
     style="display:inline">
    <path
       style="fill:#818181;fill-opacity:1;fill-rule:nonzero;stroke:#000000;stroke-width:4.0999999;stroke-miterlimit:4;stroke-opacity:1;stroke-dasharray:none"
       d="M 25.90625,5 C 14.538114,5 5.3125,14.225614 5.3125,25.59375 c 0,11.368136 9.225614,20.59375 20.59375,20.59375 11.368136,0 20.5625,-9.225614 20.5625,-20.59375 C 46.46875,14.225614 37.274386,5 25.90625,5 z m -0.0872,4.568488 c 7.316946,0 15.794911,8.777365 15.794911,16.094311 0,7.316946 -8.927066,17.591318 -16.244012,17.591318 -7.316946,0 -14.747006,-10.124671 -14.747006,-17.441617 0,-7.316946 7.879161,-16.244012 15.196107,-16.244012 z"
       id="path3050"
       inkscape:connector-curvature="0"
       sodipodi:nodetypes="ssssssssss" />
  </g>
  <g
     style="display:inline"
     inkscape:label="paths copy"
     id="g3128"
     inkscape:groupmode="layer">
    <path
       style="fill:#818181;fill-opacity:1;fill-rule:nonzero;stroke:none"
       d="M 25.90625,5 C 14.538114,5 5.3125,14.225614 5.3125,25.59375 c 0,11.368136 9.225614,20.59375 20.59375,20.59375 11.368136,0 20.5625,-9.225614 20.5625,-20.59375 C 46.46875,14.225614 37.274386,5 25.90625,5 z m -6.59375,10.03125 8.84375,5.25 8.8125,5.25 -8.8125,5.25 L 19.3125,36 l 0,-10.46875 0,-10.5 z"
       id="path3130"
       inkscape:connector-curvature="0" />
  </g>
</svg>
