<?xml version="1.0" encoding="UTF-8" standalone="no"?>
<!-- Created with Inkscape (http://www.inkscape.org/) -->

<svg
   xmlns:dc="http://purl.org/dc/elements/1.1/"
   xmlns:cc="http://creativecommons.org/ns#"
   xmlns:rdf="http://www.w3.org/1999/02/22-rdf-syntax-ns#"
   xmlns:svg="http://www.w3.org/2000/svg"
   xmlns="http://www.w3.org/2000/svg"
   xmlns:sodipodi="http://sodipodi.sourceforge.net/DTD/sodipodi-0.dtd"
   xmlns:inkscape="http://www.inkscape.org/namespaces/inkscape"
   id="svg3039"
   version="1.1"
   inkscape:version="0.48.3.1 r9886"
   width="30"
   height="30"
   xml:space="preserve"
   sodipodi:docname="Nuke_Icons_Toolbar_for_frank_nukepedia.ai"><metadata
     id="metadata3045"><rdf:RDF><cc:Work
         rdf:about=""><dc:format>image/svg+xml</dc:format><dc:type
           rdf:resource="http://purl.org/dc/dcmitype/StillImage" /><dc:title></dc:title></cc:Work></rdf:RDF></metadata><defs
     id="defs3043"><linearGradient
       x1="0"
       y1="0"
       x2="1"
       y2="0"
       gradientUnits="userSpaceOnUse"
       gradientTransform="matrix(-7e-7,17,17,7e-7,12.000488,3.5)"
       spreadMethod="pad"
       id="linearGradient3063"><stop
         style="stop-opacity:1;stop-color:#8c8c8c"
         offset="0"
         id="stop3065" /><stop
         style="stop-opacity:1;stop-color:#afafaf"
         offset="1"
         id="stop3067" /></linearGradient><clipPath
       clipPathUnits="userSpaceOnUse"
       id="clipPath3075"><path
         d="M 0,24 24,24 24,0 0,0 0,24 z"
         id="path3077" /></clipPath></defs><sodipodi:namedview
     pagecolor="#ffffff"
     bordercolor="#666666"
     borderopacity="1"
     objecttolerance="10"
     gridtolerance="10"
     guidetolerance="10"
     inkscape:pageopacity="0"
     inkscape:pageshadow="2"
     inkscape:window-width="1291"
     inkscape:window-height="1424"
     id="namedview3041"
     showgrid="false"
     inkscape:zoom="29.9"
     inkscape:cx="15"
     inkscape:cy="15"
     inkscape:window-x="0"
     inkscape:window-y="0"
     inkscape:window-maximized="0"
     inkscape:current-layer="g3047" /><g
     id="g3047"
     inkscape:groupmode="layer"
     inkscape:label="Nuke_Icons_Toolbar_for_frank_nukepedia"
     transform="matrix(1.25,0,0,-1.25,0,30)"><path
       d="M 23,4 1,4 1,20 23,20 23,4 z"
       style="fill:#323232;fill-opacity:1;fill-rule:nonzero;stroke:none"
       id="path3049" /><g
       id="g3051"><g
         id="g3053"><g
           id="g3059"><g
             id="g3061"><path
               d="M 2,20.5 C 1.723,20.5 1.5,20.276 1.5,20 l 0,0 0,-2 c 0,-0.276 0.223,-0.5 0.5,-0.5 l 0,0 C 1.723,17.5 1.5,17.276 1.5,17 l 0,0 0,-4 c 0,-0.277 0.223,-0.5 0.5,-0.5 l 0,0 9.609,0 c 0.203,0 0.385,0.122 0.463,0.309 l 0,0 c 0.077,0.187 0.034,0.401 -0.109,0.544 l 0,0 -1.501,1.501 0.505,0.504 3.357,-3.358 -3.357,-3.357 -0.505,0.503 1.502,1.5 c 0.143,0.143 0.185,0.358 0.108,0.545 l 0,0 C 11.994,11.379 11.812,11.5 11.61,11.5 l 0,0 -9.61,0 C 1.723,11.5 1.5,11.276 1.5,11 l 0,0 0,-4 C 1.5,6.724 1.723,6.5 2,6.5 l 0,0 C 1.723,6.5 1.5,6.277 1.5,6 l 0,0 0,-2 C 1.5,3.723 1.723,3.5 2,3.5 l 0,0 20,0 c 0.277,0 0.5,0.223 0.5,0.5 l 0,0 0,2 c 0,0.277 -0.223,0.5 -0.5,0.5 l 0,0 c 0.277,0 0.5,0.224 0.5,0.5 l 0,0 0,10 c 0,0.276 -0.223,0.5 -0.5,0.5 l 0,0 c 0.277,0 0.5,0.224 0.5,0.5 l 0,0 0,2 c 0,0.276 -0.223,0.5 -0.5,0.5 l 0,0 -20,0 z"
               style="fill:url(#linearGradient3063);stroke:none"
               id="path3069" /></g></g></g></g><g
       id="g3071"><g
         id="g3073"
         clip-path="url(#clipPath3075)"><g
           id="g3079"
           transform="translate(11.6094,12)"><path
             d="M 0,0 C 0.404,0 0.769,0.244 0.924,0.617 0.976,0.744 1.001,0.876 1,1.008 L 2.008,0 1,-1.007 C 1.001,-0.876 0.977,-0.743 0.924,-0.617 0.77,-0.244 0.405,0 0,0 z m 10.391,9 -20,0 c -0.553,0 -1,-0.448 -1,-1 l 0,-2 c 0,-0.182 0.048,-0.353 0.133,-0.5 -0.085,-0.147 -0.133,-0.318 -0.133,-0.5 l 0,-4 c 0,-0.552 0.447,-1 1,-1 -0.553,0 -1,-0.448 -1,-1 l 0,-4 c 0,-0.182 0.048,-0.353 0.133,-0.5 -0.085,-0.147 -0.133,-0.318 -0.133,-0.5 l 0,-2 c 0,-0.552 0.447,-1 1,-1 l 20,0 c 0.552,0 1,0.448 1,1 l 0,2 c 0,0.182 -0.049,0.353 -0.134,0.5 0.085,0.147 0.134,0.318 0.134,0.5 l 0,10 c 0,0.182 -0.049,0.353 -0.134,0.5 0.085,0.147 0.134,0.318 0.134,0.5 l 0,2 c 0,0.552 -0.448,1 -1,1 m 0,-17 -20,0 0,2 20,0 0,-2 z m 0,13 0,-10 -20,0 0,4 L 0,-1 -1.854,-2.854 -0.643,-4.064 3.422,0 -0.643,4.064 -1.854,2.854 0,1 l -9.609,0 0,4 20,0 m 0,1 -20,0 0,2 20,0 0,-2 z"
             style="fill:#323232;fill-opacity:1;fill-rule:nonzero;stroke:none"
             id="path3081" /></g></g></g></g></svg>