<?xml version="1.0" encoding="UTF-8" standalone="no"?>
<!-- Created with Inkscape (http://www.inkscape.org/) -->

<svg
   xmlns:dc="http://purl.org/dc/elements/1.1/"
   xmlns:cc="http://creativecommons.org/ns#"
   xmlns:rdf="http://www.w3.org/1999/02/22-rdf-syntax-ns#"
   xmlns:svg="http://www.w3.org/2000/svg"
   xmlns="http://www.w3.org/2000/svg"
   xmlns:sodipodi="http://sodipodi.sourceforge.net/DTD/sodipodi-0.dtd"
   xmlns:inkscape="http://www.inkscape.org/namespaces/inkscape"
   id="svg3274"
   version="1.1"
   inkscape:version="0.48.3.1 r9886"
   width="30"
   height="30"
   xml:space="preserve"
   sodipodi:docname="Nuke_Icons_Toolbar_for_frank_nukepedia.ai"><metadata
     id="metadata3280"><rdf:RDF><cc:Work
         rdf:about=""><dc:format>image/svg+xml</dc:format><dc:type
           rdf:resource="http://purl.org/dc/dcmitype/StillImage" /><dc:title></dc:title></cc:Work></rdf:RDF></metadata><defs
     id="defs3278"><linearGradient
       x1="0"
       y1="0"
       x2="1"
       y2="0"
       gradientUnits="userSpaceOnUse"
       gradientTransform="matrix(-9e-7,21,21,9e-7,11.744629,1.5)"
       spreadMethod="pad"
       id="linearGradient3296"><stop
         style="stop-opacity:1;stop-color:#8c8c8c"
         offset="0"
         id="stop3298" /><stop
         style="stop-opacity:1;stop-color:#afafaf"
         offset="1"
         id="stop3300" /></linearGradient><clipPath
       clipPathUnits="userSpaceOnUse"
       id="clipPath3308"><path
         d="M 0,24 24,24 24,0 0,0 0,24 z"
         id="path3310" /></clipPath><linearGradient
       x1="0"
       y1="0"
       x2="1"
       y2="0"
       gradientUnits="userSpaceOnUse"
       gradientTransform="matrix(-7e-7,16.554687,16.554687,7e-7,11.744629,1.5)"
       spreadMethod="pad"
       id="linearGradient3328"><stop
         style="stop-opacity:1;stop-color:#da5d00"
         offset="0"
         id="stop3330" /><stop
         style="stop-opacity:1;stop-color:#f88000"
         offset="1"
         id="stop3332" /></linearGradient><clipPath
       clipPathUnits="userSpaceOnUse"
       id="clipPath3340"><path
         d="M 0,24 24,24 24,0 0,0 0,24 z"
         id="path3342" /></clipPath><linearGradient
       x1="0"
       y1="0"
       x2="1"
       y2="0"
       gradientUnits="userSpaceOnUse"
       gradientTransform="matrix(-8e-7,19,19,8e-7,13.5,3.5)"
       spreadMethod="pad"
       id="linearGradient3360"><stop
         style="stop-opacity:1;stop-color:#da5d00"
         offset="0"
         id="stop3362" /><stop
         style="stop-opacity:1;stop-color:#f88000"
         offset="1"
         id="stop3364" /></linearGradient><clipPath
       clipPathUnits="userSpaceOnUse"
       id="clipPath3372"><path
         d="M 0,24 24,24 24,0 0,0 0,24 z"
         id="path3374" /></clipPath></defs><sodipodi:namedview
     pagecolor="#ffffff"
     bordercolor="#666666"
     borderopacity="1"
     objecttolerance="10"
     gridtolerance="10"
     guidetolerance="10"
     inkscape:pageopacity="0"
     inkscape:pageshadow="2"
     inkscape:window-width="801"
     inkscape:window-height="733"
     id="namedview3276"
     showgrid="false"
     inkscape:zoom="7.8666667"
     inkscape:cx="15"
     inkscape:cy="15"
     inkscape:window-x="420"
     inkscape:window-y="411"
     inkscape:window-maximized="0"
     inkscape:current-layer="g3282" /><g
     id="g3282"
     inkscape:groupmode="layer"
     inkscape:label="Nuke_Icons_Toolbar_for_frank_nukepedia"
     transform="matrix(1.25,0,0,-1.25,0,30)"><g
       id="g3284"><g
         id="g3286"><g
           id="g3292"><g
             id="g3294"><path
               d="m 11.389,22.5 c -0.376,0 -0.728,-0.146 -0.992,-0.411 l 0,0 C 10.132,21.824 9.987,21.473 9.988,21.1 l 0,0 -10e-4,-4 -0.398,0 c -0.376,0 -0.728,-0.147 -0.992,-0.411 l 0,0 C 8.332,16.424 8.188,16.073 8.188,15.701 l 0,0 C 8.187,15.327 8.332,14.976 8.596,14.712 l 0,0 c 0.265,-0.265 0.617,-0.411 0.993,-0.411 l 0,0 0.398,0 0,-5.802 0,3.511 c 0,0.153 -0.068,0.297 -0.187,0.391 l 0,0 -6.707,5.364 c -0.239,0.193 -0.484,0.29 -0.725,0.29 l 0,0 C 1.936,18.055 1.5,17.728 1.5,17 l 0,0 0,-14 C 1.5,2.173 2.173,1.5 3,1.5 l 0,0 18,0 c 0.669,0 0.883,0.323 0.95,0.517 l 0,0 c 0.068,0.193 0.105,0.579 -0.417,0.999 l 0,0 -7.052,5.64 c -0.09,0.072 -0.201,0.11 -0.312,0.11 l 0,0 c -0.069,0 -0.137,-0.014 -0.201,-0.042 l 0,0 C 13.825,8.661 13.721,8.536 13.684,8.388 l 0,0 c 0.001,0.038 0.003,5.913 0.003,5.913 l 0,0 0.4,0 c 0.376,0 0.729,0.146 0.993,0.411 l 0,0 c 0.263,0.264 0.408,0.615 0.407,0.986 l 0,0 c 10e-4,0.375 -0.144,0.727 -0.408,0.991 l 0,0 C 14.816,16.953 14.463,17.1 14.087,17.1 l 0,0 -0.4,0 -10e-4,3.999 c 10e-4,0.374 -0.144,0.726 -0.407,0.991 l 0,0 c -0.265,0.264 -0.616,0.41 -0.991,0.41 l 0,0 -0.899,0 z M 13.266,6.475 c 0.009,0.032 0.018,0.063 0.028,0.095 l 0,0 C 13.282,6.531 13.271,6.493 13.261,6.456 l 0,0 C 13.137,6.035 13.037,5.678 12.976,5.387 l 0,0 c 0.068,0.326 0.18,0.711 0.29,1.088 M 10.532,6.049 C 10.533,6.046 10.534,6.043 10.535,6.04 l 0,0 c -10e-4,0.003 -0.002,0.006 -0.003,0.009 m 0.003,-0.01 C 10.57,5.913 10.604,5.79 10.633,5.671 l 0,0 c -0.029,0.115 -0.061,0.238 -0.098,0.368"
               style="fill:url(#linearGradient3296);stroke:none"
               id="path3302" /></g></g></g></g><g
       id="g3304"><g
         id="g3306"
         clip-path="url(#clipPath3308)"><g
           id="g3312"
           transform="translate(12.2881,23)"><path
             d="M 0,0 -0.899,0 C -1.408,0 -1.886,-0.198 -2.246,-0.558 -2.604,-0.917 -2.801,-1.395 -2.8,-1.902 l -0.001,-3.501 c -0.47,-0.025 -0.909,-0.22 -1.244,-0.555 -0.359,-0.359 -0.556,-0.837 -0.555,-1.345 -0.001,-0.503 0.196,-0.98 0.554,-1.338 0.335,-0.336 0.774,-0.531 1.245,-0.556 l 0,-0.511 -6.081,4.864 c -0.412,0.329 -0.792,0.399 -1.038,0.399 -0.68,0 -1.368,-0.534 -1.368,-1.555 l 0,-14 c 0,-1.103 0.897,-2 2,-2 l 18,0 c 1.014,0 1.332,0.595 1.422,0.851 0.09,0.256 0.214,0.92 -0.576,1.554 l -7.052,5.641 c -0.176,0.141 -0.39,0.216 -0.608,0.22 l 0.001,4.537 c 0.472,0.025 0.912,0.219 1.247,0.556 0.358,0.358 0.554,0.835 0.553,1.342 C 3.7,-6.794 3.504,-6.317 3.146,-5.958 2.81,-5.622 2.371,-5.427 1.899,-5.403 L 1.898,-1.9 C 1.899,-1.394 1.702,-0.917 1.344,-0.557 0.985,-0.198 0.508,0 0,0 m -9.92,-5.445 c 0.119,0 0.261,-0.058 0.413,-0.18 l 6.706,-5.364 0,-3.512 c 0,-0.651 0.225,-1.419 0.442,-2.162 0.156,-0.534 0.333,-1.141 0.333,-1.438 l 0,-0.899 c 0,-0.553 0.448,-1 1,-1 l 1.152,0 c 0.553,0 1,0.447 1,1 l 0,0.899 c 0,0.297 0.177,0.902 0.332,1.436 0.191,0.658 0.381,1.331 0.423,1.931 l 7.051,-5.641 C 9.362,-20.721 9.265,-21 8.712,-21 l -18,0 c -0.552,0 -1,0.447 -1,1 l 0,14 c 0,0.358 0.147,0.555 0.368,0.555 M 0,-1 c 0.497,0 0.899,-0.402 0.898,-0.9 l 0.001,-4.5 0.9,0 c 0.499,0 0.901,-0.402 0.9,-0.901 0.001,-0.496 -0.401,-0.898 -0.9,-0.898 l -0.9,0 -0.001,-6.3 c 0.001,-0.994 -0.772,-2.7 -0.772,-3.602 l 0,-0.899 -1.152,0 0,0.899 c 0,0.902 -0.775,2.608 -0.775,3.6 l 0,6.302 -0.898,0 c -0.499,0 -0.902,0.402 -0.901,0.898 -10e-4,0.499 0.403,0.901 0.901,0.901 l 0.898,0 10e-4,4.5 c -10e-4,0.498 0.403,0.9 0.901,0.9 L 0,-1"
             style="fill:#323232;fill-opacity:1;fill-rule:nonzero;stroke:none"
             id="path3314" /></g></g></g></g></svg>