<?xml version="1.0" encoding="UTF-8" standalone="no"?>
<!-- Created with Inkscape (http://www.inkscape.org/) -->

<svg
   xmlns:dc="http://purl.org/dc/elements/1.1/"
   xmlns:cc="http://creativecommons.org/ns#"
   xmlns:rdf="http://www.w3.org/1999/02/22-rdf-syntax-ns#"
   xmlns:svg="http://www.w3.org/2000/svg"
   xmlns="http://www.w3.org/2000/svg"
   xmlns:sodipodi="http://sodipodi.sourceforge.net/DTD/sodipodi-0.dtd"
   xmlns:inkscape="http://www.inkscape.org/namespaces/inkscape"
   id="svg3608"
   version="1.1"
   inkscape:version="0.48.3.1 r9886"
   width="30"
   height="30"
   xml:space="preserve"
   sodipodi:docname="Nuke_Icons_Toolbar_for_frank_nukepedia.ai"><metadata
     id="metadata3614"><rdf:RDF><cc:Work
         rdf:about=""><dc:format>image/svg+xml</dc:format><dc:type
           rdf:resource="http://purl.org/dc/dcmitype/StillImage" /><dc:title></dc:title></cc:Work></rdf:RDF></metadata><defs
     id="defs3612"><linearGradient
       x1="0"
       y1="0"
       x2="1"
       y2="0"
       gradientUnits="userSpaceOnUse"
       gradientTransform="matrix(-8e-7,17.664062,17.664062,8e-7,12.000488,3.1679688)"
       spreadMethod="pad"
       id="linearGradient3630"><stop
         style="stop-opacity:1;stop-color:#8c8c8c"
         offset="0"
         id="stop3632" /><stop
         style="stop-opacity:1;stop-color:#afafaf"
         offset="1"
         id="stop3634" /></linearGradient><clipPath
       clipPathUnits="userSpaceOnUse"
       id="clipPath3642"><path
         d="M 0,24 24,24 24,0 0,0 0,24 z"
         id="path3644" /></clipPath></defs><sodipodi:namedview
     pagecolor="#ffffff"
     bordercolor="#666666"
     borderopacity="1"
     objecttolerance="10"
     gridtolerance="10"
     guidetolerance="10"
     inkscape:pageopacity="0"
     inkscape:pageshadow="2"
     inkscape:window-width="640"
     inkscape:window-height="480"
     id="namedview3610"
     showgrid="false"
     inkscape:zoom="7.8666667"
     inkscape:cx="15"
     inkscape:cy="15"
     inkscape:window-x="0"
     inkscape:window-y="0"
     inkscape:window-maximized="0"
     inkscape:current-layer="g3616" /><g
     id="g3616"
     inkscape:groupmode="layer"
     inkscape:label="Nuke_Icons_Toolbar_for_frank_nukepedia"
     transform="matrix(1.25,0,0,-1.25,0,30)"><g
       id="g3618"><g
         id="g3620"><g
           id="g3626"><g
             id="g3628"><path
               d="m 11.809,20.794 -10,-4.139 C 1.622,16.578 1.5,16.395 1.5,16.194 l 0,0 c 0,-0.204 0.122,-0.385 0.309,-0.463 l 0,0 4.127,-1.705 c -0.056,0.02 -0.116,0.03 -0.174,0.03 l 0,0 c -0.065,0 -0.13,-0.012 -0.192,-0.038 l 0,0 -3.761,-1.556 C 1.622,12.385 1.5,12.202 1.5,12 l 0,0 c 0,-0.202 0.122,-0.385 0.309,-0.462 l 0,0 4.125,-1.707 C 5.879,9.851 5.82,9.861 5.762,9.861 l 0,0 c -0.065,0 -0.13,-0.012 -0.191,-0.037 l 0,0 L 1.809,8.267 C 1.622,8.19 1.5,8.008 1.5,7.806 l 0,0 C 1.5,7.603 1.622,7.421 1.809,7.344 l 0,0 10,-4.138 C 11.87,3.181 11.935,3.168 12,3.168 l 0,0 c 0.064,0 0.13,0.013 0.191,0.038 l 0,0 10,4.138 C 22.378,7.421 22.5,7.603 22.5,7.806 l 0,0 c 0,0.202 -0.122,0.384 -0.309,0.461 l 0,0 -3.762,1.557 c -0.061,0.025 -0.126,0.037 -0.191,0.037 l 0,0 c -0.058,0 -0.116,-0.01 -0.172,-0.03 l 0,0 4.125,1.707 C 22.378,11.615 22.5,11.798 22.5,12 l 0,0 c 0,0.202 -0.122,0.385 -0.309,0.462 l 0,0 -3.762,1.556 c -0.061,0.026 -0.126,0.038 -0.191,0.038 l 0,0 c -0.058,0 -0.116,-0.01 -0.173,-0.03 l 0,0 4.126,1.705 c 0.187,0.078 0.309,0.259 0.309,0.463 l 0,0 c 0,0.201 -0.122,0.384 -0.309,0.461 l 0,0 -10,4.139 C 12.13,20.82 12.064,20.832 12,20.832 l 0,0 c -0.065,0 -0.13,-0.012 -0.191,-0.038"
               style="fill:url(#linearGradient3630);stroke:none"
               id="path3636" /></g></g></g></g><g
       id="g3638"><g
         id="g3640"
         clip-path="url(#clipPath3642)"><g
           id="g3646"
           transform="translate(12,21.332)"><path
             d="m 0,0 c -0.13,0 -0.26,-0.025 -0.382,-0.076 l -10,-4.139 C -10.756,-4.37 -11,-4.734 -11,-5.139 c 0,-0.404 0.244,-0.769 0.618,-0.924 l 2.835,-1.172 -2.835,-1.173 C -10.756,-8.563 -11,-8.927 -11,-9.332 c 0,-0.404 0.244,-0.77 0.618,-0.924 l 2.835,-1.174 -2.835,-1.172 c -0.374,-0.155 -0.618,-0.52 -0.618,-0.924 0,-0.405 0.244,-0.77 0.618,-0.924 l 10,-4.138 c 0.122,-0.051 0.252,-0.076 0.382,-0.076 0.13,0 0.26,0.025 0.382,0.076 l 10.001,4.138 c 0.373,0.154 0.617,0.519 0.617,0.924 0,0.404 -0.244,0.769 -0.618,0.924 l -2.835,1.172 2.836,1.174 c 0.373,0.154 0.617,0.52 0.617,0.924 0,0.405 -0.244,0.769 -0.617,0.924 l -2.836,1.173 2.835,1.172 c 0.374,0.155 0.618,0.52 0.618,0.924 0,0.405 -0.244,0.769 -0.617,0.924 L 0.382,-0.076 C 0.26,-0.025 0.13,0 0,0 M 6.238,-11.971 10,-13.526 0,-17.664 l -10,4.138 3.762,1.555 5.855,-2.424 0.383,-0.158 0.383,0.158 5.855,2.424 m 0,4.196 3.762,-1.557 -10,-4.139 -10,4.139 3.762,1.557 5.856,-2.421 0.382,-0.158 0.382,0.158 5.856,2.421 M 0,-1 10,-5.139 0,-9.272 -10,-5.139 0,-1"
             style="fill:#323232;fill-opacity:1;fill-rule:nonzero;stroke:none"
             id="path3648" /></g></g></g></g></svg>