<?xml version="1.0" encoding="UTF-8" standalone="no"?>
<!-- Created with Inkscape (http://www.inkscape.org/) -->

<svg
   xmlns:dc="http://purl.org/dc/elements/1.1/"
   xmlns:cc="http://creativecommons.org/ns#"
   xmlns:rdf="http://www.w3.org/1999/02/22-rdf-syntax-ns#"
   xmlns:svg="http://www.w3.org/2000/svg"
   xmlns="http://www.w3.org/2000/svg"
   xmlns:sodipodi="http://sodipodi.sourceforge.net/DTD/sodipodi-0.dtd"
   xmlns:inkscape="http://www.inkscape.org/namespaces/inkscape"
   id="svg4420"
   version="1.1"
   inkscape:version="0.48.3.1 r9886"
   width="30"
   height="30"
   xml:space="preserve"
   sodipodi:docname="Nuke_Icons_Toolbar_for_frank_nukepedia.ai"><metadata
     id="metadata4426"><rdf:RDF><cc:Work
         rdf:about=""><dc:format>image/svg+xml</dc:format><dc:type
           rdf:resource="http://purl.org/dc/dcmitype/StillImage" /><dc:title></dc:title></cc:Work></rdf:RDF></metadata><defs
     id="defs4424"><linearGradient
       x1="0"
       y1="0"
       x2="1"
       y2="0"
       gradientUnits="userSpaceOnUse"
       gradientTransform="matrix(-1e-6,21.734375,21.734375,1e-6,11.998535,1.1328125)"
       spreadMethod="pad"
       id="linearGradient4442"><stop
         style="stop-opacity:1;stop-color:#8c8c8c"
         offset="0"
         id="stop4444" /><stop
         style="stop-opacity:1;stop-color:#afafaf"
         offset="1"
         id="stop4446" /></linearGradient><clipPath
       clipPathUnits="userSpaceOnUse"
       id="clipPath4454"><path
         d="M 0,24 24,24 24,0 0,0 0,24 z"
         id="path4456" /></clipPath></defs><sodipodi:namedview
     pagecolor="#ffffff"
     bordercolor="#666666"
     borderopacity="1"
     objecttolerance="10"
     gridtolerance="10"
     guidetolerance="10"
     inkscape:pageopacity="0"
     inkscape:pageshadow="2"
     inkscape:window-width="640"
     inkscape:window-height="480"
     id="namedview4422"
     showgrid="false"
     inkscape:zoom="7.8666667"
     inkscape:cx="15"
     inkscape:cy="15"
     inkscape:window-x="0"
     inkscape:window-y="0"
     inkscape:window-maximized="0"
     inkscape:current-layer="g4428" /><g
     id="g4428"
     inkscape:groupmode="layer"
     inkscape:label="Nuke_Icons_Toolbar_for_frank_nukepedia"
     transform="matrix(1.25,0,0,-1.25,0,30)"><g
       id="g4430"><g
         id="g4432"><g
           id="g4438"><g
             id="g4440"><path
               d="M 17.692,22.8 11.568,21.54 C 10.959,21.365 10.135,20.869 9.69,20.41 l 0,0 -7.654,-7.906 C 1.462,11.908 1.479,10.956 2.073,10.382 l 0,0 7.184,-6.953 C 9.537,3.155 9.908,3.005 10.3,3.005 l 0,0 c 0.408,0 0.791,0.162 1.077,0.457 l 0,0 c 0,0 7.668,7.921 7.676,7.928 l 0,0 C 19.046,11.383 11.648,3.741 11.648,3.741 l 0,0 C 11.534,3.624 11.485,3.459 11.516,3.299 l 0,0 c 0.031,-0.161 0.138,-0.295 0.287,-0.361 l 0,0 3.747,-1.674 c 0.194,-0.087 0.4,-0.131 0.611,-0.131 l 0,0 10e-4,0 c 0.591,0 1.128,0.348 1.368,0.887 l 0,0 4.49,10.048 c 0.259,0.583 0.412,1.534 0.343,2.201 l 0,0 -0.568,3.15 c -0.043,0.238 -0.25,0.411 -0.492,0.411 l 0,0 -0.002,0 c -0.237,-10e-4 -0.438,-0.166 -0.488,-0.394 l 0,0 0.339,1.967 c 0.177,0.696 -0.026,1.767 -0.879,2.593 l 0,0 c -0.571,0.553 -1.315,0.871 -2.041,0.871 l 0,0 c -0.206,0 -0.401,-0.025 -0.54,-0.067 m 0.492,-2.963 c -0.198,0.192 -0.204,0.511 -0.011,0.709 l 0,0 c 0.094,0.097 0.222,0.152 0.358,0.152 l 0,0 c 0.131,0 0.255,-0.05 0.349,-0.141 l 0,0 c 0.198,-0.192 0.203,-0.509 0.012,-0.707 l 0,0 c -0.096,-0.099 -0.223,-0.153 -0.36,-0.153 l 0,0 c -0.131,0 -0.255,0.05 -0.348,0.14 m 2.457,-3.408 c 0,-10e-4 0,-0.002 0,-0.002 l 0,0 0,0.002 z m -0.004,-0.024 c -0.055,-0.324 -0.524,-3.061 -0.526,-3.066 l 0,0 0.526,3.066 z"
               style="fill:url(#linearGradient4442);stroke:none"
               id="path4448" /></g></g></g></g><g
       id="g4450"><g
         id="g4452"
         clip-path="url(#clipPath4454)"><g
           id="g4458"
           transform="translate(18.2324,23.3672)"><path
             d="m 0,0 c -0.237,0 -0.464,-0.028 -0.674,-0.085 l -6.054,-1.243 c -0.025,-0.005 -0.05,-0.012 -0.075,-0.019 -0.692,-0.198 -1.594,-0.741 -2.098,-1.262 l -7.653,-7.906 c -0.767,-0.796 -0.745,-2.064 0.047,-2.83 l 7.184,-6.954 c 0.374,-0.362 0.867,-0.563 1.39,-0.563 0.337,0 0.66,0.083 0.948,0.238 0.095,-0.111 0.214,-0.201 0.352,-0.263 l 3.746,-1.674 c 0.259,-0.115 0.533,-0.173 0.816,-0.173 0.789,0 1.506,0.464 1.826,1.184 l 4.489,10.046 c 0.295,0.664 0.462,1.703 0.39,2.417 -0.003,0.026 -0.007,0.052 -0.011,0.077 L 4.055,-5.859 C 3.979,-5.44 3.648,-5.122 3.241,-5.052 l 0.173,1.01 c 0.181,0.777 0.02,2.018 -1.025,3.03 C 1.725,-0.369 0.854,0 0,0 M 3.07,-6.037 3.639,-9.188 C 3.694,-9.736 3.556,-10.59 3.331,-11.096 l -4.489,-10.047 c -0.166,-0.371 -0.53,-0.591 -0.913,-0.591 -0.136,0 -0.275,0.027 -0.408,0.087 l -3.747,1.673 7.384,7.627 c 0.502,0.519 1.015,1.438 1.21,2.213 L 3.07,-6.037 M 0.3,-4.17 c 0.261,0 0.522,0.102 0.719,0.305 0.383,0.396 0.374,1.029 -0.024,1.414 -0.194,0.188 -0.445,0.282 -0.696,0.282 -0.261,0 -0.522,-0.102 -0.718,-0.305 -0.385,-0.397 -0.374,-1.03 0.023,-1.415 C -0.202,-4.076 0.049,-4.17 0.3,-4.17 M 0,-1 c 0.509,0 1.148,-0.202 1.693,-0.73 0.718,-0.696 0.878,-1.575 0.742,-2.11 L 1.383,-9.964 c -0.136,-0.535 -0.559,-1.291 -0.944,-1.687 l -7.654,-7.907 c -0.196,-0.202 -0.457,-0.304 -0.718,-0.304 -0.251,0 -0.501,0.093 -0.695,0.282 l -7.185,6.955 c -0.398,0.385 -0.407,1.017 -0.023,1.415 l 7.653,7.905 c 0.385,0.398 1.126,0.845 1.657,0.997 l 6.087,1.25 C -0.311,-1.021 -0.162,-1 0,-1"
             style="fill:#323232;fill-opacity:1;fill-rule:nonzero;stroke:none"
             id="path4460" /></g></g></g></g></svg>