<?xml version="1.0" encoding="UTF-8" standalone="no"?>
<!-- Created with Inkscape (http://www.inkscape.org/) -->

<svg
   xmlns:dc="http://purl.org/dc/elements/1.1/"
   xmlns:cc="http://creativecommons.org/ns#"
   xmlns:rdf="http://www.w3.org/1999/02/22-rdf-syntax-ns#"
   xmlns:svg="http://www.w3.org/2000/svg"
   xmlns="http://www.w3.org/2000/svg"
   xmlns:sodipodi="http://sodipodi.sourceforge.net/DTD/sodipodi-0.dtd"
   xmlns:inkscape="http://www.inkscape.org/namespaces/inkscape"
   id="svg4690"
   version="1.1"
   inkscape:version="0.48.3.1 r9886"
   width="30"
   height="30"
   xml:space="preserve"
   sodipodi:docname="Nuke_Icons_Toolbar_for_frank_nukepedia.ai"><metadata
     id="metadata4696"><rdf:RDF><cc:Work
         rdf:about=""><dc:format>image/svg+xml</dc:format><dc:type
           rdf:resource="http://purl.org/dc/dcmitype/StillImage" /><dc:title></dc:title></cc:Work></rdf:RDF></metadata><defs
     id="defs4694"><linearGradient
       x1="0"
       y1="0"
       x2="1"
       y2="0"
       gradientUnits="userSpaceOnUse"
       gradientTransform="matrix(-7e-7,16,16,7e-7,12.000488,3.5)"
       spreadMethod="pad"
       id="linearGradient4714"><stop
         style="stop-opacity:1;stop-color:#8c8c8c"
         offset="0"
         id="stop4716" /><stop
         style="stop-opacity:1;stop-color:#afafaf"
         offset="1"
         id="stop4718" /></linearGradient><clipPath
       clipPathUnits="userSpaceOnUse"
       id="clipPath4726"><path
         d="M 0,24 24,24 24,0 0,0 0,24 z"
         id="path4728" /></clipPath></defs><sodipodi:namedview
     pagecolor="#ffffff"
     bordercolor="#666666"
     borderopacity="1"
     objecttolerance="10"
     gridtolerance="10"
     guidetolerance="10"
     inkscape:pageopacity="0"
     inkscape:pageshadow="2"
     inkscape:window-width="630"
     inkscape:window-height="445"
     id="namedview4692"
     showgrid="false"
     inkscape:zoom="7.8666667"
     inkscape:cx="15"
     inkscape:cy="15"
     inkscape:window-x="0"
     inkscape:window-y="0"
     inkscape:window-maximized="0"
     inkscape:current-layer="g4698" /><g
     id="g4698"
     inkscape:groupmode="layer"
     inkscape:label="Nuke_Icons_Toolbar_for_frank_nukepedia"
     transform="matrix(1.25,0,0,-1.25,0,30)"><path
       d="m 19,12 -14,0 0,6 14,0 0,-6 z"
       style="fill:#323232;fill-opacity:1;fill-rule:nonzero;stroke:none"
       id="path4700" /><g
       id="g4702"><g
         id="g4704"><g
           id="g4710"><g
             id="g4712"><path
               d="m 5,19.5 c -0.205,0 -0.388,-0.124 -0.464,-0.315 l 0,0 -2.001,-4.999 C 2.512,14.127 2.5,14.063 2.5,14 l 0,0 0,-10 C 2.5,3.723 2.723,3.5 3,3.5 l 0,0 18,0 c 0.276,0 0.5,0.223 0.5,0.5 l 0,0 0,10 c 0,0.063 -0.012,0.127 -0.036,0.186 l 0,0 -2,4.999 C 19.389,19.376 19.204,19.5 19,19.5 l 0,0 -14,0 z m 1.339,-2 11.322,0 1.2,-3 -13.722,0 1.2,3 z"
               style="fill:url(#linearGradient4714);stroke:none"
               id="path4720" /></g></g></g></g><g
       id="g4722"><g
         id="g4724"
         clip-path="url(#clipPath4726)"><g
           id="g4730"
           transform="translate(6.6772,17)"><path
             d="m 0,0 10.646,0 0.8,-2 L -0.8,-2 0,0 z m 12.323,3 -14,0 C -2.086,3 -2.454,2.751 -2.606,2.371 l -2,-5 C -4.653,-2.747 -4.677,-2.873 -4.677,-3 l 0,-10 c 0,-0.553 0.448,-1 1,-1 l 18,0 c 0.552,0 1,0.447 1,1 l 0,10 c 0,0.127 -0.025,0.253 -0.072,0.371 l -2,5 C 13.099,2.751 12.732,3 12.323,3 m -14.6,-6 15.199,0 -1.599,4 -12,0 -1.6,-4 m 14.6,5 2,-5 0,-10 -18,0 0,10 2,5 14,0"
             style="fill:#323232;fill-opacity:1;fill-rule:nonzero;stroke:none"
             id="path4732" /></g></g></g></g></svg>