<?xml version="1.0" encoding="UTF-8" standalone="no"?>
<!-- Generator: Adobe Illustrator 15.0.0, SVG Export Plug-In . SVG Version: 6.00 Build 0)  -->

<svg
   xmlns:dc="http://purl.org/dc/elements/1.1/"
   xmlns:cc="http://creativecommons.org/ns#"
   xmlns:rdf="http://www.w3.org/1999/02/22-rdf-syntax-ns#"
   xmlns:svg="http://www.w3.org/2000/svg"
   xmlns="http://www.w3.org/2000/svg"
   xmlns:sodipodi="http://sodipodi.sourceforge.net/DTD/sodipodi-0.dtd"
   xmlns:inkscape="http://www.inkscape.org/namespaces/inkscape"
   version="1.1"
   x="0px"
   y="0px"
   width="24px"
   height="24px"
   viewBox="0 0 24 24"
   enable-background="new 0 0 24 24"
   xml:space="preserve"
   id="svg9033"
   inkscape:version="0.48.3.1 r9886"
   sodipodi:docname="particles_.svg"><metadata
   id="metadata9240"><rdf:RDF><cc:Work
       rdf:about=""><dc:format>image/svg+xml</dc:format><dc:type
         rdf:resource="http://purl.org/dc/dcmitype/StillImage" /><dc:title></dc:title></cc:Work></rdf:RDF></metadata><defs
   id="defs9238">
	
	
	
	
	
	
	
	
	
	
	
	
	
	
	
	
	
</defs><sodipodi:namedview
   pagecolor="#ffffff"
   bordercolor="#666666"
   borderopacity="1"
   objecttolerance="10"
   gridtolerance="10"
   guidetolerance="10"
   inkscape:pageopacity="0"
   inkscape:pageshadow="2"
   inkscape:window-width="1123"
   inkscape:window-height="1118"
   id="namedview9236"
   showgrid="false"
   inkscape:zoom="37.875"
   inkscape:cx="12"
   inkscape:cy="12"
   inkscape:window-x="540"
   inkscape:window-y="291"
   inkscape:window-maximized="0"
   inkscape:current-layer="svg9033" />

<g
   style="display:none"
   display="none"
   id="Toolbar_x5F_Keyers">
		<linearGradient
   y2="-214.5"
   x2="11.7446"
   y1="-193.5"
   x1="11.7446"
   gradientUnits="userSpaceOnUse"
   id="SVGID_8_">
			<stop
   id="stop9121"
   style="stop-color:#8C8C8C"
   offset="0" />
			<stop
   id="stop9123"
   style="stop-color:#AFAFAF"
   offset="1" />
		</linearGradient>
		<path
   inkscape:connector-curvature="0"
   style="fill:url(#SVGID_8_);display:inline"
   id="path9125"
   d="m 3,-193.5 c -0.827,0 -1.5,-0.673 -1.5,-1.5 v -14 c 0,-0.729 0.436,-1.055 0.868,-1.055 0.242,0 0.486,0.097 0.726,0.29 l 6.706,5.364 c 0.119,0.095 0.188,0.239 0.188,0.391 v 3.512 -5.802 H 9.589 c -0.375,0 -0.728,-0.146 -0.993,-0.411 -0.264,-0.264 -0.409,-0.615 -0.408,-0.988 0,-0.373 0.144,-0.724 0.408,-0.988 0.264,-0.265 0.617,-0.411 0.992,-0.411 h 0.398 l 10e-4,-4 c -10e-4,-0.373 0.144,-0.725 0.408,-0.989 0.265,-0.265 0.617,-0.411 0.992,-0.411 h 0.899 c 0.375,0 0.726,0.146 0.99,0.41 0.264,0.265 0.409,0.617 0.408,0.991 l 0.001,3.999 h 0.399 c 0.376,0 0.729,0.146 0.992,0.411 0.264,0.264 0.409,0.616 0.408,0.991 10e-4,0.371 -0.145,0.722 -0.407,0.986 -0.265,0.265 -0.617,0.411 -0.993,0.411 h -0.399 c 0,0 -0.002,5.875 -0.004,5.913 0.038,-0.148 0.142,-0.273 0.284,-0.336 0.064,-0.028 0.133,-0.042 0.201,-0.042 0.111,0 0.222,0.038 0.312,0.109 l 7.051,5.641 c 0.522,0.419 0.486,0.806 0.418,0.999 -0.067,0.193 -0.281,0.517 -0.95,0.517 H 3 z m 10.266,-4.975 c -0.109,0.377 -0.222,0.762 -0.289,1.087 0.061,-0.291 0.161,-0.647 0.284,-1.068 0.011,-0.038 0.021,-0.076 0.033,-0.114 -0.01,0.032 -0.019,0.063 -0.028,0.095 z m -2.783,0.253 c 0.058,0.201 0.108,0.384 0.151,0.551 -0.045,-0.176 -0.097,-0.363 -0.151,-0.551 z"
   display="inline" />
		<path
   style="fill:#323232;display:inline"
   inkscape:connector-curvature="0"
   id="path9127"
   d="m 12.288,-214 c 0.497,0 0.899,0.402 0.898,0.9 l 10e-4,4.5 h 0.899 c 0.499,0 0.901,0.401 0.9,0.9 10e-4,0.496 -0.401,0.898 -0.9,0.898 h -0.899 l -10e-4,6.3 c 10e-4,0.994 -0.772,2.7 -0.772,3.602 v 0.9 h -1.152 c 0,0 0,-0.649 0,-0.899 0,-0.901 -0.774,-2.607 -0.774,-3.6 v -6.302 H 9.589 c -0.499,0 -0.901,-0.402 -0.9,-0.898 -10e-4,-0.499 0.402,-0.9 0.9,-0.9 h 0.898 l 10e-4,-4.5 c -10e-4,-0.498 0.402,-0.9 0.9,-0.9 h 0.9 m -9.92,4.444 c 0.12,0 0.262,0.058 0.414,0.18 l 6.706,5.364 v 3.512 c 0,0.651 0.225,1.419 0.441,2.162 0.156,0.534 0.333,1.141 0.333,1.438 V -196 c 0,0.553 0.448,1 1,1 h 1.152 c 0.553,0 1,-0.447 1,-1 v -0.899 c 0,-0.297 0.177,-0.901 0.332,-1.436 0.191,-0.658 0.381,-1.331 0.423,-1.931 l 7.051,5.641 C 21.65,-194.279 21.553,-194 21,-194 H 3 c -0.552,0 -1,-0.447 -1,-1 v -14 c 0,-0.358 0.147,-0.555 0.368,-0.555 m 9.92,-5.445 h -0.899 c -0.509,0 -0.987,0.198 -1.346,0.558 -0.358,0.359 -0.555,0.836 -0.554,1.344 l -0.001,3.5 c -0.471,0.025 -0.91,0.22 -1.245,0.555 -0.358,0.359 -0.555,0.837 -0.554,1.345 -0.001,0.503 0.196,0.98 0.554,1.338 0.335,0.336 0.774,0.531 1.245,0.556 v 0.512 l -6.082,-4.864 c -0.412,-0.33 -0.792,-0.399 -1.038,-0.399 -0.68,0 -1.368,0.534 -1.368,1.555 v 14 c 0,1.103 0.897,2 2,2 h 18 c 1.014,0 1.332,-0.595 1.422,-0.851 0.09,-0.256 0.214,-0.919 -0.576,-1.554 l -7.052,-5.642 c -0.176,-0.141 -0.39,-0.215 -0.607,-0.219 l 0.001,-4.538 c 0.472,-0.024 0.911,-0.219 1.246,-0.556 0.358,-0.358 0.555,-0.835 0.554,-1.342 0.001,-0.504 -0.195,-0.982 -0.554,-1.341 -0.336,-0.336 -0.774,-0.531 -1.246,-0.555 l -0.001,-3.502 c 0.001,-0.506 -0.196,-0.984 -0.555,-1.343 -0.359,-0.359 -0.836,-0.557 -1.344,-0.557 l 0,0 z"
   display="inline" />
	</g><g
   id="Toolbar_x5F_Particles">
		<linearGradient
   y2="0.5"
   x2="12"
   y1="23.5"
   x1="12"
   gradientUnits="userSpaceOnUse"
   id="SVGID_17_">
			<stop
   id="stop9211"
   style="stop-color:#8C8C8C"
   offset="0" />
			<stop
   id="stop9213"
   style="stop-color:#AFAFAF"
   offset="1" />
		</linearGradient>
		<path
   inkscape:connector-curvature="0"
   style="fill:url(#SVGID_17_)"
   id="path9215"
   d="m 11.984,23.5 c -0.551,0 -1,-0.448 -1,-1 0,-0.552 0.449,-1 1,-1 -0.827,0 -1.5,-0.673 -1.5,-1.5 0,-0.827 0.673,-1.5 1.5,-1.5 -1.103,0 -2,-0.897 -2,-2 0,-1.103 0.897,-2 2,-2 C 11.89,14.496 11.831,14.49 11.772,14.483 11.643,14.47 11.585,14.464 11.528,14.454 11.415,14.433 11.366,14.419 11.317,14.402 11.174,14.359 11.121,14.342 11.068,14.322 10.941,14.269 10.901,14.248 10.861,14.224 10.768,14.176 10.702,14.142 10.638,14.102 10.627,14.095 10.53,14.033 10.52,14.025 10.504,14.013 10.443,13.961 10.429,13.947 10.347,13.882 10.301,13.843 10.256,13.801 10.25,13.796 10.188,13.734 10.182,13.728 10.14,13.683 10.102,13.637 10.065,13.59 10.017,13.536 9.988,13.505 9.963,13.471 c 0.306,0.432 0.427,0.956 0.342,1.479 -0.086,0.526 -0.373,0.989 -0.807,1.301 -0.341,0.246 -0.745,0.376 -1.165,0.376 l 0,0 c -0.643,0 -1.25,-0.312 -1.625,-0.833 -0.312,-0.434 -0.436,-0.963 -0.35,-1.49 0.086,-0.526 0.373,-0.989 0.807,-1.301 0.341,-0.246 0.745,-0.376 1.165,-0.376 0.641,0 1.246,0.31 1.622,0.828 C 9.937,13.432 9.899,13.371 9.892,13.361 9.849,13.293 9.819,13.236 9.789,13.179 9.736,13.084 9.712,13.04 9.693,12.995 9.64,12.86 9.625,12.81 9.61,12.759 9.57,12.634 9.553,12.579 9.541,12.525 9.518,12.393 9.512,12.336 9.507,12.278 9.494,12.157 9.487,12.098 9.486,12.039 c 0,-0.023 0.006,-0.182 0.012,-0.233 0.012,-0.13 0.018,-0.194 0.03,-0.257 0.024,-0.125 0.039,-0.175 0.056,-0.223 0.037,-0.124 0.054,-0.182 0.077,-0.238 0.052,-0.13 0.072,-0.166 0.094,-0.202 C 9.794,10.81 9.822,10.757 9.847,10.712 9.471,11.13 8.929,11.374 8.36,11.374 l 0,0 c -0.42,0 -0.824,-0.13 -1.166,-0.376 C 6.76,10.686 6.474,10.224 6.387,9.697 6.301,9.17 6.425,8.64 6.737,8.207 7.112,7.686 7.719,7.374 8.362,7.374 c 0.42,0 0.824,0.13 1.166,0.376 0.434,0.312 0.72,0.774 0.807,1.301 0.075,0.462 -0.01,0.925 -0.242,1.324 0.028,-0.035 0.057,-0.068 0.087,-0.102 0.006,-0.005 0.073,-0.071 0.079,-0.077 0.037,-0.036 0.08,-0.071 0.125,-0.106 0.071,-0.062 0.105,-0.094 0.145,-0.121 l 0.312,0.395 -0.224,-0.451 C 10.692,9.866 10.743,9.839 10.795,9.812 10.904,9.75 10.95,9.726 10.998,9.707 11.132,9.655 11.193,9.638 11.253,9.62 11.359,9.586 11.407,9.57 11.457,9.56 11.59,9.536 11.643,9.531 11.697,9.526 11.831,9.511 11.889,9.505 11.948,9.505 11.951,9.503 12,9.5 12.016,9.5 c -1.103,0 -2,-0.897 -2,-2 0,-1.103 0.897,-2 2,-2 -0.827,0 -1.5,-0.673 -1.5,-1.5 0,-0.827 0.673,-1.5 1.5,-1.5 -0.551,0 -1,-0.448 -1,-1 0,-0.552 0.449,-1 1,-1 0.551,0 1,0.448 1,1 0,0.552 -0.449,1 -1,1 0.827,0 1.5,0.673 1.5,1.5 0,0.827 -0.673,1.5 -1.5,1.5 1.103,0 2,0.897 2,2 0,1.103 -0.897,2 -2,2 0.093,0.004 0.151,0.01 0.209,0.017 0.133,0.013 0.19,0.019 0.248,0.029 0.115,0.021 0.162,0.035 0.208,0.051 0.147,0.044 0.203,0.062 0.259,0.084 0.117,0.048 0.156,0.069 0.195,0.091 0.118,0.062 0.179,0.094 0.235,0.131 0.01,0.007 0.078,0.051 0.087,0.058 0.021,0.015 0.098,0.075 0.115,0.093 0.079,0.063 0.132,0.105 0.181,0.153 0.107,0.11 0.146,0.158 0.186,0.207 0.039,0.043 0.067,0.073 0.091,0.103 -0.299,-0.43 -0.417,-0.948 -0.332,-1.466 0.086,-0.527 0.373,-0.989 0.808,-1.301 0.341,-0.246 0.744,-0.376 1.164,-0.376 0.644,0 1.251,0.312 1.625,0.834 0.312,0.432 0.437,0.961 0.35,1.489 -0.086,0.526 -0.372,0.988 -0.806,1.301 -0.342,0.246 -0.745,0.376 -1.165,0.376 -10e-4,0 -10e-4,0 -10e-4,0 -0.634,0 -1.234,-0.304 -1.611,-0.813 0.014,0.022 0.028,0.048 0.038,0.067 0.051,0.074 0.082,0.132 0.112,0.19 0.056,0.104 0.079,0.146 0.099,0.19 0.049,0.123 0.067,0.185 0.086,0.246 0.038,0.119 0.054,0.171 0.065,0.224 0.023,0.138 0.029,0.209 0.035,0.28 0.007,0.05 0.016,0.126 0.019,0.203 10e-4,0.04 -0.003,0.119 -0.012,0.159 0.002,-0.006 0.003,-0.009 0.004,-0.009 0.004,0 -0.002,0.049 -0.008,0.099 -0.006,0.087 -0.013,0.169 -0.028,0.25 -0.021,0.113 -0.037,0.162 -0.054,0.21 -0.027,0.098 -0.05,0.177 -0.082,0.255 -0.045,0.111 -0.064,0.147 -0.085,0.184 -0.046,0.087 -0.074,0.141 -0.097,0.181 0.377,-0.418 0.919,-0.662 1.487,-0.662 0.421,0 0.824,0.13 1.166,0.376 0.434,0.312 0.72,0.774 0.806,1.301 0.087,0.528 -0.038,1.058 -0.351,1.49 -0.373,0.521 -0.98,0.833 -1.624,0.833 l 0,0 c -0.42,0 -0.823,-0.13 -1.165,-0.376 -0.434,-0.312 -0.721,-0.773 -0.807,-1.301 -0.076,-0.463 0.01,-0.927 0.243,-1.326 -0.036,0.044 -0.067,0.08 -0.102,0.114 -0.006,0.006 -0.067,0.067 -0.074,0.073 -0.036,0.035 -0.086,0.075 -0.136,0.114 -0.051,0.047 -0.081,0.074 -0.113,0.099 -0.023,0.018 -0.063,0.042 -0.091,0.055 -0.083,0.057 -0.14,0.087 -0.195,0.115 -0.106,0.058 -0.147,0.08 -0.188,0.098 -0.135,0.052 -0.189,0.068 -0.244,0.085 -0.118,0.038 -0.176,0.057 -0.236,0.067 -0.112,0.021 -0.169,0.026 -0.227,0.031 -0.134,0.015 -0.192,0.021 -0.251,0.021 0,0 -0.062,0.003 -0.067,0.003 1.103,0 2,0.897 2,2 0,1.103 -0.897,2 -2,2 0.827,0 1.5,0.673 1.5,1.5 0,0.827 -0.673,1.5 -1.5,1.5 0.551,0 1,0.448 1,1 0,0.552 -0.449,1 -1.001,1 z m 8.526,-4.37 c -0.212,0 -0.414,-0.065 -0.585,-0.19 -0.214,-0.152 -0.357,-0.384 -0.401,-0.647 -0.043,-0.263 0.019,-0.527 0.173,-0.744 0.189,-0.263 0.493,-0.418 0.814,-0.418 0.211,0 0.412,0.065 0.583,0.188 0.445,0.319 0.549,0.945 0.229,1.394 -0.189,0.262 -0.493,0.417 -0.813,0.417 l 0,0 z m -17.051,0 c -0.321,0 -0.625,-0.155 -0.812,-0.417 -0.322,-0.448 -0.219,-1.074 0.229,-1.396 0.17,-0.123 0.372,-0.188 0.583,-0.188 0.322,0 0.625,0.155 0.812,0.417 0.156,0.218 0.218,0.482 0.174,0.747 C 4.401,18.557 4.257,18.786 4.041,18.941 3.873,19.064 3.67,19.13 3.459,19.13 l 0,0 z m 15.02,-0.959 c -0.315,0 -0.618,-0.098 -0.874,-0.283 C 17.28,17.656 17.065,17.309 17,16.912 16.936,16.517 17.029,16.12 17.263,15.795 17.545,15.403 18,15.17 18.483,15.17 c 0.315,0 0.618,0.098 0.875,0.282 0.325,0.234 0.54,0.581 0.604,0.978 0.064,0.396 -0.03,0.793 -0.265,1.117 -0.281,0.39 -0.736,0.624 -1.218,0.624 l 0,0 z m -12.989,0 c -0.482,0 -0.938,-0.234 -1.219,-0.626 -0.234,-0.324 -0.328,-0.722 -0.263,-1.117 0.065,-0.395 0.28,-0.742 0.605,-0.976 0.256,-0.185 0.559,-0.282 0.875,-0.282 0.481,0 0.937,0.233 1.218,0.624 0.234,0.325 0.328,0.723 0.263,1.118 -0.065,0.395 -0.279,0.742 -0.604,0.977 -0.257,0.184 -0.559,0.282 -0.875,0.282 l 0,0 z M 18.513,8.83 C 18.031,8.83 17.575,8.597 17.294,8.206 17.06,7.88 16.966,7.482 17.03,7.088 c 0.065,-0.396 0.28,-0.743 0.606,-0.977 0.255,-0.185 0.558,-0.282 0.873,-0.282 0.482,0 0.938,0.234 1.219,0.626 0.233,0.322 0.328,0.72 0.264,1.115 -0.064,0.396 -0.279,0.743 -0.604,0.978 -0.257,0.184 -0.56,0.282 -0.875,0.282 l 0,0 z M 5.52,8.83 C 5.205,8.83 4.902,8.732 4.645,8.548 4.32,8.314 4.105,7.968 4.04,7.572 3.975,7.176 4.069,6.779 4.303,6.454 4.583,6.063 5.039,5.829 5.521,5.829 5.836,5.829 6.139,5.927 6.396,6.111 6.721,6.345 6.936,6.692 7,7.088 7.064,7.484 6.972,7.881 6.738,8.206 6.457,8.597 6.001,8.83 5.52,8.83 l 0,0 z M 20.542,6.87 C 20.221,6.87 19.917,6.715 19.73,6.455 19.574,6.235 19.512,5.971 19.555,5.708 19.599,5.444 19.743,5.213 19.96,5.058 20.127,4.936 20.329,4.87 20.541,4.87 c 0.32,0 0.624,0.155 0.812,0.415 0.321,0.451 0.218,1.077 -0.229,1.397 -0.17,0.123 -0.371,0.188 -0.582,0.188 z M 3.49,6.87 C 3.28,6.87 3.078,6.806 2.907,6.682 2.46,6.362 2.357,5.736 2.679,5.287 2.866,5.025 3.169,4.87 3.49,4.87 3.701,4.87 3.904,4.935 4.075,5.059 4.29,5.213 4.433,5.442 4.477,5.706 4.521,5.971 4.459,6.235 4.303,6.453 4.116,6.715 3.812,6.87 3.49,6.87 l 0,0 z" />
		<path
   style="fill:#323232"
   inkscape:connector-curvature="0"
   id="path9217"
   d="m 12.016,1 c 0.275,0 0.5,0.224 0.5,0.5 0,0.276 -0.225,0.5 -0.5,0.5 -0.276,0 -0.5,-0.224 -0.5,-0.5 0,-0.276 0.223,-0.5 0.5,-0.5 m 0,2 c 0.552,0 1,0.447 1,1 0,0.553 -0.448,1 -1,1 -0.553,0 -1,-0.447 -1,-1 0,-0.553 0.447,-1 1,-1 m 8.525,2.37 c 0.155,0 0.309,0.072 0.406,0.208 0.16,0.225 0.109,0.537 -0.115,0.698 C 20.744,6.339 20.643,6.37 20.542,6.37 20.387,6.37 20.233,6.298 20.135,6.162 19.975,5.937 20.026,5.625 20.25,5.465 20.338,5.4 20.439,5.37 20.541,5.37 m -17.051,0 c 0.102,0 0.204,0.03 0.292,0.095 0.225,0.16 0.275,0.473 0.114,0.697 C 3.799,6.298 3.646,6.37 3.49,6.37 3.389,6.37 3.287,6.34 3.199,6.276 2.975,6.115 2.924,5.803 3.085,5.578 3.183,5.442 3.335,5.37 3.49,5.37 M 12.016,6 c 0.828,0 1.5,0.672 1.5,1.5 0,0.828 -0.672,1.5 -1.5,1.5 -0.828,0 -1.5,-0.672 -1.5,-1.5 0,-0.828 0.672,-1.5 1.5,-1.5 m 6.494,0.329 c 0.311,0 0.617,0.145 0.812,0.417 0.324,0.448 0.221,1.074 -0.227,1.396 C 18.918,8.269 18.714,8.33 18.512,8.33 18.2,8.33 17.894,8.185 17.699,7.914 17.377,7.465 17.478,6.84 17.928,6.518 18.104,6.391 18.308,6.329 18.51,6.329 m -12.989,0 c 0.202,0 0.406,0.062 0.583,0.188 C 6.553,6.84 6.655,7.465 6.332,7.914 6.137,8.186 5.831,8.33 5.52,8.33 5.318,8.33 5.114,8.268 4.937,8.142 4.488,7.82 4.386,7.194 4.709,6.746 4.904,6.474 5.21,6.329 5.521,6.329 m 10.147,1.544 c 0.467,0 0.927,0.217 1.219,0.625 0.484,0.672 0.33,1.609 -0.342,2.093 -0.265,0.19 -0.57,0.282 -0.874,0.282 -0.466,0 -0.926,-0.217 -1.22,-0.625 -0.482,-0.672 -0.33,-1.609 0.344,-2.093 0.265,-0.19 0.57,-0.282 0.873,-0.282 m -7.304,0 c 0.303,0 0.609,0.092 0.874,0.282 0.673,0.483 0.826,1.421 0.343,2.093 -0.293,0.408 -0.753,0.625 -1.219,0.625 -0.303,0 -0.609,-0.092 -0.874,-0.282 C 6.814,10.107 6.661,9.17 7.145,8.498 7.438,8.09 7.897,7.873 8.364,7.873 M 12.016,10 c 0.009,0 0.018,0.002 0.026,0.003 0.056,10e-4 0.11,0.009 0.167,0.015 0.057,0.006 0.113,0.009 0.17,0.02 0.02,0.003 0.038,0.005 0.057,0.009 0.051,0.011 0.098,0.03 0.147,0.044 0.057,0.018 0.113,0.032 0.169,0.055 0.02,0.008 0.039,0.014 0.059,0.021 0.041,0.019 0.082,0.045 0.123,0.066 0.055,0.028 0.111,0.056 0.164,0.09 0.02,0.013 0.039,0.025 0.059,0.038 0.008,0.006 0.018,0.009 0.027,0.016 0.029,0.022 0.053,0.05 0.082,0.073 0.047,0.037 0.094,0.072 0.137,0.114 0.018,0.017 0.033,0.034 0.051,0.052 0.039,0.041 0.072,0.084 0.107,0.128 0.025,0.031 0.057,0.057 0.08,0.089 0.006,0.01 0.01,0.021 0.016,0.029 0.014,0.02 0.025,0.038 0.037,0.057 0.033,0.051 0.059,0.104 0.086,0.156 0.023,0.045 0.051,0.088 0.07,0.133 0.01,0.02 0.014,0.039 0.021,0.059 0.021,0.051 0.035,0.103 0.051,0.155 0.016,0.054 0.037,0.106 0.049,0.161 0.004,0.019 0.004,0.037 0.008,0.056 0.01,0.052 0.014,0.104 0.018,0.157 0.008,0.061 0.016,0.121 0.018,0.182 0,0.008 0.002,0.016 0.002,0.023 0,0.01 -0.004,0.019 -0.004,0.027 0,0.053 -0.008,0.104 -0.014,0.156 -0.004,0.061 -0.008,0.121 -0.02,0.182 -0.004,0.02 -0.006,0.038 -0.01,0.057 -0.01,0.047 -0.029,0.092 -0.043,0.139 -0.016,0.06 -0.031,0.118 -0.055,0.176 -0.008,0.021 -0.016,0.041 -0.023,0.061 -0.018,0.04 -0.041,0.076 -0.061,0.115 -0.031,0.058 -0.059,0.115 -0.094,0.17 -0.014,0.021 -0.025,0.041 -0.041,0.061 -0.004,0.008 -0.008,0.017 -0.014,0.024 -0.021,0.029 -0.047,0.052 -0.07,0.079 -0.037,0.047 -0.072,0.096 -0.115,0.139 -0.018,0.02 -0.035,0.037 -0.055,0.055 -0.041,0.039 -0.084,0.072 -0.127,0.106 -0.031,0.024 -0.057,0.055 -0.088,0.078 -0.01,0.007 -0.02,0.01 -0.027,0.016 -0.02,0.014 -0.041,0.026 -0.061,0.04 -0.051,0.032 -0.105,0.059 -0.158,0.086 -0.043,0.021 -0.084,0.049 -0.127,0.067 -0.02,0.009 -0.041,0.016 -0.062,0.023 -0.054,0.021 -0.107,0.035 -0.162,0.052 -0.05,0.016 -0.099,0.035 -0.15,0.045 -0.02,0.005 -0.04,0.007 -0.06,0.01 -0.055,0.011 -0.111,0.014 -0.166,0.02 -0.057,0.006 -0.111,0.014 -0.168,0.015 -0.009,0 -0.018,0.003 -0.027,0.003 -0.006,0 -0.011,-10e-4 -0.017,-0.002 C 11.994,13.999 11.989,14 11.984,14 c -0.01,0 -0.018,-0.002 -0.026,-0.003 -0.056,-10e-4 -0.111,-0.009 -0.167,-0.015 -0.057,-0.006 -0.113,-0.009 -0.17,-0.02 -0.02,-0.003 -0.039,-0.005 -0.059,-0.01 -0.049,-0.01 -0.097,-0.029 -0.146,-0.043 -0.057,-0.018 -0.112,-0.032 -0.167,-0.054 -0.021,-0.009 -0.042,-0.015 -0.062,-0.023 -0.041,-0.019 -0.08,-0.044 -0.12,-0.065 -0.055,-0.027 -0.11,-0.055 -0.163,-0.088 -0.021,-0.014 -0.042,-0.027 -0.063,-0.042 -0.008,-0.005 -0.016,-0.009 -0.023,-0.014 -0.03,-0.022 -0.054,-0.05 -0.083,-0.073 -0.045,-0.036 -0.091,-0.07 -0.134,-0.111 -0.02,-0.019 -0.038,-0.037 -0.057,-0.057 -0.039,-0.041 -0.071,-0.084 -0.105,-0.127 -0.025,-0.031 -0.055,-0.056 -0.078,-0.088 -0.006,-0.009 -0.009,-0.018 -0.015,-0.025 -0.015,-0.021 -0.028,-0.044 -0.042,-0.065 -0.031,-0.049 -0.057,-0.101 -0.083,-0.151 -0.022,-0.043 -0.05,-0.084 -0.069,-0.129 -0.01,-0.021 -0.017,-0.045 -0.025,-0.066 -0.02,-0.051 -0.032,-0.103 -0.048,-0.154 -0.016,-0.051 -0.036,-0.102 -0.047,-0.153 -0.005,-0.021 -0.007,-0.044 -0.011,-0.065 -0.01,-0.052 -0.013,-0.104 -0.018,-0.156 -0.006,-0.057 -0.015,-0.113 -0.016,-0.172 0,-0.01 -0.003,-0.02 -0.003,-0.029 0,-0.012 0.003,-0.021 0.003,-0.032 10e-4,-0.052 0.01,-0.104 0.015,-0.155 0.005,-0.058 0.008,-0.115 0.019,-0.172 0.004,-0.022 0.007,-0.045 0.012,-0.066 0.01,-0.047 0.028,-0.092 0.042,-0.138 0.017,-0.056 0.031,-0.112 0.053,-0.167 0.009,-0.023 0.017,-0.048 0.026,-0.07 0.017,-0.037 0.04,-0.071 0.059,-0.107 0.001,-0.003 0.003,-0.006 0.005,-0.009 0.027,-0.054 0.054,-0.108 0.087,-0.159 0.015,-0.024 0.029,-0.048 0.046,-0.07 0.005,-0.007 0.007,-0.014 0.012,-0.021 0.021,-0.029 0.048,-0.052 0.07,-0.079 0.036,-0.047 0.07,-0.093 0.111,-0.136 0.021,-0.021 0.041,-0.041 0.062,-0.061 0.039,-0.038 0.082,-0.069 0.124,-0.104 0.031,-0.024 0.056,-0.055 0.089,-0.078 0.008,-0.005 0.016,-0.009 0.023,-0.014 0.022,-0.016 0.045,-0.029 0.067,-0.044 0.05,-0.031 0.103,-0.057 0.154,-0.084 0.042,-0.021 0.081,-0.049 0.124,-0.066 0.021,-0.01 0.044,-0.017 0.066,-0.025 0.053,-0.021 0.106,-0.035 0.16,-0.051 0.05,-0.015 0.099,-0.034 0.148,-0.045 0.021,-0.005 0.042,-0.007 0.062,-0.011 0.055,-0.01 0.11,-0.013 0.166,-0.019 0.056,-0.006 0.11,-0.014 0.166,-0.015 0.01,0 0.019,-0.003 0.028,-0.003 0.005,0 0.011,0.001 0.016,0.002 C 12.005,10.001 12.01,10 12.016,10 m 3.624,3.127 c 0.304,0 0.609,0.092 0.874,0.282 0.672,0.483 0.826,1.421 0.342,2.093 -0.292,0.408 -0.752,0.625 -1.219,0.625 -0.303,0 -0.608,-0.092 -0.873,-0.282 -0.674,-0.483 -0.826,-1.421 -0.344,-2.093 0.294,-0.408 0.754,-0.625 1.22,-0.625 m -7.31,0 c 0.466,0 0.926,0.217 1.219,0.625 0.483,0.672 0.33,1.609 -0.343,2.093 -0.265,0.19 -0.57,0.282 -0.874,0.282 -0.466,0 -0.926,-0.217 -1.219,-0.625 C 6.63,14.83 6.783,13.893 7.456,13.409 7.721,13.219 8.026,13.127 8.33,13.127 M 11.984,15 c 0.828,0 1.5,0.672 1.5,1.5 0,0.828 -0.672,1.5 -1.5,1.5 -0.828,0 -1.5,-0.672 -1.5,-1.5 0,-0.828 0.672,-1.5 1.5,-1.5 m 6.497,0.67 c 0.202,0 0.406,0.062 0.583,0.188 0.447,0.321 0.551,0.947 0.227,1.396 -0.195,0.272 -0.502,0.417 -0.812,0.417 -0.202,0 -0.406,-0.062 -0.582,-0.188 -0.449,-0.322 -0.551,-0.947 -0.229,-1.396 0.195,-0.273 0.502,-0.417 0.813,-0.417 m -12.993,0 c 0.311,0 0.617,0.145 0.812,0.416 0.323,0.449 0.221,1.074 -0.228,1.396 C 5.895,17.609 5.691,17.67 5.489,17.67 5.178,17.67 4.872,17.525 4.677,17.253 4.354,16.805 4.456,16.179 4.905,15.857 5.082,15.731 5.286,15.67 5.488,15.67 m 15.023,1.96 c 0.101,0 0.202,0.03 0.29,0.094 0.225,0.161 0.275,0.474 0.115,0.698 -0.098,0.136 -0.251,0.208 -0.406,0.208 -0.101,0 -0.203,-0.03 -0.291,-0.095 -0.225,-0.16 -0.275,-0.473 -0.115,-0.697 0.098,-0.136 0.251,-0.208 0.407,-0.208 m -17.052,0 c 0.155,0 0.309,0.072 0.406,0.208 0.161,0.225 0.11,0.537 -0.114,0.697 C 3.663,18.6 3.561,18.63 3.459,18.63 3.304,18.63 3.151,18.558 3.054,18.422 2.893,18.197 2.944,17.885 3.168,17.724 3.256,17.66 3.358,17.63 3.459,17.63 M 11.984,19 c 0.552,0 1,0.447 1,1 0,0.553 -0.448,1 -1,1 -0.553,0 -1,-0.447 -1,-1 0,-0.553 0.448,-1 1,-1 m 0,3 c 0.275,0 0.5,0.224 0.5,0.5 0,0.276 -0.225,0.5 -0.5,0.5 -0.276,0 -0.5,-0.224 -0.5,-0.5 0,-0.276 0.224,-0.5 0.5,-0.5 M 12.016,0 c -0.827,0 -1.5,0.673 -1.5,1.5 0,0.338 0.112,0.649 0.301,0.9 -0.486,0.365 -0.801,0.946 -0.801,1.6 0,0.559 0.23,1.065 0.602,1.429 C 10.041,5.82 9.635,6.445 9.538,7.167 9.178,6.974 8.778,6.873 8.364,6.873 8.065,6.873 7.772,6.927 7.498,7.028 7.497,7.021 7.496,7.015 7.495,7.007 7.408,6.479 7.122,6.018 6.688,5.706 6.346,5.46 5.942,5.329 5.521,5.329 5.315,5.329 5.114,5.361 4.922,5.422 4.826,5.111 4.632,4.843 4.363,4.65 4.112,4.469 3.808,4.37 3.49,4.37 3.009,4.37 2.553,4.603 2.272,4.995 1.79,5.668 1.944,6.606 2.616,7.089 2.872,7.272 3.174,7.37 3.49,7.37 c 0.01,0 0.02,0 0.03,0 C 3.522,7.464 3.531,7.558 3.546,7.653 3.632,8.18 3.919,8.642 4.354,8.954 4.695,9.2 5.099,9.33 5.52,9.33 5.636,9.33 5.751,9.32 5.863,9.3 5.859,9.458 5.869,9.617 5.896,9.776 c 0.108,0.659 0.466,1.237 1.008,1.627 0.427,0.307 0.931,0.47 1.457,0.47 0.217,0 0.431,-0.028 0.637,-0.083 -0.004,0.043 -0.007,0.079 -0.009,0.112 -0.003,0.035 -0.005,0.07 -0.005,0.098 0,0.031 0.002,0.067 0.005,0.103 0.002,0.042 0.005,0.079 0.009,0.116 -0.215,-0.061 -0.44,-0.092 -0.669,-0.092 -0.526,0 -1.03,0.163 -1.458,0.471 -0.542,0.389 -0.9,0.967 -1.008,1.626 -0.026,0.159 -0.037,0.318 -0.033,0.477 -0.112,-0.021 -0.228,-0.03 -0.343,-0.03 -0.421,0 -0.825,0.13 -1.167,0.377 -0.433,0.311 -0.72,0.772 -0.806,1.3 -0.014,0.093 -0.023,0.188 -0.025,0.282 -0.01,0 -0.02,0 -0.03,0 -0.316,0 -0.619,0.098 -0.875,0.282 -0.67,0.481 -0.825,1.42 -0.342,2.093 0.281,0.392 0.736,0.625 1.218,0.625 0.318,0 0.622,-0.099 0.879,-0.285 0.264,-0.188 0.457,-0.456 0.553,-0.767 0.192,0.061 0.394,0.093 0.599,0.093 0.421,0 0.824,-0.131 1.167,-0.377 0.434,-0.312 0.72,-0.773 0.806,-1.301 10e-4,-0.008 0.002,-0.015 0.003,-0.021 0.274,0.102 0.567,0.155 0.866,0.155 0.414,0 0.814,-0.101 1.174,-0.294 0.097,0.723 0.502,1.348 1.08,1.738 -0.371,0.363 -0.602,0.87 -0.602,1.429 0,0.653 0.315,1.234 0.801,1.6 -0.189,0.251 -0.301,0.562 -0.301,0.9 0,0.827 0.673,1.5 1.5,1.5 0.827,0 1.5,-0.673 1.5,-1.5 0,-0.338 -0.112,-0.649 -0.301,-0.9 0.486,-0.365 0.801,-0.946 0.801,-1.6 0,-0.559 -0.23,-1.065 -0.602,-1.429 0.577,-0.391 0.983,-1.017 1.079,-1.738 0.36,0.192 0.761,0.294 1.175,0.294 0.3,0 0.592,-0.054 0.866,-0.155 0.001,0.007 0.002,0.015 0.003,0.021 0.086,0.527 0.373,0.99 0.808,1.302 0.341,0.245 0.744,0.376 1.165,0.376 0.206,0 0.408,-0.032 0.6,-0.093 0.097,0.311 0.291,0.579 0.56,0.771 0.25,0.182 0.554,0.28 0.872,0.28 0.48,0 0.936,-0.232 1.217,-0.623 0.483,-0.677 0.327,-1.615 -0.343,-2.096 -0.254,-0.184 -0.557,-0.281 -0.873,-0.281 -0.011,0 -0.021,0 -0.03,0 -0.002,-0.093 -0.011,-0.187 -0.026,-0.28 -0.086,-0.528 -0.372,-0.991 -0.807,-1.304 -0.342,-0.246 -0.745,-0.376 -1.166,-0.376 -0.116,0 -0.231,0.01 -0.344,0.03 0.004,-0.158 -0.007,-0.317 -0.032,-0.477 -0.108,-0.659 -0.466,-1.236 -1.008,-1.626 -0.428,-0.308 -0.932,-0.471 -1.458,-0.471 -0.218,0 -0.433,0.029 -0.639,0.084 0.004,-0.031 0.007,-0.066 0.009,-0.103 0.004,-0.037 0.006,-0.074 0.006,-0.108 0,-0.032 -0.002,-0.071 -0.006,-0.106 -0.002,-0.04 -0.005,-0.077 -0.009,-0.112 0.216,0.06 0.441,0.092 0.67,0.092 0.526,0 1.03,-0.163 1.458,-0.471 0.542,-0.39 0.899,-0.967 1.008,-1.626 0.025,-0.159 0.036,-0.318 0.032,-0.477 0.112,0.021 0.228,0.03 0.344,0.03 0.421,0 0.824,-0.13 1.167,-0.377 0.434,-0.312 0.72,-0.774 0.806,-1.303 0.016,-0.094 0.024,-0.188 0.026,-0.28 0.01,0 0.02,0 0.03,0 0.316,0 0.619,-0.098 0.876,-0.283 C 22.086,6.606 22.242,5.668 21.763,4.996 21.478,4.6 21.023,4.368 20.542,4.368 20.224,4.368 19.92,4.467 19.662,4.654 19.399,4.842 19.207,5.109 19.11,5.42 18.919,5.359 18.716,5.327 18.51,5.327 18.089,5.327 17.686,5.458 17.343,5.704 16.91,6.015 16.623,6.477 16.537,7.005 16.536,7.012 16.535,7.02 16.534,7.026 16.26,6.924 15.968,6.871 15.668,6.871 c -0.414,0 -0.814,0.101 -1.175,0.294 -0.096,-0.722 -0.502,-1.348 -1.079,-1.738 0.371,-0.363 0.602,-0.87 0.602,-1.429 0,-0.653 -0.314,-1.234 -0.801,-1.6 0.188,-0.251 0.301,-0.562 0.301,-0.9 C 13.516,0.673 12.843,0 12.016,0 l 0,0 z" />
	</g>
<g
   id="Slices">
	<rect
   id="_x3C_Slice_x3E__14_"
   y="-48"
   fill="none"
   width="24"
   height="24" />
	<rect
   id="_x3C_Slice_x3E__13_"
   y="-72"
   fill="none"
   width="24"
   height="24" />
	<rect
   id="_x3C_Slice_x3E__12_"
   y="-96"
   fill="none"
   width="24"
   height="24" />
	<rect
   id="_x3C_Slice_x3E__11_"
   y="-120"
   fill="none"
   width="24"
   height="24" />
	<rect
   id="_x3C_Slice_x3E__10_"
   y="-144"
   fill="none"
   width="24"
   height="24" />
	<rect
   id="_x3C_Slice_x3E__9_"
   y="-168"
   fill="none"
   width="24"
   height="24" />
	<rect
   id="_x3C_Slice_x3E__8_"
   y="-192"
   fill="none"
   width="24"
   height="24" />
	<rect
   id="_x3C_Slice_x3E__7_"
   y="-216"
   fill="none"
   width="24"
   height="24" />
	<rect
   id="_x3C_Slice_x3E__6_"
   y="-240"
   fill="none"
   width="24"
   height="24" />
	<rect
   id="_x3C_Slice_x3E__5_"
   y="-264"
   fill="none"
   width="24"
   height="24" />
	<rect
   id="_x3C_Slice_x3E__4_"
   y="-288"
   fill="none"
   width="24"
   height="24" />
	<rect
   id="_x3C_Slice_x3E__3_"
   y="-312"
   fill="none"
   width="24"
   height="24" />
	<rect
   id="_x3C_Slice_x3E__2_"
   y="-336"
   fill="none"
   width="24"
   height="24" />
	<rect
   id="_x3C_Slice_x3E__1_"
   y="-360"
   fill="none"
   width="24"
   height="24" />
	<rect
   id="_x3C_Slice_x3E_"
   y="-24"
   fill="none"
   width="24"
   height="24" />
	<rect
   id="_x3C_Slice_x3E__15_"
   fill="none"
   width="24"
   height="24" />
</g>
</svg>