<?xml version="1.0" encoding="UTF-8" standalone="no"?>
<!-- Created with Inkscape (http://www.inkscape.org/) -->

<svg
   xmlns:dc="http://purl.org/dc/elements/1.1/"
   xmlns:cc="http://creativecommons.org/ns#"
   xmlns:rdf="http://www.w3.org/1999/02/22-rdf-syntax-ns#"
   xmlns:svg="http://www.w3.org/2000/svg"
   xmlns="http://www.w3.org/2000/svg"
   xmlns:sodipodi="http://sodipodi.sourceforge.net/DTD/sodipodi-0.dtd"
   xmlns:inkscape="http://www.inkscape.org/namespaces/inkscape"
   id="svg4148"
   version="1.1"
   inkscape:version="0.48.3.1 r9886"
   width="30"
   height="30"
   xml:space="preserve"
   sodipodi:docname="Nuke_Icons_Toolbar_for_frank_nukepedia.ai"><metadata
     id="metadata4154"><rdf:RDF><cc:Work
         rdf:about=""><dc:format>image/svg+xml</dc:format><dc:type
           rdf:resource="http://purl.org/dc/dcmitype/StillImage" /><dc:title></dc:title></cc:Work></rdf:RDF></metadata><defs
     id="defs4152"><linearGradient
       x1="0"
       y1="0"
       x2="1"
       y2="0"
       gradientUnits="userSpaceOnUse"
       gradientTransform="matrix(-6e-7,13,13,6e-7,12,5.5)"
       spreadMethod="pad"
       id="linearGradient4172"><stop
         style="stop-opacity:1;stop-color:#8c8c8c"
         offset="0"
         id="stop4174" /><stop
         style="stop-opacity:1;stop-color:#afafaf"
         offset="1"
         id="stop4176" /></linearGradient><clipPath
       clipPathUnits="userSpaceOnUse"
       id="clipPath4184"><path
         d="M 0,24 24,24 24,0 0,0 0,24 z"
         id="path4186" /></clipPath></defs><sodipodi:namedview
     pagecolor="#ffffff"
     bordercolor="#666666"
     borderopacity="1"
     objecttolerance="10"
     gridtolerance="10"
     guidetolerance="10"
     inkscape:pageopacity="0"
     inkscape:pageshadow="2"
     inkscape:window-width="630"
     inkscape:window-height="445"
     id="namedview4150"
     showgrid="false"
     inkscape:zoom="7.8666667"
     inkscape:cx="15"
     inkscape:cy="15"
     inkscape:window-x="0"
     inkscape:window-y="0"
     inkscape:window-maximized="0"
     inkscape:current-layer="g4156" /><g
     id="g4156"
     inkscape:groupmode="layer"
     inkscape:label="Nuke_Icons_Toolbar_for_frank_nukepedia"
     transform="matrix(1.25,0,0,-1.25,0,30)"><path
       d="M 17,8 7,8 7,16 17,16 17,8 z"
       style="fill:#323232;fill-opacity:1;fill-rule:nonzero;stroke:none"
       id="path4158" /><g
       id="g4160"><g
         id="g4162"><g
           id="g4168"><g
             id="g4170"><path
               d="m 1.599,12.299 c -0.132,-0.177 -0.132,-0.421 0,-0.598 l 0,0 C 1.788,11.448 6.292,5.5 12,5.5 l 0,0 c 5.709,0 10.212,5.948 10.4,6.201 l 0,0 c 0.133,0.177 0.133,0.421 0,0.598 l 0,0 C 22.212,12.551 17.709,18.5 12,18.5 l 0,0 C 6.292,18.5 1.788,12.551 1.599,12.299 M 8.5,12 c 0,1.929 1.57,3.5 3.5,3.5 l 0,0 c 1.929,0 3.5,-1.571 3.5,-3.5 l 0,0 C 15.5,10.07 13.929,8.5 12,8.5 l 0,0 c -1.93,0 -3.5,1.57 -3.5,3.5"
               style="fill:url(#linearGradient4172);stroke:none"
               id="path4178" /></g></g></g></g><g
       id="g4180"><g
         id="g4182"
         clip-path="url(#clipPath4184)"><g
           id="g4188"
           transform="translate(12,9)"><path
             d="M 0,0 C -1.654,0 -3,1.346 -3,3 -3,4.654 -1.654,6 0,6 1.654,6 3,4.654 3,3 3,1.346 1.654,0 0,0 m 0,10 c -5.957,0 -10.606,-6.141 -10.801,-6.402 -0.265,-0.355 -0.265,-0.841 0,-1.196 C -10.606,2.141 -5.957,-4 0,-4 c 5.956,0 10.606,6.141 10.802,6.402 0.264,0.355 0.264,0.841 0,1.196 C 10.606,3.859 5.956,10 0,10 M 0,-1 C 2.209,-1 4,0.791 4,3 4,5.209 2.209,7 0,7 -2.209,7 -4,5.209 -4,3 -4,0.791 -2.209,-1 0,-1 M 0,9 C 5.523,9 10,3 10,3 10,3 5.523,-3 0,-3 c -5.523,0 -10,6 -10,6 0,0 4.477,6 10,6"
             style="fill:#323232;fill-opacity:1;fill-rule:nonzero;stroke:none"
             id="path4190" /></g></g></g></g></svg>