<?xml version="1.0" encoding="UTF-8" standalone="no"?>
<!-- Created with Inkscape (http://www.inkscape.org/) -->

<svg
   xmlns:dc="http://purl.org/dc/elements/1.1/"
   xmlns:cc="http://creativecommons.org/ns#"
   xmlns:rdf="http://www.w3.org/1999/02/22-rdf-syntax-ns#"
   xmlns:svg="http://www.w3.org/2000/svg"
   xmlns="http://www.w3.org/2000/svg"
   xmlns:sodipodi="http://sodipodi.sourceforge.net/DTD/sodipodi-0.dtd"
   xmlns:inkscape="http://www.inkscape.org/namespaces/inkscape"
   id="svg3638"
   version="1.1"
   inkscape:version="0.48.3.1 r9886"
   width="30"
   height="30"
   xml:space="preserve"
   sodipodi:docname="Nuke_Icons_Toolbar_for_frank_nukepedia.ai"><metadata
     id="metadata3644"><rdf:RDF><cc:Work
         rdf:about=""><dc:format>image/svg+xml</dc:format><dc:type
           rdf:resource="http://purl.org/dc/dcmitype/StillImage" /><dc:title></dc:title></cc:Work></rdf:RDF></metadata><defs
     id="defs3642"><linearGradient
       x1="0"
       y1="0"
       x2="1"
       y2="0"
       gradientUnits="userSpaceOnUse"
       gradientTransform="matrix(-9e-7,21,21,9e-7,12.000488,1.5)"
       spreadMethod="pad"
       id="linearGradient3660"><stop
         style="stop-opacity:1;stop-color:#8c8c8c"
         offset="0"
         id="stop3662" /><stop
         style="stop-opacity:1;stop-color:#afafaf"
         offset="1"
         id="stop3664" /></linearGradient><clipPath
       clipPathUnits="userSpaceOnUse"
       id="clipPath3672"><path
         d="M 0,24 24,24 24,0 0,0 0,24 z"
         id="path3674" /></clipPath></defs><sodipodi:namedview
     pagecolor="#ffffff"
     bordercolor="#666666"
     borderopacity="1"
     objecttolerance="10"
     gridtolerance="10"
     guidetolerance="10"
     inkscape:pageopacity="0"
     inkscape:pageshadow="2"
     inkscape:window-width="630"
     inkscape:window-height="445"
     id="namedview3640"
     showgrid="false"
     inkscape:zoom="7.8666667"
     inkscape:cx="15"
     inkscape:cy="15"
     inkscape:window-x="0"
     inkscape:window-y="0"
     inkscape:window-maximized="0"
     inkscape:current-layer="g3646" /><g
     id="g3646"
     inkscape:groupmode="layer"
     inkscape:label="Nuke_Icons_Toolbar_for_frank_nukepedia"
     transform="matrix(1.25,0,0,-1.25,0,30)"><g
       id="g3648"><g
         id="g3650"><g
           id="g3656"><g
             id="g3658"><path
               d="M 1.5,12 C 1.5,6.21 6.21,1.5 12,1.5 l 0,0 c 5.79,0 10.5,4.71 10.5,10.5 l 0,0 c 0,5.789 -4.71,10.5 -10.5,10.5 l 0,0 C 6.21,22.5 1.5,17.789 1.5,12 m 3,0 c 0,4.136 3.364,7.5 7.5,7.5 l 0,0 c 4.136,0 7.5,-3.364 7.5,-7.5 l 0,0 C 19.5,7.864 16.136,4.5 12,4.5 l 0,0 C 7.864,4.5 4.5,7.864 4.5,12 M 14.939,17.06 12,14.121 10.561,15.56 C 10.277,15.844 9.9,16 9.5,16 l 0,0 C 9.1,16 8.723,15.844 8.439,15.56 l 0,0 C 8.156,15.277 8,14.9 8,14.5 l 0,0 c 0,-0.401 0.156,-0.778 0.439,-1.06 l 0,0 2.5,-2.501 C 11.223,10.656 11.599,10.5 12,10.5 l 0,0 c 0.4,0 0.777,0.156 1.061,0.439 l 0,0 3.999,4 C 17.344,15.223 17.5,15.6 17.5,16 l 0,0 c 0,0.401 -0.156,0.777 -0.44,1.06 l 0,0 C 16.777,17.344 16.401,17.5 16,17.5 l 0,0 c -0.4,0 -0.777,-0.156 -1.061,-0.44"
               style="fill:url(#linearGradient3660);stroke:none"
               id="path3666" /></g></g></g></g><g
       id="g3668"><g
         id="g3670"
         clip-path="url(#clipPath3672)"><g
           id="g3676"
           transform="translate(12,5)"><path
             d="m 0,0 c -3.86,0 -7,3.14 -7,7 0,3.86 3.14,7 7,7 1.337,0 2.588,-0.377 3.651,-1.03 C 3.25,12.9 2.88,12.708 2.586,12.414 L 0,9.828 -1.086,10.914 C -1.464,11.292 -1.966,11.5 -2.5,11.5 -3.034,11.5 -3.536,11.292 -3.914,10.914 -4.292,10.536 -4.5,10.034 -4.5,9.5 c 0,-0.534 0.208,-1.036 0.586,-1.414 l 2.5,-2.5 C -1.036,5.208 -0.534,5 0,5 0.534,5 1.036,5.208 1.414,5.586 l 4,4 C 5.709,9.88 5.899,10.25 5.97,10.652 6.623,9.588 7,8.337 7,7 7,3.14 3.859,0 0,0 M 0,18 C -6.065,18 -11,13.065 -11,7 -11,0.935 -6.065,-4 0,-4 6.065,-4 11,0.935 11,7 11,13.065 6.065,18 0,18 m 4,-6 c 0.256,0 0.512,-0.098 0.707,-0.293 0.391,-0.391 0.391,-1.023 0,-1.414 l -4,-4 C 0.512,6.098 0.256,6 0,6 -0.256,6 -0.512,6.098 -0.707,6.293 l -2.5,2.5 c -0.391,0.391 -0.391,1.023 0,1.414 0.195,0.195 0.451,0.293 0.707,0.293 0.256,0 0.512,-0.098 0.707,-0.293 L 0,8.414 3.293,11.707 C 3.488,11.902 3.744,12 4,12 M 0,-1 c 4.411,0 8,3.589 8,8 0,4.411 -3.589,8 -8,8 -4.411,0 -8,-3.589 -8,-8 0,-4.411 3.589,-8 8,-8 M 0,17 C 5.522,17 10,12.523 10,7 10,1.477 5.522,-3 0,-3 c -5.522,0 -10,4.477 -10,10 0,5.523 4.478,10 10,10"
             style="fill:#323232;fill-opacity:1;fill-rule:nonzero;stroke:none"
             id="path3678" /></g></g></g></g></svg>