<?xml version="1.0" encoding="UTF-8" standalone="no"?>
<!-- Created with Inkscape (http://www.inkscape.org/) -->

<svg
   xmlns:dc="http://purl.org/dc/elements/1.1/"
   xmlns:cc="http://creativecommons.org/ns#"
   xmlns:rdf="http://www.w3.org/1999/02/22-rdf-syntax-ns#"
   xmlns:svg="http://www.w3.org/2000/svg"
   xmlns="http://www.w3.org/2000/svg"
   xmlns:sodipodi="http://sodipodi.sourceforge.net/DTD/sodipodi-0.dtd"
   xmlns:inkscape="http://www.inkscape.org/namespaces/inkscape"
   id="svg3878"
   version="1.1"
   inkscape:version="0.48.3.1 r9886"
   width="30"
   height="30"
   xml:space="preserve"
   sodipodi:docname="Nuke_Icons_Toolbar_for_frank_nukepedia.ai"><metadata
     id="metadata3884"><rdf:RDF><cc:Work
         rdf:about=""><dc:format>image/svg+xml</dc:format><dc:type
           rdf:resource="http://purl.org/dc/dcmitype/StillImage" /><dc:title></dc:title></cc:Work></rdf:RDF></metadata><defs
     id="defs3882"><linearGradient
       x1="0"
       y1="0"
       x2="1"
       y2="0"
       gradientUnits="userSpaceOnUse"
       gradientTransform="matrix(-9e-7,21.0625,21.0625,9e-7,12.000488,1.46875)"
       spreadMethod="pad"
       id="linearGradient3900"><stop
         style="stop-opacity:1;stop-color:#8c8c8c"
         offset="0"
         id="stop3902" /><stop
         style="stop-opacity:1;stop-color:#afafaf"
         offset="1"
         id="stop3904" /></linearGradient><clipPath
       clipPathUnits="userSpaceOnUse"
       id="clipPath3912"><path
         d="M 0,24 24,24 24,0 0,0 0,24 z"
         id="path3914" /></clipPath></defs><sodipodi:namedview
     pagecolor="#ffffff"
     bordercolor="#666666"
     borderopacity="1"
     objecttolerance="10"
     gridtolerance="10"
     guidetolerance="10"
     inkscape:pageopacity="0"
     inkscape:pageshadow="2"
     inkscape:window-width="640"
     inkscape:window-height="480"
     id="namedview3880"
     showgrid="false"
     inkscape:zoom="7.8666667"
     inkscape:cx="15"
     inkscape:cy="15"
     inkscape:window-x="0"
     inkscape:window-y="0"
     inkscape:window-maximized="0"
     inkscape:current-layer="g3886" /><g
     id="g3886"
     inkscape:groupmode="layer"
     inkscape:label="Nuke_Icons_Toolbar_for_frank_nukepedia"
     transform="matrix(1.25,0,0,-1.25,0,30)"><g
       id="g3888"><g
         id="g3890"><g
           id="g3896"><g
             id="g3898"><path
               d="M 11.647,22.385 7.582,18.32 c -0.196,-0.195 -0.196,-0.512 0,-0.707 l 0,0 1.211,-1.211 c 0.094,-0.093 0.221,-0.146 0.354,-0.146 l 0,0 c 0.132,0 0.259,0.053 0.353,0.146 l 0,0 1,1 0,-3.902 -3.903,0 1.001,1.001 c 0.093,0.093 0.147,0.221 0.147,0.354 l 0,0 c 0,0.133 -0.054,0.26 -0.147,0.353 l 0,0 -1.212,1.21 c -0.097,0.098 -0.225,0.146 -0.352,0.146 l 0,0 c -0.129,0 -0.257,-0.048 -0.354,-0.146 l 0,0 -4.065,-4.065 c -0.195,-0.195 -0.195,-0.511 0,-0.706 l 0,0 L 5.68,7.582 C 5.777,7.484 5.905,7.436 6.034,7.436 l 0,0 c 0.127,0 0.255,0.048 0.352,0.146 l 0,0 1.212,1.211 c 0.093,0.094 0.147,0.221 0.147,0.354 l 0,0 c 0,0.132 -0.054,0.259 -0.147,0.353 l 0,0 -1,1 3.902,0 0,-3.903 -1.001,1.001 C 9.405,7.691 9.278,7.745 9.146,7.745 l 0,0 c -0.133,0 -0.26,-0.054 -0.354,-0.147 l 0,0 -1.21,-1.212 C 7.386,6.191 7.386,5.875 7.582,5.68 l 0,0 4.065,-4.065 C 11.744,1.517 11.872,1.469 12,1.469 l 0,0 c 0.128,0 0.256,0.048 0.353,0.146 l 0,0 4.065,4.065 c 0.195,0.195 0.195,0.511 0,0.706 l 0,0 -1.211,1.212 c -0.093,0.093 -0.221,0.147 -0.353,0.147 l 0,0 c -0.134,0 -0.26,-0.054 -0.354,-0.147 l 0,0 -1,-1 0,3.902 3.902,0 -1,-1.001 C 16.309,9.405 16.256,9.278 16.256,9.146 l 0,0 c 0,-0.133 0.053,-0.26 0.146,-0.354 l 0,0 1.211,-1.21 c 0.098,-0.098 0.226,-0.146 0.354,-0.146 l 0,0 c 0.127,0 0.255,0.048 0.353,0.146 l 0,0 4.065,4.065 c 0.195,0.195 0.195,0.511 0,0.706 l 0,0 -4.065,4.065 c -0.098,0.098 -0.226,0.146 -0.353,0.146 l 0,0 c -0.128,0 -0.256,-0.048 -0.354,-0.146 l 0,0 -1.211,-1.211 c -0.093,-0.093 -0.146,-0.221 -0.146,-0.353 l 0,0 c 0,-0.134 0.053,-0.26 0.146,-0.354 l 0,0 1,-1 -3.902,0 0,3.902 1.001,-1 c 0.093,-0.093 0.22,-0.146 0.354,-0.146 l 0,0 c 0.133,0 0.26,0.053 0.353,0.146 l 0,0 1.21,1.211 c 0.195,0.195 0.195,0.512 0,0.707 l 0,0 -4.065,4.065 C 12.256,22.482 12.128,22.531 12,22.531 l 0,0 c -0.128,0 -0.256,-0.049 -0.353,-0.146"
               style="fill:url(#linearGradient3900);stroke:none"
               id="path3906" /></g></g></g></g><g
       id="g3908"><g
         id="g3910"
         clip-path="url(#clipPath3912)"><g
           id="g3916"
           transform="translate(12,23.0313)"><path
             d="m 0,0 c -0.256,0 -0.512,-0.098 -0.707,-0.293 l -4.064,-4.064 c -0.391,-0.391 -0.391,-1.024 0,-1.414 l 1.21,-1.211 c 0.188,-0.188 0.442,-0.293 0.707,-0.293 0.266,0 0.52,0.105 0.708,0.293 l 0.146,0.146 0,-2.195 -2.196,0 0.148,0.147 c 0.187,0.188 0.292,0.442 0.292,0.708 0,0.265 -0.105,0.519 -0.293,0.707 l -1.211,1.21 c -0.195,0.195 -0.451,0.292 -0.707,0.292 -0.256,0 -0.512,-0.097 -0.707,-0.293 l -4.064,-4.064 c -0.391,-0.391 -0.391,-1.024 0,-1.414 l 4.064,-4.065 c 0.195,-0.195 0.451,-0.293 0.707,-0.293 0.256,0 0.512,0.098 0.707,0.293 l 1.211,1.211 c 0.188,0.188 0.293,0.442 0.293,0.707 0,0.265 -0.105,0.52 -0.293,0.707 l -0.146,0.147 2.195,0 0,-2.197 -0.147,0.148 c -0.188,0.187 -0.442,0.293 -0.707,0.293 l -10e-4,0 c -0.265,0 -0.52,-0.106 -0.707,-0.293 l -1.21,-1.211 c -0.39,-0.391 -0.39,-1.024 0.001,-1.414 l 4.064,-4.065 c 0.195,-0.195 0.451,-0.292 0.707,-0.292 0.256,0 0.512,0.097 0.707,0.292 l 4.064,4.065 c 0.391,0.391 0.391,1.023 0,1.414 l -1.21,1.211 c -0.188,0.187 -0.442,0.293 -0.707,0.293 -0.266,0 -0.52,-0.106 -0.708,-0.293 L 2,-15.227 l 0,2.196 2.196,0 -0.147,-0.148 c -0.188,-0.187 -0.293,-0.442 -0.293,-0.707 0,-0.265 0.105,-0.52 0.293,-0.707 l 1.211,-1.21 c 0.195,-0.195 0.451,-0.293 0.707,-0.293 0.256,0 0.512,0.098 0.707,0.293 l 4.064,4.065 c 0.391,0.39 0.391,1.023 0,1.414 L 6.674,-6.26 C 6.479,-6.064 6.223,-5.967 5.967,-5.967 5.711,-5.967 5.455,-6.064 5.26,-6.26 L 4.049,-7.471 C 3.861,-7.658 3.756,-7.913 3.756,-8.178 c 0,-0.265 0.105,-0.519 0.293,-0.707 l 0.146,-0.146 -2.195,0 0,2.196 0.147,-0.147 c 0.188,-0.188 0.443,-0.293 0.707,-0.293 0.266,0 0.52,0.105 0.708,0.293 l 1.209,1.211 c 0.391,0.39 0.391,1.023 0,1.414 L 0.707,-0.293 C 0.512,-0.098 0.256,0 0,0 M 0,-1 4.064,-5.064 2.854,-6.275 1,-4.422 l 0,-5.609 5.609,0 -1.853,1.853 1.211,1.211 4.064,-4.064 -4.064,-4.065 -1.211,1.21 1.853,1.855 -5.609,0 0,-5.61 1.854,1.854 1.21,-1.211 -4.064,-4.064 -4.064,4.064 1.21,1.211 1.854,-1.854 0,5.61 -5.609,0 1.853,-1.854 -1.211,-1.211 -4.064,4.065 4.064,4.064 1.211,-1.21 -1.853,-1.854 5.609,0 0,5.609 -1.854,-1.853 -1.21,1.211 L 0,-1"
             style="fill:#323232;fill-opacity:1;fill-rule:nonzero;stroke:none"
             id="path3918" /></g></g></g></g></svg>