<?xml version="1.0" encoding="UTF-8" standalone="no"?>
<!-- Created with Inkscape (http://www.inkscape.org/) -->

<svg
   xmlns:dc="http://purl.org/dc/elements/1.1/"
   xmlns:cc="http://creativecommons.org/ns#"
   xmlns:rdf="http://www.w3.org/1999/02/22-rdf-syntax-ns#"
   xmlns:svg="http://www.w3.org/2000/svg"
   xmlns="http://www.w3.org/2000/svg"
   xmlns:sodipodi="http://sodipodi.sourceforge.net/DTD/sodipodi-0.dtd"
   xmlns:inkscape="http://www.inkscape.org/namespaces/inkscape"
   width="27.531067"
   height="18.000299"
   id="svg2"
   version="1.1"
   inkscape:version="0.48.2 r9819"
   sodipodi:docname="osWin32.svg">
  <defs
     id="defs4" />
  <sodipodi:namedview
     id="base"
     pagecolor="#ffffff"
     bordercolor="#666666"
     borderopacity="1.0"
     inkscape:pageopacity="0.0"
     inkscape:pageshadow="2"
     inkscape:zoom="14.261406"
     inkscape:cx="22.268436"
     inkscape:cy="14.362611"
     inkscape:document-units="px"
     inkscape:current-layer="g4314"
     showgrid="false"
     inkscape:window-width="1174"
     inkscape:window-height="926"
     inkscape:window-x="546"
     inkscape:window-y="32"
     inkscape:window-maximized="0"
     fit-margin-top="0"
     fit-margin-left="0"
     fit-margin-right="0"
     fit-margin-bottom="0" />
  <metadata
     id="metadata7">
    <rdf:RDF>
      <cc:Work
         rdf:about="">
        <dc:format>image/svg+xml</dc:format>
        <dc:type
           rdf:resource="http://purl.org/dc/dcmitype/StillImage" />
        <dc:title></dc:title>
      </cc:Work>
    </rdf:RDF>
  </metadata>
  <g
     inkscape:groupmode="layer"
     id="layer2"
     inkscape:label="Layer"
     style="display:inline"
     transform="translate(-2.3189926,-1031.9593)">
    <path
       style="fill:#000000;fill-opacity:1;stroke:none"
       d="m 20.559693,1031.9593 -9.854608,1.4597 0,7.1667 9.854608,-0.1084 0,-8.518 z m -10.7925826,1.5975 -7.4481178,1.1021 0,6.0206 7.4481178,-0.082 0,-7.0406 z m -7.4481178,7.8907 0,6.0968 7.4481178,0.9849 0,-7.0466 -7.4481178,-0.036 z m 8.3860924,0.038 0,7.1697 9.854608,1.3044 0,-8.4271 -9.854608,-0.047 z"
       id="path3055"
       inkscape:connector-curvature="0" />
  </g>
  <g
     inkscape:groupmode="layer"
     id="layer8"
     inkscape:label="32Text"
     style="display:none">
    <text
       xml:space="preserve"
       style="font-size:11px;font-style:normal;font-variant:normal;font-weight:normal;font-stretch:normal;text-align:start;line-height:125%;letter-spacing:0px;word-spacing:0px;writing-mode:lr-tb;text-anchor:start;fill:#000000;fill-opacity:1;stroke:none;font-family:Sans;-inkscape-font-specification:Sans"
       x="18.791975"
       y="15.546124"
       id="text4287"
       sodipodi:linespacing="125%"><tspan
         sodipodi:role="line"
         id="tspan4289"
         x="18.791975"
         y="15.546124"
         style="font-size:20px;font-style:normal;font-variant:normal;font-weight:600;font-stretch:normal;letter-spacing:0.5px;font-family:Knockout;-inkscape-font-specification:Knockout Semi-Bold">32</tspan></text>
  </g>
  <g
     style="display:none"
     inkscape:label="32Text copy"
     id="g4303"
     inkscape:groupmode="layer">
    <g
       style="font-size:11px;font-style:normal;font-variant:normal;font-weight:normal;font-stretch:normal;text-align:start;line-height:125%;letter-spacing:0px;word-spacing:0px;writing-mode:lr-tb;text-anchor:start;fill:#000000;fill-opacity:1;stroke:none;font-family:Sans;-inkscape-font-specification:Sans"
       id="text4305">
      <path
         d="m 22.611975,13.686124 c -4e-6,0.280002 -0.04,0.540002 -0.12,0.78 -0.08,0.240001 -0.200003,0.453334 -0.36,0.64 -0.14667,0.186667 -0.32667,0.333334 -0.54,0.44 -0.200003,0.106667 -0.426669,0.16 -0.68,0.16 -0.586668,0 -1.020001,-0.18 -1.3,-0.54 -0.266667,-0.373332 -0.4,-0.853332 -0.4,-1.44 l 0,-1.94 0.96,0 0,2.04 c -1e-6,0.453335 0.213332,0.680001 0.64,0.68 0.439998,1e-6 0.659997,-0.219998 0.66,-0.66 l 0,-4.1399995 c -3e-6,-0.239994 -0.113336,-0.3599938 -0.34,-0.36 l -0.76,0 0,-1.02 0.76,0 c 0.226664,7.2e-6 0.339997,-0.1266594 0.34,-0.38 l 0,-3.96 c -3e-6,-0.2133216 -0.05334,-0.3866548 -0.16,-0.52 -0.106669,-0.1333212 -0.273336,-0.1999878 -0.5,-0.2 -0.226668,1.22e-5 -0.393335,0.066679 -0.5,0.2 -0.09333,0.1333452 -0.140001,0.3133451 -0.14,0.54 l 0,2 -0.96,0 0,-1.94 c 0,-0.599988 0.126666,-1.0799875 0.38,-1.44 0.253332,-0.3733201 0.693332,-0.5599866 1.32,-0.56 0.506664,1.34e-5 0.91333,0.1933466 1.22,0.58 0.319996,0.3733458 0.479996,0.8533453 0.48,1.44 l 0,3.7 c -4e-6,0.2666741 -0.07334,0.4800072 -0.22,0.64 -0.133337,0.1600069 -0.313337,0.2933401 -0.54,0.4 0.226663,0.1066732 0.406663,0.2466731 0.54,0.42 0.146663,0.1600061 0.219996,0.3666726 0.22,0.62 l 0,3.8199995"
         style="font-size:20px;font-weight:600;letter-spacing:0.5px;font-family:Knockout;-inkscape-font-specification:Knockout Semi-Bold"
         id="path4310"
         inkscape:connector-curvature="0" />
      <path
         d="m 27.487913,4.8061245 c -4e-6,0.8000099 -0.113338,1.6333424 -0.34,2.5 -0.213337,0.866674 -0.46667,1.6866732 -0.76,2.46 -0.480003,1.2266715 -0.833336,2.2000035 -1.06,2.9199995 -0.226669,0.706669 -0.340002,1.273335 -0.34,1.7 l 2.38,0 0,1.16 -3.58,0 0,-0.38 c -1e-6,-0.279999 0.02,-0.566665 0.06,-0.86 0.05333,-0.293331 0.139999,-0.659998 0.26,-1.1 0.133332,-0.45333 0.306665,-1.006663 0.52,-1.66 0.226665,-0.666662 0.519998,-1.506661 0.88,-2.5199995 0.173331,-0.479993 0.319997,-0.9133259 0.44,-1.3 0.119997,-0.3866585 0.219997,-0.7533248 0.3,-1.1 0.08,-0.3599908 0.13333,-0.7199904 0.16,-1.08 0.04,-0.3599897 0.06,-0.746656 0.06,-1.16 -3e-6,-0.4133218 -0.06667,-0.7066548 -0.2,-0.88 -0.120003,-0.1866545 -0.313336,-0.2799877 -0.58,-0.28 -0.200002,1.23e-5 -0.380002,0.080012 -0.54,0.24 -0.146669,0.1600119 -0.220002,0.373345 -0.22,0.64 l 0,2.24 -0.96,0 0,-2.06 c -1e-6,-0.2933218 0.03333,-0.5733215 0.1,-0.84 0.08,-0.2666543 0.186666,-0.4999874 0.32,-0.7 0.146665,-0.2133204 0.319998,-0.3799869 0.52,-0.5 0.213331,-0.1199866 0.459998,-0.1799866 0.74,-0.18 0.666664,1.34e-5 1.139996,0.2333465 1.42,0.7 0.279996,0.4666789 0.419996,1.1466783 0.42,2.04"
         style="font-size:20px;font-weight:600;letter-spacing:0.5px;font-family:Knockout;-inkscape-font-specification:Knockout Semi-Bold"
         id="path4312"
         inkscape:connector-curvature="0" />
    </g>
  </g>
  <g
     style="display:none"
     inkscape:label="64Text"
     id="g4291"
     inkscape:groupmode="layer">
    <text
       sodipodi:linespacing="125%"
       id="text4293"
       y="15.546124"
       x="18.581617"
       style="font-size:11px;font-style:normal;font-variant:normal;font-weight:normal;font-stretch:normal;text-align:start;line-height:125%;letter-spacing:0px;word-spacing:0px;writing-mode:lr-tb;text-anchor:start;fill:#000000;fill-opacity:1;stroke:none;font-family:Sans;-inkscape-font-specification:Sans"
       xml:space="preserve"><tspan
         style="font-size:20px;font-style:normal;font-variant:normal;font-weight:600;font-stretch:normal;letter-spacing:0.5px;font-family:Knockout;-inkscape-font-specification:Knockout Semi-Bold"
         y="15.546124"
         x="18.581617"
         id="tspan4295"
         sodipodi:role="line">64</tspan></text>
  </g>
  <g
     inkscape:groupmode="layer"
     id="g4314"
     inkscape:label="64Text copy"
     style="display:inline">
    <g
       style="font-size:11px;font-style:normal;font-variant:normal;font-weight:normal;font-stretch:normal;text-align:start;line-height:125%;letter-spacing:0px;word-spacing:0px;writing-mode:lr-tb;text-anchor:start;fill:#000000;fill-opacity:1;stroke:none;font-family:Sans;-inkscape-font-specification:Sans"
       id="text4316">
      <path
         d="m 21.621617,9.1061245 c -3e-6,-0.1866601 -0.06,-0.3399933 -0.18,-0.46 -0.120002,-0.1333263 -0.293336,-0.1999929 -0.52,-0.2 -0.226668,7.1e-6 -0.400002,0.066674 -0.52,0.2 -0.120001,0.1200067 -0.180001,0.2733399 -0.18,0.46 l 0,4.7199995 c -10e-7,0.186669 0.06,0.346668 0.18,0.48 0.119998,0.133335 0.293332,0.200001 0.52,0.2 0.226664,1e-6 0.399998,-0.06667 0.52,-0.2 0.119997,-0.133332 0.179997,-0.293331 0.18,-0.48 l 0,-4.7199995 m 1.14,4.5199995 c -4e-6,0.600002 -0.173337,1.100001 -0.52,1.5 -0.333336,0.386667 -0.773336,0.58 -1.32,0.58 -0.560001,0 -1.000001,-0.193333 -1.32,-0.58 -0.32,-0.399999 -0.48,-0.899998 -0.48,-1.5 l 0,-9.4599995 c 0,-0.5999881 0.16,-1.0999876 0.48,-1.5 0.333332,-0.3999868 0.773332,-0.5999866 1.32,-0.6 0.546664,1.34e-5 0.959997,0.2066799 1.24,0.62 0.29333,0.4000124 0.439996,0.860012 0.44,1.38 l 0,2.02 -0.94,0 0,-2.08 c -3e-6,-0.2266549 -0.06667,-0.4066548 -0.2,-0.54 -0.120002,-0.1333212 -0.293336,-0.1999878 -0.52,-0.2 -0.226668,1.22e-5 -0.406668,0.066679 -0.54,0.2 -0.120001,0.1333452 -0.180001,0.3066784 -0.18,0.52 l 0,4.08 c 0.146665,-0.186659 0.319998,-0.3266589 0.52,-0.42 0.199998,-0.093325 0.453331,-0.139992 0.76,-0.14 0.386664,8e-6 0.69333,0.1400079 0.92,0.42 0.226663,0.266674 0.339996,0.6133403 0.34,1.04 l 0,4.6599995"
         style="font-size:20px;font-weight:600;letter-spacing:0.5px;font-family:Knockout;-inkscape-font-specification:Knockout Semi-Bold"
         id="path4321"
         inkscape:connector-curvature="0" />
      <path
         d="m 26.010055,6.3861245 -1.1,5.4999995 1.1,0 0,-5.4999995 m 1.08,6.5399995 0,2.62 -1.08,0 0,-2.62 -2.12,0 0,-0.98 2.16,-9.7199995 1.04,0 0,9.6599995 0.6,0 0,1.04 -0.6,0"
         style="font-size:20px;font-weight:600;letter-spacing:0.5px;font-family:Knockout;-inkscape-font-specification:Knockout Semi-Bold"
         id="path4323"
         inkscape:connector-curvature="0" />
    </g>
  </g>
</svg>
