<?xml version="1.0" encoding="UTF-8" standalone="no"?>
<!-- Created with Inkscape (http://www.inkscape.org/) -->

<svg
   xmlns:dc="http://purl.org/dc/elements/1.1/"
   xmlns:cc="http://creativecommons.org/ns#"
   xmlns:rdf="http://www.w3.org/1999/02/22-rdf-syntax-ns#"
   xmlns:svg="http://www.w3.org/2000/svg"
   xmlns="http://www.w3.org/2000/svg"
   xmlns:sodipodi="http://sodipodi.sourceforge.net/DTD/sodipodi-0.dtd"
   xmlns:inkscape="http://www.inkscape.org/namespaces/inkscape"
   id="svg4063"
   version="1.1"
   inkscape:version="0.48.3.1 r9886"
   width="21"
   height="21"
   sodipodi:docname="clearStack.svg">
  <metadata
     id="metadata4069">
    <rdf:RDF>
      <cc:Work
         rdf:about="">
        <dc:format>image/svg+xml</dc:format>
        <dc:type
           rdf:resource="http://purl.org/dc/dcmitype/StillImage" />
        <dc:title />
      </cc:Work>
    </rdf:RDF>
  </metadata>
  <defs
     id="defs4067" />
  <sodipodi:namedview
     pagecolor="#ffffff"
     bordercolor="#666666"
     borderopacity="1"
     objecttolerance="10"
     gridtolerance="10"
     guidetolerance="10"
     inkscape:pageopacity="0"
     inkscape:pageshadow="2"
     inkscape:window-width="1724"
     inkscape:window-height="1107"
     id="namedview4065"
     showgrid="false"
     inkscape:zoom="30.237233"
     inkscape:cx="6.7997537"
     inkscape:cy="8.8532935"
     inkscape:window-x="221"
     inkscape:window-y="431"
     inkscape:window-maximized="0"
     inkscape:current-layer="layer3" />
  <g
     inkscape:groupmode="layer"
     id="layer3"
     inkscape:label="bg"
     style="display:inline">
    <path
       style="fill:#8c8c8c;stroke:#8c8c8c;stroke-width:1.83891296000000004;stroke-miterlimit:4;stroke-opacity:1;stroke-dasharray:none;display:inline;fill-opacity:1"
       d="m 8.1900041,3.5044521 c -2.5473376,0 -4.5934402,2.0461028 -4.5934402,4.5934402 l 0,4.9651637 c 0,2.547338 2.0461026,4.619991 4.5934402,4.619991 l 4.6199919,0 c 2.547336,0 4.59344,-2.072653 4.59344,-4.619991 l 0,-4.9651637 c 0,-2.5473374 -2.046104,-4.5934402 -4.59344,-4.5934402 z"
       id="rect4073-9"
       inkscape:connector-curvature="0"
       sodipodi:nodetypes="sssssssss" />
    <path
       inkscape:connector-curvature="0"
       id="path3786"
       d="m 8.1900041,3.5044521 c -2.5473376,0 -4.5934402,2.0461028 -4.5934402,4.5934402 l 0,4.9651637 c 0,2.547338 2.0461026,4.619991 4.5934402,4.619991 l 4.6199919,0 c 2.547336,0 4.59344,-2.072653 4.59344,-4.619991 l 0,-4.9651637 c 0,-2.5473374 -2.046104,-4.5934402 -4.59344,-4.5934402 l -4.6199919,0 z M 7.6324189,5.8675514 c 0.1893585,0 0.3593856,0.093868 0.5044818,0.2389651 l 2.4162023,2.389651 2.416203,-2.389651 c 0.145098,-0.1450963 0.315125,-0.2389651 0.504482,-0.2389651 0.189359,0 0.412488,0.093868 0.557585,0.2389651 l 0.79655,0.7965503 c 0.290192,0.2901923 0.290192,0.745323 0,1.0355155 l -2.416202,2.4427537 2.416202,2.389651 c 0.290192,0.290193 0.290192,0.745324 0,1.035516 l -0.79655,0.79655 c -0.290193,0.290192 -0.771874,0.290192 -1.062067,0 l -2.416203,-2.389651 -2.4162023,2.389651 c -0.2901925,0.290192 -0.7453233,0.290192 -1.0355154,0 l -0.7965504,-0.79655 c -0.2901925,-0.290192 -0.2901925,-0.745323 0,-1.035516 l 2.389651,-2.389651 -2.389651,-2.4427537 c -0.2901925,-0.2901925 -0.2901925,-0.745323 0,-1.0355155 L 7.1013853,6.1065165 C 7.2464816,5.96142 7.4430603,5.8675514 7.6324189,5.8675514 z"
       style="fill:#5d5d5d;fill-opacity:1;fill-rule:nonzero;stroke:none;display:inline" />
  </g>
</svg>
