<?xml version="1.0" encoding="UTF-8" standalone="no"?>
<!-- Created with Inkscape (http://www.inkscape.org/) -->

<svg
   xmlns:dc="http://purl.org/dc/elements/1.1/"
   xmlns:cc="http://creativecommons.org/ns#"
   xmlns:rdf="http://www.w3.org/1999/02/22-rdf-syntax-ns#"
   xmlns:svg="http://www.w3.org/2000/svg"
   xmlns="http://www.w3.org/2000/svg"
   xmlns:sodipodi="http://sodipodi.sourceforge.net/DTD/sodipodi-0.dtd"
   xmlns:inkscape="http://www.inkscape.org/namespaces/inkscape"
   id="svg7357"
   version="1.1"
   inkscape:version="0.48.3.1 r9886"
   width="203"
   height="20"
   sodipodi:docname="dropStackBG.svg">
  <metadata
     id="metadata7363">
    <rdf:RDF>
      <cc:Work
         rdf:about="">
        <dc:format>image/svg+xml</dc:format>
        <dc:type
           rdf:resource="http://purl.org/dc/dcmitype/StillImage" />
        <dc:title />
      </cc:Work>
    </rdf:RDF>
  </metadata>
  <defs
     id="defs7361" />
  <sodipodi:namedview
     pagecolor="#ffffff"
     bordercolor="#666666"
     borderopacity="1"
     objecttolerance="10"
     gridtolerance="10"
     guidetolerance="10"
     inkscape:pageopacity="0"
     inkscape:pageshadow="2"
     inkscape:window-width="1587"
     inkscape:window-height="770"
     id="namedview7359"
     showgrid="false"
     inkscape:zoom="4.9044648"
     inkscape:cx="111.96533"
     inkscape:cy="7.2559667"
     inkscape:window-x="695"
     inkscape:window-y="676"
     inkscape:window-maximized="0"
     inkscape:current-layer="text7390" />
  <g
     style="font-size:26px;font-style:normal;font-variant:normal;font-weight:300;font-stretch:normal;line-height:125%;letter-spacing:0px;word-spacing:0px;fill:#000000;fill-opacity:1;stroke:none;font-family:NeoTech;-inkscape-font-specification:NeoTech Light"
     id="text7390">
    <path
       d="m 12.936239,11.389296 0,-3.224 c 0,-6.0839939 -3.1720049,-8.19000003 -7.5920005,-8.19000003 -2.0799979,0 -3.5100007,0.07800013 -4.264,0.208 -0.23399976,0.0519999 -0.44199999,0.26000024 -0.44199999,0.494 l 0,18.20000003 c 0,0.234 0.20800023,0.442 0.44199999,0.494 0.7539993,0.13 2.1840021,0.208 4.264,0.208 4.4199956,0 7.5920005,-2.210006 7.5920005,-8.19 m -1.144,0 c 0,5.485994 -2.8080041,7.176 -6.4480005,7.176 -1.5079985,0 -2.4180011,-0.026 -3.562,-0.104 l 0,-17.316 c 1.1439989,-0.078 2.0540015,-0.15600003 3.562,-0.15600003 3.6399964,0 6.4480005,1.63800553 6.4480005,7.17600003 l 0,3.224"
       style="stroke:none;stroke-opacity:1;fill:#949494;fill-opacity:1"
       id="path7536" />
    <path
       d="m 28.881551,19.033296 c 0,-0.104 -0.052,-0.234 -0.13,-0.364 l -5.252,-8.086 c 3.067997,-0.52 4.654,-2.0020032 4.654,-5.174 l 0,-0.13 c 0,-3.977996 -2.392005,-5.30400003 -7.072,-5.30400003 -1.117999,0 -3.146001,0.05200006 -4.056,0.104 -0.234,0.02599998 -0.442,0.26000024 -0.442,0.494 l 0,18.35600003 c 0,0.26 0.182,0.494 0.442,0.494 l 0.26,0 c 0.26,0 0.442,-0.234 0.442,-0.494 l 0,-8.242 c 0,0 2.340001,0.026 3.354,0.026 0.286,0 0.468,0 0.702,0 0.13,0 0.26,0 0.416,0 l 5.538,8.476 c 0.078,0.104 0.26,0.234 0.39,0.234 l 0.338,0 c 0.286,0 0.416,-0.182 0.416,-0.39 m -1.872,-13.624 c 0,3.3279966 -1.898004,4.212 -5.928,4.212 -0.753999,0 -2.652001,-0.026 -3.354,-0.026 l 0,-8.424 c 0.779999,-0.078 2.262001,-0.104 3.354,-0.104 3.873996,0 5.928,0.9620032 5.928,4.212 l 0,0.13"
       style="stroke:none;stroke-opacity:1;fill:#949494;fill-opacity:1"
       id="path7538" />
    <path
       d="m 43.926614,18.929296 0,-13.806 c 0,-3.4059966 -1.118004,-5.01800003 -4.992,-5.01800003 l -1.82,0 c -3.873997,0 -4.992,1.61200343 -4.992,5.01800003 l 0,13.806 c 0,0.26 0.182,0.494 0.442,0.494 l 0.26,0 c 0.259999,0 0.442,-0.234 0.442,-0.494 l 0,-8.554 9.516,0 0,8.554 c 0,0.26 0.182,0.494 0.442,0.494 l 0.26,0 c 0.259999,0 0.442,-0.234 0.442,-0.494 m -1.144,-9.672 -9.516,0 0,-4.134 c 0,-2.9639971 0.832003,-3.952 3.848,-3.952 l 1.82,0 c 3.015996,0 3.848,0.9880029 3.848,3.952 l 0,4.134"
       style="stroke:none;stroke-opacity:1;fill:#949494;fill-opacity:1"
       id="path7540" />
    <path
       d="m 59.195926,0.91129597 0,-0.26 c 0,-0.31199968 -0.208,-0.39000002 -0.442,-0.416 -1.117999,-0.12999987 -2.340002,-0.26 -4.68,-0.26 -3.041997,0 -6.526,1.69000653 -6.526,8.19000003 l 0,3.224 c 0,5.745994 2.834004,8.19 6.526,8.19 2.209998,0 3.406001,-0.182 4.654,-0.338 0.234,-0.026 0.442,-0.234 0.442,-0.494 l 0,-8.762 c 0,-0.2859997 -0.182,-0.494 -0.442,-0.494 l -0.26,0 c -0.26,0 -0.442,0.2080003 -0.442,0.494 l 0,8.268 c -0.416,0.052 -1.742002,0.234 -3.952,0.234 -3.301997,0 -5.382,-2.184005 -5.382,-7.098 l 0,-3.224 c 0,-5.6679944 2.782003,-7.124 5.382,-7.124 1.897998,0 2.730002,0.078 4.576,0.26 0.052,0 0.104,0 0.156,0 0.286,0 0.39,-0.1040003 0.39,-0.39000003"
       style="stroke:none;stroke-opacity:1;fill:#949494;fill-opacity:1"
       id="path7542" />
    <path
       d="m 71.866457,18.929296 0,-18.33000003 c 0,-0.25999974 -0.182,-0.494 -0.442,-0.494 l -0.26,0 c -0.259999,0 -0.442,0.23400026 -0.442,0.494 l 0,18.33000003 c 0,0.26 0.182001,0.494 0.442,0.494 l 0.26,0 c 0.26,0 0.442,-0.234 0.442,-0.494"
       style="stroke:none;stroke-opacity:1;fill:#949494;fill-opacity:1"
       id="path7544" />
    <path
       d="m 88.288301,0.78129597 0,-0.234 c 0,-0.25999974 -0.208,-0.442 -0.494,-0.442 l -12.298,0 c -0.286,0 -0.494,0.18200026 -0.494,0.442 l 0,0.234 c 0,0.25999973 0.208,0.39000003 0.494,0.39000003 l 5.59,0 0,17.758 c 0,0.26 0.182,0.494 0.442,0.494 l 0.26,0 c 0.26,0 0.442,-0.234 0.442,-0.494 l 0,-17.758 5.564,0 c 0.286,0 0.494,-0.1300003 0.494,-0.39000003"
       style="stroke:none;stroke-opacity:1;fill:#949494;fill-opacity:1"
       id="path7546" />
    <path
       d="m 101.47843,18.981296 0,-0.208 c 0,-0.26 -0.208,-0.416 -0.494,-0.416 l -6.708004,0 c -1.247999,0 -2.002,-0.234002 -2.002,-1.846 l 0,-6.656 8.710004,0 c 0.286,0 0.494,-0.1820003 0.494,-0.442 l 0,-0.26 c 0,-0.2599998 -0.208,-0.416 -0.494,-0.416 l -8.710004,0 0,-5.72 c 0,-1.6119984 0.754001,-1.846 2.002,-1.846 l 6.708004,0 c 0.286,0 0.494,-0.1560003 0.494,-0.41600003 l 0,-0.208 c 0,-0.25999974 -0.208,-0.442 -0.494,-0.442 l -6.708004,0 c -1.975998,0 -3.146,0.72800219 -3.146,2.91200003 l 0,13.494 c 0,2.183998 1.170002,2.912 3.146,2.912 l 6.708004,0 c 0.286,0 0.494,-0.182 0.494,-0.442"
       style="stroke:none;stroke-opacity:1;fill:#949494;fill-opacity:1"
       id="path7548" />
    <path
       d="m 119.81371,18.929296 0,-17.68 c 0,-0.85799917 -0.52,-1.27400003 -1.326,-1.27400003 -0.624,0 -0.988,0.36400045 -1.196,0.806 l -4.55,9.54200003 c -0.104,0.234 -0.182,0.338 -0.338,0.338 -0.156,0 -0.234,-0.104 -0.338,-0.338 l -4.55,-9.54200003 c -0.208,-0.44199955 -0.572,-0.806 -1.196,-0.806 -0.806,0 -1.326,0.41600086 -1.326,1.27400003 l 0,17.68 c 0,0.26 0.182,0.494 0.442,0.494 l 0.26,0 c 0.26,0 0.442,-0.234 0.442,-0.494 l 0,-17.68 c 0,-0.1299999 0.078,-0.182 0.182,-0.182 0.13,0 0.156,0.052 0.26,0.234 l 4.498,9.49 c 0.364,0.753999 0.754,0.936 1.326,0.936 0.572,0 0.962,-0.182001 1.326,-0.936 l 4.498,-9.49 c 0.104,-0.1819998 0.13,-0.234 0.26,-0.234 0.104,0 0.182,0.052 0.182,0.182 l 0,17.68 c 0,0.26 0.182,0.494 0.442,0.494 l 0.26,0 c 0.26,0 0.442,-0.234 0.442,-0.494"
       style="stroke:none;stroke-opacity:1;fill:#949494;fill-opacity:1"
       id="path7550" />
    <path
       d="m 134.25589,14.613296 c 0,-2.391998 -1.69,-3.666002 -4.576,-5.408 l -1.664,-1.014 c -2.31399,-1.4039986 -3.51,-2.3660016 -3.51,-3.978 0,-2.1579979 1.45601,-3.146 4.888,-3.146 1.326,0 3.27601,0.26 3.848,0.26 0.286,0 0.494,-0.1040003 0.494,-0.36400003 l 0,-0.338 c 0,-0.23399976 -0.182,-0.36400002 -0.442,-0.39 -1.11799,-0.10399989 -2.496,-0.26 -3.874,-0.26 -3.04199,0 -6.084,0.80600341 -6.084,4.21200003 0,2.3139977 1.71601,3.5620014 4.082,5.018 l 1.638,1.014 c 2.886,1.793998 4.004,2.470002 4.004,4.394 0,2.131998 -0.91,3.874 -4.836,3.874 -1.42999,0 -2.548,-0.182 -3.9,-0.286 -0.026,0 -0.078,0 -0.104,0 -0.25999,0 -0.494,0.078 -0.494,0.338 l 0,0.338 c 0,0.26 0.234,0.39 0.468,0.416 1.04,0.104 2.34001,0.286 4.03,0.286 5.018,0 6.032,-2.600002 6.032,-4.966"
       style="stroke:none;stroke-opacity:1;fill:#949494;fill-opacity:1"
       id="path7552" />
    <path
       d="m 157.51899,18.929296 0,-18.33000003 c 0,-0.25999974 -0.156,-0.494 -0.442,-0.494 l -0.234,0 c -0.286,0 -0.442,0.23400026 -0.442,0.494 l 0,7.95600003 -10.4,0 0,-7.95600003 c 0,-0.25999974 -0.182,-0.494 -0.442,-0.494 l -0.26,0 c -0.26,0 -0.442,0.23400026 -0.442,0.494 l 0,18.33000003 c 0,0.26 0.182,0.494 0.442,0.494 l 0.26,0 c 0.26,0 0.442,-0.234 0.442,-0.494 l 0,-9.308 10.4,0 0,9.308 c 0,0.26 0.156,0.494 0.442,0.494 l 0.234,0 c 0.286,0 0.442,-0.234 0.442,-0.494"
       style="stroke:none;stroke-opacity:1;fill:#949494;fill-opacity:1"
       id="path7554" />
    <path
       d="m 172.01358,18.981296 0,-0.208 c 0,-0.26 -0.208,-0.416 -0.494,-0.416 l -6.708,0 c -1.248,0 -2.002,-0.234002 -2.002,-1.846 l 0,-6.656 8.71,0 c 0.286,0 0.494,-0.1820003 0.494,-0.442 l 0,-0.26 c 0,-0.2599998 -0.208,-0.416 -0.494,-0.416 l -8.71,0 0,-5.72 c 0,-1.6119984 0.754,-1.846 2.002,-1.846 l 6.708,0 c 0.286,0 0.494,-0.1560003 0.494,-0.41600003 l 0,-0.208 c 0,-0.25999974 -0.208,-0.442 -0.494,-0.442 l -6.708,0 c -1.976,0 -3.146,0.72800219 -3.146,2.91200003 l 0,13.494 c 0,2.183998 1.17,2.912 3.146,2.912 l 6.708,0 c 0.286,0 0.494,-0.182 0.494,-0.442"
       style="stroke:none;stroke-opacity:1;fill:#949494;fill-opacity:1"
       id="path7556" />
    <path
       d="m 187.82686,19.033296 c 0,-0.104 -0.052,-0.234 -0.13,-0.364 l -5.252,-8.086 c 3.068,-0.52 4.654,-2.0020032 4.654,-5.174 l 0,-0.13 c 0,-3.977996 -2.392,-5.30400003 -7.072,-5.30400003 -1.118,0 -3.146,0.05200006 -4.056,0.104 -0.234,0.02599998 -0.442,0.26000024 -0.442,0.494 l 0,18.35600003 c 0,0.26 0.182,0.494 0.442,0.494 l 0.26,0 c 0.26,0 0.442,-0.234 0.442,-0.494 l 0,-8.242 c 0,0 2.34,0.026 3.354,0.026 0.286,0 0.468,0 0.702,0 0.13,0 0.26,0 0.416,0 l 5.538,8.476 c 0.078,0.104 0.26,0.234 0.39,0.234 l 0.338,0 c 0.286,0 0.416,-0.182 0.416,-0.39 m -1.872,-13.624 c 0,3.3279966 -1.898,4.212 -5.928,4.212 -0.754,0 -2.652,-0.026 -3.354,-0.026 l 0,-8.424 c 0.78,-0.078 2.262,-0.104 3.354,-0.104 3.874,0 5.928,0.9620032 5.928,4.212 l 0,0.13"
       style="stroke:none;stroke-opacity:1;fill:#949494;fill-opacity:1"
       id="path7558" />
    <path
       d="m 201.41593,18.981296 0,-0.208 c 0,-0.26 -0.208,-0.416 -0.494,-0.416 l -6.708,0 c -1.248,0 -2.002,-0.234002 -2.002,-1.846 l 0,-6.656 8.71,0 c 0.286,0 0.494,-0.1820003 0.494,-0.442 l 0,-0.26 c 0,-0.2599998 -0.208,-0.416 -0.494,-0.416 l -8.71,0 0,-5.72 c 0,-1.6119984 0.754,-1.846 2.002,-1.846 l 6.708,0 c 0.286,0 0.494,-0.1560003 0.494,-0.41600003 l 0,-0.208 c 0,-0.25999974 -0.208,-0.442 -0.494,-0.442 l -6.708,0 c -1.976,0 -3.146,0.72800219 -3.146,2.91200003 l 0,13.494 c 0,2.183998 1.17,2.912 3.146,2.912 l 6.708,0 c 0.286,0 0.494,-0.182 0.494,-0.442"
       style="stroke:none;stroke-opacity:1;fill:#949494;fill-opacity:1"
       id="path7560" />
  </g>
</svg>
