<?xml version="1.0" encoding="UTF-8" standalone="no"?>
<!-- Created with Inkscape (http://www.inkscape.org/) -->

<svg
   xmlns:dc="http://purl.org/dc/elements/1.1/"
   xmlns:cc="http://creativecommons.org/ns#"
   xmlns:rdf="http://www.w3.org/1999/02/22-rdf-syntax-ns#"
   xmlns:svg="http://www.w3.org/2000/svg"
   xmlns="http://www.w3.org/2000/svg"
   xmlns:sodipodi="http://sodipodi.sourceforge.net/DTD/sodipodi-0.dtd"
   xmlns:inkscape="http://www.inkscape.org/namespaces/inkscape"
   width="30"
   height="30"
   id="svg2"
   version="1.1"
   inkscape:version="0.48.2 r9819"
   sodipodi:docname="mac_icon.svg">
  <defs
     id="defs4" />
  <sodipodi:namedview
     id="base"
     pagecolor="#ffffff"
     bordercolor="#666666"
     borderopacity="1.0"
     inkscape:pageopacity="0.0"
     inkscape:pageshadow="2"
     inkscape:zoom="5.6568543"
     inkscape:cx="47.829698"
     inkscape:cy="38.239542"
     inkscape:document-units="px"
     inkscape:current-layer="layer2"
     showgrid="false"
     inkscape:window-width="1504"
     inkscape:window-height="1085"
     inkscape:window-x="116"
     inkscape:window-y="95"
     inkscape:window-maximized="0" />
  <metadata
     id="metadata7">
    <rdf:RDF>
      <cc:Work
         rdf:about="">
        <dc:format>image/svg+xml</dc:format>
        <dc:type
           rdf:resource="http://purl.org/dc/dcmitype/StillImage" />
        <dc:title></dc:title>
      </cc:Work>
    </rdf:RDF>
  </metadata>
  <g
     inkscape:groupmode="layer"
     id="layer2"
     inkscape:label="Layer"
     style="display:inline"
     transform="translate(0,-1022.3622)">
    <g
       id="g4176"
       transform="matrix(0.15277372,0,0,0.15277372,-40.87448,904.13794)">
      <path
         inkscape:connector-curvature="0"
         id="path3067"
         d="m 369.46875,775.3125 c -26.5165,1.26269 -29.81758,15.66671 -29.3125,45.71875 0.48409,28.803 -15.38755,36.71901 -23.96875,52.78125 -9.84899,18.43528 -8.59375,33.34375 -8.59375,33.34375 0,0 -3.30061,6.31329 -7.59375,9.34375 -4.29315,3.03045 -9.31583,1.52268 -12.09375,8.59375 -2.31407,5.89034 1.00254,8.3217 0.75,13.625 -0.25254,5.3033 -4.03046,9.10041 -1,14.65625 3.03046,5.55584 17.91038,4.80235 23.71875,5.8125 5.80838,1.01015 8.83931,7.3125 21.71875,7.3125 12.87945,0 13.375,-7.84375 13.375,-7.84375 0,0 11.3769,-3.68087 19.96875,-3.28125 10.85913,0.50507 19.4375,2.03125 19.4375,2.03125 0,0 3.80567,6.81583 7.59375,9.59375 3.78807,2.77792 16.66038,2.78474 22.46875,-3.78125 5.80838,-6.56599 9.32249,-9.83693 17.65625,-13.625 8.33376,-3.78807 11.62753,-8.86817 11.375,-12.65625 -0.25254,-3.78807 -6.59611,-4.8672 -8.0625,-13.875 -1.76777,-10.85915 -7.09375,-12.625 -7.09375,-12.625 0,0 1.76016,-5.04282 0.75,-19.4375 -1.01015,-14.39467 -14.11468,-32.57583 -24.46875,-43.6875 C 395.73969,836.20082 397.859,817.26669 397.5,803.625 c -0.25254,-9.59645 -5.55535,-27.04981 -28.03125,-28.3125 z m 3.5625,26.625 c 0.28837,0.008 0.59933,0.0234 0.90625,0.0625 9.82143,1.25 9.45982,11.97321 9.28125,13.9375 -0.17857,1.96429 -2.3125,7.5 -2.3125,7.5 -1.65266,-0.51656 -3.2548,-1.14037 -4.84375,-1.8125 0.18957,-1.13103 1.34429,-12.21875 -3.1875,-12.21875 -4.18976,0 -4.19547,7.1988 -4.15625,8.75 -1.59525,-0.80743 -3.1807,-1.61792 -4.78125,-2.40625 0,0 0.15413,-14.06911 9.09375,-13.8125 z m -23.65625,1.625 c 3.21679,-0.006 6.61119,3.57184 7.21875,6.3125 0.64806,2.92337 0.5625,7.5 0.5625,7.5 l -3.875,2.15625 c -0.0486,-0.3971 -1.31231,-10.44964 -4.53125,-8.46875 -3.12618,1.9238 -0.0288,10.05179 0.28125,10.84375 L 346.25,823.4375 c 0,0 -3.39732,-4.2991 -3.21875,-9.65625 0.17857,-5.35714 2.32655,-9.6212 5.71875,-10.15625 0.21201,-0.0334 0.41055,-0.0621 0.625,-0.0625 z m 11.78125,14.53125 c 1.93399,-0.0826 5.46875,0.96875 9.375,2.84375 4.46428,2.14286 11.53125,4.98214 11.53125,8.375 0,3.39286 -5.281,7.2472 -9.875,9.5 -4.96937,2.43686 -6.76559,4.16059 -11.59375,4.25 -4.82815,0.0894 -7.01786,-2.35714 -9.875,-4.5 -2.85715,-2.14286 -7.02799,-4.95933 -6.78125,-8.6875 0.24674,-3.72817 10.01575,-11.32735 17.21875,-11.78125 z m 22.40625,16.0625 c 0,0 4.45982,15.1741 9.28125,25.53125 4.82143,10.35714 9.3125,17.8616 10.5625,23.21875 1.25,5.35714 1.9375,9.09375 1.9375,9.09375 0,0 8.23214,-0.72322 14.125,3.5625 5.89285,4.28571 6.78125,13.23214 5.53125,14.125 -1.25,0.89286 -1.25447,-2.67411 -1.96875,-4.28125 -0.71429,-1.60715 -10.17858,-8.56696 -15,-8.03125 -4.82143,0.53572 -6.58929,5.50893 -7.125,6.9375 -0.53572,1.42857 -6.8125,4.46875 -8.0625,10.71875 -1.25,6.25 -1.04911,22.86161 -3.90625,25.71875 -2.85715,2.85715 -12.99196,9.54996 -28.03125,8.75 -15.03929,-0.79996 -20.5625,-13.03125 -20.5625,-13.03125 0,0 5.89286,-1.08482 6.25,-4.65625 0.35715,-3.57143 -3.5625,-9.97768 -9.8125,-15.15625 -6.25,-5.17857 -11.61161,-4.6384 -11.96875,-20.53125 -0.35714,-15.89286 12.06028,-30.95468 16.25,-41.625 3.97446,-10.1221 4.65625,-18.21875 4.65625,-18.21875 0,0 8.64543,8.52353 15,8.40625 6.35456,-0.11729 22.84375,-10.53125 22.84375,-10.53125 z M 402.5,909.75 c 0,0 1.56662,10.53379 7.375,10.28125 5.80837,-0.25254 12.375,-5.8125 12.375,-5.8125 0,0 6.70098,0.0684 8.46875,2.59375 1.76777,2.52538 1.51349,7.02189 3.28125,11.0625 1.76777,4.04061 7.46728,7.74521 4.78125,12.875 -2.68602,5.1298 -7.04623,3.55506 -14,8.5625 -6.95377,5.00744 -14.51078,17.25428 -25.875,13.71875 -11.36421,-3.53553 -6.99414,-15.74984 -4.46875,-25.09375 2.52538,-9.34392 0.53966,-17.38927 2.8125,-22.1875 2.27284,-4.79822 5.25,-6 5.25,-6 z m -88.21875,0.4375 c 0.35696,-0.0272 0.72801,-0.0284 1.125,0 6.35182,0.45369 10.58537,12.68459 15.15625,18.9375 4.57088,6.25292 13.6657,15.81105 12.875,23.21875 -0.7907,7.40771 -6.81662,9.59629 -12.625,9.34375 -5.80838,-0.25254 -14.38419,-5.04727 -19.6875,-6.5625 -5.3033,-1.51523 -16.16212,-0.5008 -18.6875,-3.53125 -2.52538,-3.03046 0.49746,-7.5717 0.75,-12.875 0.25253,-5.3033 -1.51776,-10.84454 0.25,-13.875 1.76777,-3.03045 7.08693,-2.53458 10.875,-5.3125 3.55133,-2.6043 4.61438,-8.93621 9.96875,-9.34375 z"
         style="fill:#000000;fill-opacity:1;stroke:#000000;stroke-width:0.2;stroke-linecap:butt;stroke-linejoin:miter;stroke-miterlimit:4;stroke-opacity:1;stroke-dasharray:none" />
      <path
         inkscape:connector-curvature="0"
         id="path3865"
         d="m 346.73486,830.38116 c 4.54569,3.283 7.57615,7.07107 12.87945,6.9448 5.3033,-0.12627 17.29886,-7.32361 18.05647,-8.08122"
         style="fill:none;stroke:#000000;stroke-width:1px;stroke-linecap:round;stroke-linejoin:round;stroke-opacity:1" />
    </g>
  </g>
</svg>
