<?xml version="1.0" encoding="UTF-8" standalone="no"?>
<!-- Created with Inkscape (http://www.inkscape.org/) -->

<svg
   xmlns:dc="http://purl.org/dc/elements/1.1/"
   xmlns:cc="http://creativecommons.org/ns#"
   xmlns:rdf="http://www.w3.org/1999/02/22-rdf-syntax-ns#"
   xmlns:svg="http://www.w3.org/2000/svg"
   xmlns="http://www.w3.org/2000/svg"
   xmlns:sodipodi="http://sodipodi.sourceforge.net/DTD/sodipodi-0.dtd"
   xmlns:inkscape="http://www.inkscape.org/namespaces/inkscape"
   id="svg5480"
   version="1.1"
   inkscape:version="0.48.2 r9819"
   width="175"
   height="50"
   sodipodi:docname="nuBridge_logo.svg"
   inkscape:export-filename="/ohufx/pipeline/tools/python/NKPD/src/view/resources/icons/misc/nuBridge_logo.png"
   inkscape:export-xdpi="90"
   inkscape:export-ydpi="90">
  <metadata
     id="metadata5486">
    <rdf:RDF>
      <cc:Work
         rdf:about="">
        <dc:format>image/svg+xml</dc:format>
        <dc:type
           rdf:resource="http://purl.org/dc/dcmitype/StillImage" />
        <dc:title></dc:title>
      </cc:Work>
    </rdf:RDF>
  </metadata>
  <defs
     id="defs5484">
    <clipPath
       clipPathUnits="userSpaceOnUse"
       id="clipPath3037">
      <path
         inkscape:connector-curvature="0"
         d="M 0,445 445,445 445,0 0,0 0,445 z"
         id="path3039" />
    </clipPath>
  </defs>
  <sodipodi:namedview
     pagecolor="#ffffff"
     bordercolor="#666666"
     borderopacity="1"
     objecttolerance="10"
     gridtolerance="10"
     guidetolerance="10"
     inkscape:pageopacity="0"
     inkscape:pageshadow="2"
     inkscape:window-width="1692"
     inkscape:window-height="1030"
     id="namedview5482"
     showgrid="false"
     inkscape:zoom="1"
     inkscape:cx="-25.5"
     inkscape:cy="140"
     inkscape:window-x="3"
     inkscape:window-y="0"
     inkscape:window-maximized="0"
     inkscape:current-layer="g3887"
     showguides="true"
     inkscape:guide-bbox="true" />
  <g
     inkscape:groupmode="layer"
     id="layer6"
     inkscape:label="paths"
     style="display:inline"
     transform="translate(0,-100)">
    <g
       id="layer5"
       inkscape:label="paths"
       style="display:inline"
       transform="matrix(7.8770938,0,0,8.6225061,-79.00405,-78.922421)">
      <g
         id="g3887"
         transform="translate(-0.24188847,-0.66479198)">
        <g
           id="g4132"
           transform="matrix(1.6237307,0,0,1.6237307,-7.1982989,-16.236262)">
          <g
             id="g3868"
             transform="matrix(0.15364676,0,0,0.15364676,8.7477265,22.673798)">
            <path
               sodipodi:nodetypes="sssssssssssss"
               id="path3043"
               style="fill:#6e6e6e;fill-opacity:1;fill-rule:nonzero;stroke:none"
               d="m 27.002229,9.7044422 c 0,-3.4707269 -3.090695,-6.2944673 -6.889858,-6.2944673 -3.799162,0 -6.890114,2.8237404 -6.890114,6.2944673 l 0,5.7099848 c 0,0.854338 0.758756,1.547734 1.694197,1.547734 0.935953,0 1.694453,-0.693396 1.694453,-1.547734 l 0,-5.7099848 c 0,-1.7638648 1.570684,-3.1990569 3.501464,-3.1990569 1.93078,0 3.501528,1.4351921 3.501528,3.1990569 l 0,5.7099848 c 0,0.854338 0.758436,1.547734 1.694197,1.547734 0.935953,0 1.694133,-0.693396 1.694133,-1.547734 z"
               inkscape:connector-curvature="0" />
            <g
               id="g3045"
               transform="matrix(0.0640625,0,0,-0.05852433,25.308077,21.880417)">
              <path
                 inkscape:connector-curvature="0"
                 d="m 0,0 c -59.304,0 -107.549,48.245 -107.549,107.553 l 0,97.553 c 0,14.611 11.84,26.455 26.445,26.455 14.607,0 26.446,-11.844 26.446,-26.455 l 0,-97.553 c 0,-30.135 24.518,-54.657 54.658,-54.657 30.134,0 54.657,24.522 54.657,54.657 l 0,97.553 c 0,14.611 11.844,26.455 26.446,26.455 14.61,0 26.449,-11.844 26.449,-26.455 l 0,-97.553 C 107.552,48.245 59.304,0 0,0"
                 style="fill:#c75932;fill-opacity:1;fill-rule:nonzero;stroke:none"
                 id="path3047" />
            </g>
          </g>
          <text
             xml:space="preserve"
             style="font-size:3.86101484px;font-style:normal;font-weight:normal;line-height:125%;letter-spacing:0px;word-spacing:0px;fill:#6e6e6e;fill-opacity:1;stroke:#6e6e6e;stroke-width:0.06066948;stroke-linejoin:round;stroke-miterlimit:4;stroke-opacity:1;stroke-dasharray:none;font-family:Sans"
             x="13.444028"
             y="27.204153"
             id="text3095"
             sodipodi:linespacing="125%"
             transform="scale(1.0462458,0.95579834)"><tspan
               sodipodi:role="line"
               id="tspan3097"
               x="13.444028"
               y="27.204153"
               style="font-style:normal;font-variant:normal;font-weight:300;font-stretch:normal;fill:#6e6e6e;fill-opacity:1;stroke:#6e6e6e;stroke-width:0.06066948;stroke-linejoin:round;stroke-miterlimit:4;stroke-opacity:1;stroke-dasharray:none;font-family:NeoTech;-inkscape-font-specification:NeoTech Light">Bridge</tspan></text>
        </g>
      </g>
    </g>
  </g>
</svg>
