<?xml version="1.0" encoding="UTF-8" standalone="no"?>
<!-- Created with Inkscape (http://www.inkscape.org/) -->

<svg
   xmlns:dc="http://purl.org/dc/elements/1.1/"
   xmlns:cc="http://creativecommons.org/ns#"
   xmlns:rdf="http://www.w3.org/1999/02/22-rdf-syntax-ns#"
   xmlns:svg="http://www.w3.org/2000/svg"
   xmlns="http://www.w3.org/2000/svg"
   xmlns:sodipodi="http://sodipodi.sourceforge.net/DTD/sodipodi-0.dtd"
   xmlns:inkscape="http://www.inkscape.org/namespaces/inkscape"
   id="svg3298"
   version="1.1"
   inkscape:version="0.48.2 r9819"
   width="202"
   height="322"
   sodipodi:docname="NukepediaLogo_splash.svg">
  <metadata
     id="metadata3304">
    <rdf:RDF>
      <cc:Work
         rdf:about="">
        <dc:format>image/svg+xml</dc:format>
        <dc:type
           rdf:resource="http://purl.org/dc/dcmitype/StillImage" />
        <dc:title />
      </cc:Work>
    </rdf:RDF>
  </metadata>
  <defs
     id="defs3302">
    <clipPath
       clipPathUnits="userSpaceOnUse"
       id="clipPath3037">
      <path
         inkscape:connector-curvature="0"
         d="M 0,445 445,445 445,0 0,0 0,445 z"
         id="path3039" />
    </clipPath>
  </defs>
  <sodipodi:namedview
     pagecolor="#ffffff"
     bordercolor="#666666"
     borderopacity="1"
     objecttolerance="10"
     gridtolerance="10"
     guidetolerance="10"
     inkscape:pageopacity="0"
     inkscape:pageshadow="2"
     inkscape:window-width="1089"
     inkscape:window-height="1095"
     id="namedview3300"
     showgrid="false"
     inkscape:zoom="2.7515528"
     inkscape:cx="101"
     inkscape:cy="161"
     inkscape:window-x="750"
     inkscape:window-y="29"
     inkscape:window-maximized="0"
     inkscape:current-layer="layer3" />
  <g
     inkscape:groupmode="layer"
     id="layer3"
     inkscape:label="paths"
     style="display:inline">
    <g
       transform="matrix(0.67913005,0,0,-0.67913005,-50.095546,296.85418)"
       id="g3035"
       clip-path="url(#clipPath3037)">
      <g
         id="g3041"
         transform="translate(289.4971,312.1621)">
        <path
           inkscape:connector-curvature="0"
           d="M 0,0 C 0,59.304 -48.245,107.553 -107.549,107.553 -166.853,107.553 -215.102,59.304 -215.102,0 l 0,-97.566 c 0,-14.598 11.844,-26.446 26.446,-26.446 14.61,0 26.45,11.848 26.45,26.446 l 0,97.566 c 0,30.139 24.518,54.662 54.657,54.662 30.139,0 54.658,-24.523 54.658,-54.662 l 0,-97.566 c 0,-14.598 11.839,-26.446 26.446,-26.446 14.61,0 26.445,11.848 26.445,26.446 L 0,0 z m -9.685,-242.528 c -2.473,0.237 -8.016,0.353 -11.494,0.353 -8.258,0 -12.559,-3.125 -12.559,-10.969 l 0,-22.704 c 0,-7.836 4.301,-10.965 12.559,-10.965 3.478,0 9.253,0.057 11.494,0.29 0.363,0.064 0.595,0.473 0.595,0.832 l 0,3.007 c 0,0.41 -0.232,0.711 -0.65,0.711 l -11.378,0 c -6.254,0 -7.258,1.652 -7.258,6.125 l 0,9.909 18.109,0 c 0.643,0 1.177,0.534 1.177,1.18 l 0,2.241 c 0,0.647 -0.534,1.177 -1.177,1.177 l -18.109,0 0,8.197 c 0,4.483 1.004,6.133 7.258,6.133 l 11.378,0 c 0.418,0 0.65,0.293 0.65,0.707 l 0,2.948 c 0,0.353 -0.232,0.771 -0.595,0.828 m 85.383,-20.52 -18.041,0 0,8.667 c 0,6.133 1.947,7.486 7.314,7.486 l 3.418,0 c 5.365,0 7.309,-1.353 7.309,-7.486 l 0,-8.667 z m -7.309,20.873 -3.418,0 c -8.487,0 -12.68,-3.185 -12.68,-12.206 l 0,-30.837 c 0,-0.598 0.475,-1.185 1.061,-1.185 l 3.245,0 c 0.646,0 1.06,0.587 1.06,1.185 l 0,17.451 18.041,0 0,-17.451 c 0,-0.65 0.474,-1.185 1.069,-1.185 l 3.241,0 c 0.591,0 1.06,0.587 1.06,1.185 l 0,30.837 c 0,9.021 -4.241,12.206 -12.679,12.206 m -26.951,-0.41 -3.24,0 c -0.646,0 -1.06,-0.534 -1.06,-1.124 l 0,-41.509 c 0,-0.65 0.474,-1.185 1.06,-1.185 l 3.24,0 c 0.661,0 1.065,0.587 1.065,1.185 l 0,41.509 c 0,0.654 -0.474,1.124 -1.065,1.124 m -87.795,-13.157 c 0,-6.129 -3.069,-8.719 -11.146,-8.719 -1.534,0 -4.542,0.172 -5.895,0.236 l 0,17.279 c 1.418,0.112 4.068,0.228 5.895,0.228 7.607,0 11.146,-2.297 11.146,-8.253 l 0,-0.771 z m -11.146,13.567 c -3.422,0 -7.253,-0.173 -9.787,-0.47 -0.884,-0.121 -1.418,-0.651 -1.418,-1.478 l 0,-41.095 c 0,-0.65 0.474,-1.185 1.061,-1.185 l 3.188,0 c 0.643,0 1.061,0.587 1.061,1.185 l 0,16.563 c 1.534,-0.116 4.012,-0.288 5.895,-0.288 9.551,0 16.512,3.361 16.512,13.201 l 0,0.771 c 0,9.494 -6.961,12.796 -16.512,12.796 m 80.729,-26.295 c 0,-10.619 -5.426,-13.744 -12.503,-13.744 -2.767,0 -4.66,0 -6.547,0.116 l 0,35.152 c 1.944,0.112 3.78,0.173 6.547,0.173 7.077,0 12.503,-3.07 12.503,-13.741 l 0,-7.956 z m -12.503,26.295 c -4.483,0 -9.025,-0.298 -10.737,-0.591 -0.762,-0.116 -1.236,-0.646 -1.236,-1.469 l 0,-40.517 c 0,-0.88 0.474,-1.353 1.236,-1.47 1.712,-0.301 6.254,-0.591 10.737,-0.591 10.912,0 17.864,5.72 17.864,18.343 l 0,7.956 c 0,12.741 -6.952,18.339 -17.864,18.339 m -211.572,0.065 c -3.007,0 -9.433,-0.238 -12.562,-0.711 -1.177,-0.182 -1.652,-0.591 -1.652,-2.07 l 0,-40.327 c 0,-0.65 0.418,-1.185 1.065,-1.185 l 3.241,0 c 0.647,0 1.061,0.587 1.061,1.185 l 0,38.03 c 1.473,0.117 6.193,0.354 8.731,0.354 7.31,0 10.848,-2.064 10.848,-12.326 l 0,-26.058 c 0,-0.65 0.414,-1.185 0.996,-1.185 l 3.309,0 c 0.643,0 1.061,0.587 1.061,1.185 l 0,26.058 c 0,13.037 -5.486,17.05 -16.098,17.05 m 123.711,-0.418 c -2.478,0.237 -8.021,0.353 -11.499,0.353 -8.254,0 -12.563,-3.125 -12.563,-10.969 l 0,-22.704 c 0,-7.836 4.309,-10.965 12.563,-10.965 3.478,0 9.253,0.057 11.499,0.29 0.353,0.064 0.59,0.473 0.59,0.832 l 0,3.007 c 0,0.41 -0.237,0.711 -0.655,0.711 l -11.378,0 c -6.249,0 -7.249,1.652 -7.249,6.125 l 0,9.909 18.097,0 c 0.651,0 1.185,0.534 1.185,1.18 l 0,2.241 c 0,0.647 -0.534,1.177 -1.185,1.177 l -18.097,0 0,8.197 c 0,4.483 1,6.133 7.249,6.133 l 11.378,0 c 0.418,0 0.655,0.293 0.655,0.707 l 0,2.948 c 0,0.353 -0.237,0.771 -0.59,0.828 m -31.256,-0.768 c 0,0.358 -0.293,0.711 -0.939,0.711 l -4.124,0 c -0.595,0 -0.828,-0.181 -1.186,-0.534 l -16.98,-19.575 0,18.985 c 0,0.654 -0.535,1.124 -1.125,1.124 l -3.116,0 c -0.656,0 -1.129,-0.534 -1.129,-1.124 l 0,-41.509 c 0,-0.65 0.473,-1.185 1.064,-1.185 l 3.245,0 c 0.647,0 1.061,0.587 1.061,1.185 l 0,19.813 16.687,-20.411 c 0.354,-0.406 0.767,-0.587 1.297,-0.587 l 4.711,0 c 0.302,0 0.534,0.181 0.534,0.474 0,0.181 -0.06,0.297 -0.176,0.47 l -17.86,21.588 17.804,20.045 c 0.116,0.177 0.232,0.353 0.232,0.53 m -38.857,0.711 -3.241,0 c -0.651,0 -1.065,-0.59 -1.065,-1.176 l 0,-38.039 c -1.473,-0.121 -6.188,-0.357 -8.722,-0.357 -7.319,0 -10.853,2.068 -10.853,12.326 l 0,26.07 c 0,0.642 -0.414,1.176 -1.004,1.176 l -3.302,0 c -0.646,0 -1.055,-0.59 -1.055,-1.176 l 0,-26.07 c 0,-13.033 5.477,-17.046 16.093,-17.046 3.012,0 9.434,0.241 12.558,0.711 1.182,0.182 1.652,0.418 1.652,1.888 l 0,40.517 c 0,0.642 -0.411,1.176 -1.061,1.176"
           style="fill:#6e6e6e;fill-opacity:1;fill-rule:nonzero;stroke:none"
           id="path3043" />
      </g>
      <g
         id="g3045"
         transform="translate(263.0518,104.1123)">
        <path
           inkscape:connector-curvature="0"
           d="m 0,0 c -59.304,0 -107.549,48.245 -107.549,107.553 l 0,97.553 c 0,14.611 11.84,26.455 26.445,26.455 14.607,0 26.446,-11.844 26.446,-26.455 l 0,-97.553 c 0,-30.135 24.518,-54.657 54.658,-54.657 30.134,0 54.657,24.522 54.657,54.657 l 0,97.553 c 0,14.611 11.844,26.455 26.446,26.455 14.61,0 26.449,-11.844 26.449,-26.455 l 0,-97.553 C 107.552,48.245 59.304,0 0,0"
           style="fill:#c75932;fill-opacity:1;fill-rule:nonzero;stroke:none"
           id="path3047" />
      </g>
    </g>
  </g>
</svg>
