<?xml version="1.0" encoding="UTF-8" standalone="no"?>
<!-- Created with Inkscape (http://www.inkscape.org/) -->

<svg
   xmlns:osb="http://www.openswatchbook.org/uri/2009/osb"
   xmlns:dc="http://purl.org/dc/elements/1.1/"
   xmlns:cc="http://creativecommons.org/ns#"
   xmlns:rdf="http://www.w3.org/1999/02/22-rdf-syntax-ns#"
   xmlns:svg="http://www.w3.org/2000/svg"
   xmlns="http://www.w3.org/2000/svg"
   xmlns:xlink="http://www.w3.org/1999/xlink"
   xmlns:sodipodi="http://sodipodi.sourceforge.net/DTD/sodipodi-0.dtd"
   xmlns:inkscape="http://www.inkscape.org/namespaces/inkscape"
   width="26"
   height="18"
   id="svg2"
   version="1.1"
   inkscape:version="0.48.2 r9819"
   sodipodi:docname="osWin32.svg">
  <defs
     id="defs4">
    <linearGradient
       id="linearGradient4918"
       osb:paint="solid">
      <stop
         style="stop-color:#646464;stop-opacity:1;"
         offset="0"
         id="stop4920" />
    </linearGradient>
    <linearGradient
       id="linearGradient4912"
       osb:paint="solid">
      <stop
         style="stop-color:#c85a32;stop-opacity:0.78431374;"
         offset="0"
         id="stop4914" />
    </linearGradient>
    <linearGradient
       inkscape:collect="always"
       xlink:href="#linearGradient4912"
       id="linearGradient4916"
       x1="19.121617"
       y1="8.8861242"
       x2="27.690055"
       y2="8.8861242"
       gradientUnits="userSpaceOnUse" />
    <linearGradient
       inkscape:collect="always"
       xlink:href="#linearGradient4912"
       id="linearGradient4922"
       x1="12.6696"
       y1="18.977949"
       x2="20.424927"
       y2="18.977949"
       gradientUnits="userSpaceOnUse" />
    <linearGradient
       inkscape:collect="always"
       xlink:href="#linearGradient4912"
       id="linearGradient4924"
       x1="4.0753231"
       y1="18.977949"
       x2="11.824045"
       y2="18.977949"
       gradientUnits="userSpaceOnUse" />
    <linearGradient
       inkscape:collect="always"
       xlink:href="#linearGradient4912"
       id="linearGradient5312"
       gradientUnits="userSpaceOnUse"
       x1="19.121617"
       y1="8.8861242"
       x2="27.690055"
       y2="8.8861242" />
    <linearGradient
       inkscape:collect="always"
       xlink:href="#linearGradient4912"
       id="linearGradient5314"
       gradientUnits="userSpaceOnUse"
       x1="19.121617"
       y1="8.8861242"
       x2="27.690055"
       y2="8.8861242" />
  </defs>
  <sodipodi:namedview
     id="base"
     pagecolor="#ffffff"
     bordercolor="#666666"
     borderopacity="1.0"
     inkscape:pageopacity="0.0"
     inkscape:pageshadow="2"
     inkscape:zoom="9.6632512"
     inkscape:cx="-8.0748507"
     inkscape:cy="7.0513689"
     inkscape:document-units="px"
     inkscape:current-layer="layer3"
     showgrid="false"
     inkscape:window-width="1659"
     inkscape:window-height="1268"
     inkscape:window-x="255"
     inkscape:window-y="59"
     inkscape:window-maximized="0"
     fit-margin-top="0"
     fit-margin-left="0"
     fit-margin-right="0"
     fit-margin-bottom="0" />
  <metadata
     id="metadata7">
    <rdf:RDF>
      <cc:Work
         rdf:about="">
        <dc:format>image/svg+xml</dc:format>
        <dc:type
           rdf:resource="http://purl.org/dc/dcmitype/StillImage" />
        <dc:title />
      </cc:Work>
    </rdf:RDF>
  </metadata>
  <g
     inkscape:groupmode="layer"
     id="layer3"
     inkscape:label="windows"
     style="display:inline">
    <g
       id="layer2-4"
       inkscape:label="Layer"
       style="display:inline"
       transform="matrix(0.81141749,0,0,0.81141749,-1.174426,-835.6527)">
      <path
         style="fill:#646464;fill-opacity:1;stroke:none"
         d="m 20.559693,1031.9593 -9.854608,1.4597 0,7.1667 9.854608,-0.1084 0,-8.518 z m -10.7925826,1.5975 -7.4481178,1.1021 0,6.0206 7.4481178,-0.082 0,-7.0406 z m -7.4481178,7.8907 0,6.0968 7.4481178,0.9849 0,-7.0466 -7.4481178,-0.036 z m 8.3860924,0.038 0,7.1697 9.854608,1.3044 0,-8.4271 -9.854608,-0.047 z"
         id="path3055"
         inkscape:connector-curvature="0" />
    </g>
    <g
       id="layer8"
       inkscape:label="32Text"
       style="display:none"
       transform="translate(-0.8450275,-1.5e-4)">
      <text
         xml:space="preserve"
         style="font-size:11px;font-style:normal;font-variant:normal;font-weight:normal;font-stretch:normal;text-align:start;line-height:125%;letter-spacing:0px;word-spacing:0px;writing-mode:lr-tb;text-anchor:start;fill:#000000;fill-opacity:1;stroke:none;font-family:Sans;-inkscape-font-specification:Sans"
         x="18.791975"
         y="15.546124"
         id="text4287"
         sodipodi:linespacing="125%"><tspan
           sodipodi:role="line"
           id="tspan4289"
           x="18.791975"
           y="15.546124"
           style="font-size:20px;font-style:normal;font-variant:normal;font-weight:600;font-stretch:normal;letter-spacing:0.5px;font-family:Knockout;-inkscape-font-specification:Knockout Semi-Bold">32</tspan></text>
    </g>
    <g
       style="display:none"
       inkscape:label="32Text copy"
       id="g4303"
       transform="translate(-0.8450275,-1.5e-4)">
      <g
         style="font-size:11px;font-style:normal;font-variant:normal;font-weight:normal;font-stretch:normal;text-align:start;line-height:125%;letter-spacing:0px;word-spacing:0px;writing-mode:lr-tb;text-anchor:start;fill:#000000;fill-opacity:1;stroke:none;font-family:Sans;-inkscape-font-specification:Sans"
         id="text4305">
        <path
           d="m 22.611975,13.686124 c -4e-6,0.280002 -0.04,0.540002 -0.12,0.78 -0.08,0.240001 -0.200003,0.453334 -0.36,0.64 -0.14667,0.186667 -0.32667,0.333334 -0.54,0.44 -0.200003,0.106667 -0.426669,0.16 -0.68,0.16 -0.586668,0 -1.020001,-0.18 -1.3,-0.54 -0.266667,-0.373332 -0.4,-0.853332 -0.4,-1.44 l 0,-1.94 0.96,0 0,2.04 c -1e-6,0.453335 0.213332,0.680001 0.64,0.68 0.439998,1e-6 0.659997,-0.219998 0.66,-0.66 l 0,-4.1399995 c -3e-6,-0.239994 -0.113336,-0.3599938 -0.34,-0.36 l -0.76,0 0,-1.02 0.76,0 c 0.226664,7.2e-6 0.339997,-0.1266594 0.34,-0.38 l 0,-3.96 c -3e-6,-0.2133216 -0.05334,-0.3866548 -0.16,-0.52 -0.106669,-0.1333212 -0.273336,-0.1999878 -0.5,-0.2 -0.226668,1.22e-5 -0.393335,0.066679 -0.5,0.2 -0.09333,0.1333452 -0.140001,0.3133451 -0.14,0.54 l 0,2 -0.96,0 0,-1.94 c 0,-0.599988 0.126666,-1.0799875 0.38,-1.44 0.253332,-0.3733201 0.693332,-0.5599866 1.32,-0.56 0.506664,1.34e-5 0.91333,0.1933466 1.22,0.58 0.319996,0.3733458 0.479996,0.8533453 0.48,1.44 l 0,3.7 c -4e-6,0.2666741 -0.07334,0.4800072 -0.22,0.64 -0.133337,0.1600069 -0.313337,0.2933401 -0.54,0.4 0.226663,0.1066732 0.406663,0.2466731 0.54,0.42 0.146663,0.1600061 0.219996,0.3666726 0.22,0.62 l 0,3.8199995"
           style="font-size:20px;font-weight:600;letter-spacing:0.5px;font-family:Knockout;-inkscape-font-specification:Knockout Semi-Bold"
           id="path4310"
           inkscape:connector-curvature="0" />
        <path
           d="m 27.487913,4.8061245 c -4e-6,0.8000099 -0.113338,1.6333424 -0.34,2.5 -0.213337,0.866674 -0.46667,1.6866732 -0.76,2.46 -0.480003,1.2266715 -0.833336,2.2000035 -1.06,2.9199995 -0.226669,0.706669 -0.340002,1.273335 -0.34,1.7 l 2.38,0 0,1.16 -3.58,0 0,-0.38 c -1e-6,-0.279999 0.02,-0.566665 0.06,-0.86 0.05333,-0.293331 0.139999,-0.659998 0.26,-1.1 0.133332,-0.45333 0.306665,-1.006663 0.52,-1.66 0.226665,-0.666662 0.519998,-1.506661 0.88,-2.5199995 0.173331,-0.479993 0.319997,-0.9133259 0.44,-1.3 0.119997,-0.3866585 0.219997,-0.7533248 0.3,-1.1 0.08,-0.3599908 0.13333,-0.7199904 0.16,-1.08 0.04,-0.3599897 0.06,-0.746656 0.06,-1.16 -3e-6,-0.4133218 -0.06667,-0.7066548 -0.2,-0.88 -0.120003,-0.1866545 -0.313336,-0.2799877 -0.58,-0.28 -0.200002,1.23e-5 -0.380002,0.080012 -0.54,0.24 -0.146669,0.1600119 -0.220002,0.373345 -0.22,0.64 l 0,2.24 -0.96,0 0,-2.06 c -1e-6,-0.2933218 0.03333,-0.5733215 0.1,-0.84 0.08,-0.2666543 0.186666,-0.4999874 0.32,-0.7 0.146665,-0.2133204 0.319998,-0.3799869 0.52,-0.5 0.213331,-0.1199866 0.459998,-0.1799866 0.74,-0.18 0.666664,1.34e-5 1.139996,0.2333465 1.42,0.7 0.279996,0.4666789 0.419996,1.1466783 0.42,2.04"
           style="font-size:20px;font-weight:600;letter-spacing:0.5px;font-family:Knockout;-inkscape-font-specification:Knockout Semi-Bold"
           id="path4312"
           inkscape:connector-curvature="0" />
      </g>
    </g>
    <g
       style="display:none"
       inkscape:label="64Text"
       id="g4291"
       transform="translate(-0.8450275,-1.5e-4)">
      <text
         sodipodi:linespacing="125%"
         id="text4293"
         y="15.546124"
         x="18.581617"
         style="font-size:11px;font-style:normal;font-variant:normal;font-weight:normal;font-stretch:normal;text-align:start;line-height:125%;letter-spacing:0px;word-spacing:0px;writing-mode:lr-tb;text-anchor:start;fill:#000000;fill-opacity:1;stroke:none;font-family:Sans;-inkscape-font-specification:Sans"
         xml:space="preserve"><tspan
           style="font-size:20px;font-style:normal;font-variant:normal;font-weight:600;font-stretch:normal;letter-spacing:0.5px;font-family:Knockout;-inkscape-font-specification:Knockout Semi-Bold"
           y="15.546124"
           x="18.581617"
           id="tspan4295"
           sodipodi:role="line">64</tspan></text>
    </g>
    <g
       style="display:inline"
       transform="matrix(1.0665417,0,0,0.59030929,-3.6019007,-0.43733358)"
       inkscape:label="32 copy"
       id="g4392">
      <g
         style="font-size:11px;font-style:normal;font-variant:normal;font-weight:normal;font-stretch:normal;text-align:start;line-height:125%;letter-spacing:0px;word-spacing:0px;writing-mode:lr-tb;text-anchor:start;fill:#c85a32;fill-opacity:0.78431373;stroke:none;font-family:Sans;-inkscape-font-specification:Sans"
         id="text4394">
        <path
           inkscape:connector-curvature="0"
           d="m 22.123782,25.387498 c -4e-6,0.280001 -0.04,0.540001 -0.12,0.78 -0.08,0.24 -0.200004,0.453334 -0.36,0.64 -0.14667,0.186666 -0.32667,0.333333 -0.54,0.44 -0.200003,0.106666 -0.42667,0.159999 -0.68,0.16 -0.586669,-1e-6 -1.020002,-0.18 -1.3,-0.54 -0.266668,-0.373333 -0.400001,-0.853333 -0.4,-1.44 l 0,-1.94 0.96,0 0,2.04 c -2e-6,0.453334 0.213331,0.680001 0.64,0.68 0.439997,10e-7 0.659997,-0.219999 0.66,-0.66 l 0,-4.14 c -3e-6,-0.239994 -0.113336,-0.359994 -0.34,-0.36 l -0.76,0 0,-1.02 0.76,0 c 0.226664,7e-6 0.339997,-0.12666 0.34,-0.38 l 0,-3.96 c -3e-6,-0.213322 -0.05334,-0.386655 -0.16,-0.52 -0.10667,-0.133322 -0.273336,-0.199988 -0.5,-0.2 -0.226669,1.2e-5 -0.393335,0.06668 -0.5,0.2 -0.09333,0.133345 -0.140002,0.313345 -0.14,0.54 l 0,2 -0.96,0 0,-1.94 c -1e-6,-0.599988 0.126666,-1.079988 0.38,-1.44 0.253332,-0.37332 0.693331,-0.559987 1.32,-0.56 0.506664,1.3e-5 0.91333,0.193346 1.22,0.58 0.319996,0.373345 0.479996,0.853345 0.48,1.44 l 0,3.7 c -4e-6,0.266674 -0.07334,0.480007 -0.22,0.64 -0.133337,0.160007 -0.313337,0.29334 -0.54,0.4 0.226663,0.106673 0.406663,0.246673 0.54,0.42 0.146662,0.160006 0.219996,0.366672 0.22,0.62 l 0,3.82"
           style="font-size:20px;font-weight:600;line-height:125%;fill:#c85a32;fill-opacity:0.78431373;font-family:Knockout;-inkscape-font-specification:Knockout Semi-Bold"
           id="path4415" />
        <path
           inkscape:connector-curvature="0"
           d="m 26.499719,16.507498 c -4e-6,0.800009 -0.113337,1.633342 -0.34,2.5 -0.213337,0.866674 -0.46667,1.686673 -0.76,2.46 -0.480002,1.226671 -0.833335,2.200003 -1.06,2.92 -0.226668,0.706668 -0.340001,1.273334 -0.34,1.7 l 2.38,0 0,1.16 -3.58,0 0,-0.38 c 0,-0.28 0.02,-0.566666 0.06,-0.86 0.05333,-0.293332 0.14,-0.659999 0.26,-1.1 0.133333,-0.453331 0.306666,-1.006664 0.52,-1.66 0.226665,-0.666662 0.519998,-1.506662 0.88,-2.52 0.173331,-0.479993 0.319998,-0.913326 0.44,-1.3 0.119998,-0.386659 0.219997,-0.753325 0.3,-1.1 0.08,-0.359991 0.133331,-0.719991 0.16,-1.08 0.04,-0.35999 0.06,-0.746656 0.06,-1.16 -3e-6,-0.413322 -0.06667,-0.706655 -0.2,-0.88 -0.120003,-0.186655 -0.313336,-0.279988 -0.58,-0.28 -0.200002,1.2e-5 -0.380002,0.08001 -0.54,0.24 -0.146668,0.160011 -0.220001,0.373345 -0.22,0.64 l 0,2.24 -0.96,0 0,-2.06 c 0,-0.293322 0.03333,-0.573322 0.1,-0.84 0.08,-0.266655 0.186666,-0.499988 0.32,-0.7 0.146666,-0.213321 0.319999,-0.379987 0.52,-0.5 0.213332,-0.119987 0.459998,-0.179987 0.74,-0.18 0.666664,1.3e-5 1.139997,0.233346 1.42,0.7 0.279996,0.466679 0.419996,1.146678 0.42,2.04"
           style="font-size:20px;font-weight:600;line-height:125%;fill:#c85a32;fill-opacity:0.78431373;font-family:Knockout;-inkscape-font-specification:Knockout Semi-Bold"
           id="path4417" />
      </g>
    </g>
  </g>
</svg>
