<?xml version="1.0" encoding="UTF-8" standalone="no"?>
<!-- Created with Inkscape (http://www.inkscape.org/) -->

<svg
   xmlns:dc="http://purl.org/dc/elements/1.1/"
   xmlns:cc="http://creativecommons.org/ns#"
   xmlns:rdf="http://www.w3.org/1999/02/22-rdf-syntax-ns#"
   xmlns:svg="http://www.w3.org/2000/svg"
   xmlns="http://www.w3.org/2000/svg"
   xmlns:sodipodi="http://sodipodi.sourceforge.net/DTD/sodipodi-0.dtd"
   xmlns:inkscape="http://www.inkscape.org/namespaces/inkscape"
   id="svg2"
   version="1.1"
   inkscape:version="0.48.3.1 r9886"
   width="15"
   height="15"
   sodipodi:docname="remove.png">
  <metadata
     id="metadata8">
    <rdf:RDF>
      <cc:Work
         rdf:about="">
        <dc:format>image/svg+xml</dc:format>
        <dc:type
           rdf:resource="http://purl.org/dc/dcmitype/StillImage" />
        <dc:title></dc:title>
      </cc:Work>
    </rdf:RDF>
  </metadata>
  <defs
     id="defs6" />
  <sodipodi:namedview
     pagecolor="#ffffff"
     bordercolor="#666666"
     borderopacity="1"
     objecttolerance="10"
     gridtolerance="10"
     guidetolerance="10"
     inkscape:pageopacity="0"
     inkscape:pageshadow="2"
     inkscape:window-width="1373"
     inkscape:window-height="924"
     id="namedview4"
     showgrid="false"
     inkscape:zoom="15.733333"
     inkscape:cx="-0.31779661"
     inkscape:cy="7.5"
     inkscape:window-x="0"
     inkscape:window-y="0"
     inkscape:window-maximized="0"
     inkscape:current-layer="svg2" />
  <path
     inkscape:connector-curvature="0"
     id="path3786"
     d="m 5.1900037,0.41070221 c -2.547337,0 -4.59344006,2.04610279 -4.59344006,4.59344019 l 0,4.9651634 c 0,2.5473382 2.04610306,4.6199922 4.59344006,4.6199922 l 4.6199927,0 c 2.5473356,0 4.5934396,-2.072654 4.5934396,-4.6199922 l 0,-4.9651634 c 0,-2.5473374 -2.046104,-4.59344019 -4.5934396,-4.59344019 l -4.6199927,0 z M 4.6324187,2.7738015 c 0.189359,0 0.359386,0.093868 0.504482,0.2389651 l 2.416202,2.389651 2.4162037,-2.389651 C 10.114404,2.8676703 10.284431,2.7738015 10.473788,2.7738015 c 0.189359,0 0.412488,0.093868 0.557585,0.2389651 l 0.79655,0.7965503 c 0.290192,0.2901923 0.290192,0.745323 0,1.0355155 L 9.4117207,7.2875861 11.827923,9.6772365 c 0.290192,0.2901933 0.290192,0.7453245 0,1.0355165 l -0.79655,0.79655 c -0.290193,0.290192 -0.771874,0.290192 -1.0620666,0 L 7.5531027,9.1196521 5.1369007,11.509303 c -0.290193,0.290192 -0.745323,0.290192 -1.035515,0 l -0.796551,-0.79655 c -0.290192,-0.290192 -0.290192,-0.7453232 0,-1.0355165 L 5.6944857,7.2875861 3.3048347,4.8448324 c -0.290192,-0.2901925 -0.290192,-0.745323 0,-1.0355155 l 0.796551,-0.7965503 c 0.145096,-0.1450965 0.341675,-0.2389651 0.531033,-0.2389651 z"
     style="fill:#5d5d5d;fill-opacity:1;fill-rule:nonzero;stroke:none;display:inline" />
</svg>
