<?xml version="1.0" encoding="UTF-8" standalone="no"?>
<!-- Created with Inkscape (http://www.inkscape.org/) -->

<svg
   xmlns:osb="http://www.openswatchbook.org/uri/2009/osb"
   xmlns:dc="http://purl.org/dc/elements/1.1/"
   xmlns:cc="http://creativecommons.org/ns#"
   xmlns:rdf="http://www.w3.org/1999/02/22-rdf-syntax-ns#"
   xmlns:svg="http://www.w3.org/2000/svg"
   xmlns="http://www.w3.org/2000/svg"
   xmlns:xlink="http://www.w3.org/1999/xlink"
   xmlns:sodipodi="http://sodipodi.sourceforge.net/DTD/sodipodi-0.dtd"
   xmlns:inkscape="http://www.inkscape.org/namespaces/inkscape"
   width="26"
   height="18"
   id="svg2"
   version="1.1"
   inkscape:version="0.48.2 r9819"
   sodipodi:docname="sourceCode.svg">
  <defs
     id="defs4">
    <linearGradient
       id="linearGradient4918"
       osb:paint="solid">
      <stop
         style="stop-color:#646464;stop-opacity:1;"
         offset="0"
         id="stop4920" />
    </linearGradient>
    <linearGradient
       id="linearGradient4912"
       osb:paint="solid">
      <stop
         style="stop-color:#c85a32;stop-opacity:0.78431374;"
         offset="0"
         id="stop4914" />
    </linearGradient>
    <linearGradient
       inkscape:collect="always"
       xlink:href="#linearGradient4912"
       id="linearGradient4916"
       x1="19.121617"
       y1="8.8861242"
       x2="27.690055"
       y2="8.8861242"
       gradientUnits="userSpaceOnUse" />
    <linearGradient
       inkscape:collect="always"
       xlink:href="#linearGradient4912"
       id="linearGradient4922"
       x1="12.6696"
       y1="18.977949"
       x2="20.424927"
       y2="18.977949"
       gradientUnits="userSpaceOnUse"
       gradientTransform="matrix(1.0839632,0,0,1,-0.01424418,0)" />
    <linearGradient
       inkscape:collect="always"
       xlink:href="#linearGradient4912"
       id="linearGradient4924"
       x1="4.0753231"
       y1="18.977949"
       x2="11.824045"
       y2="18.977949"
       gradientUnits="userSpaceOnUse"
       gradientTransform="matrix(1.0839632,0,0,1,-0.01424418,0)" />
    <linearGradient
       inkscape:collect="always"
       xlink:href="#linearGradient4912"
       id="linearGradient5312"
       gradientUnits="userSpaceOnUse"
       x1="19.121617"
       y1="8.8861242"
       x2="27.690055"
       y2="8.8861242" />
    <linearGradient
       inkscape:collect="always"
       xlink:href="#linearGradient4912"
       id="linearGradient5314"
       gradientUnits="userSpaceOnUse"
       x1="19.121617"
       y1="8.8861242"
       x2="27.690055"
       y2="8.8861242" />
  </defs>
  <sodipodi:namedview
     id="base"
     pagecolor="#ffffff"
     bordercolor="#666666"
     borderopacity="1.0"
     inkscape:pageopacity="0.0"
     inkscape:pageshadow="2"
     inkscape:zoom="9.6632512"
     inkscape:cx="4.4468149"
     inkscape:cy="7.0513689"
     inkscape:document-units="px"
     inkscape:current-layer="layer6"
     showgrid="false"
     inkscape:window-width="1659"
     inkscape:window-height="1268"
     inkscape:window-x="255"
     inkscape:window-y="59"
     inkscape:window-maximized="0"
     fit-margin-top="0"
     fit-margin-left="0"
     fit-margin-right="0"
     fit-margin-bottom="0" />
  <metadata
     id="metadata7">
    <rdf:RDF>
      <cc:Work
         rdf:about="">
        <dc:format>image/svg+xml</dc:format>
        <dc:type
           rdf:resource="http://purl.org/dc/dcmitype/StillImage" />
        <dc:title></dc:title>
      </cc:Work>
    </rdf:RDF>
  </metadata>
  <g
     inkscape:groupmode="layer"
     id="layer6"
     inkscape:label="sourcecode"
     transform="translate(0,-11.123108)"
     style="display:inline">
    <g
       transform="matrix(0.86673224,0,0,1.0643893,0.01234589,0)"
       style="font-size:10.33456516px;font-style:normal;font-variant:normal;font-weight:normal;font-stretch:normal;text-align:start;line-height:125%;letter-spacing:-2px;word-spacing:0px;writing-mode:lr-tb;text-anchor:start;fill:#646464;fill-opacity:1;stroke:none;font-family:Sans;-inkscape-font-specification:Sans"
       id="text3943">
      <path
         d="m 0.1696478,19.678175 0,-1.400451 0.13605051,0 c 0.93086939,7e-6 1.39630489,-0.471213 1.39630799,-1.413663 l 0,-2.814113 c -3.1e-6,-1.660271 1.0167945,-2.602711 3.0503958,-2.827326 l 0,1.413663 c -1.0215773,0.07488 -1.532363,0.5461 -1.5323585,1.413663 l 0,2.814113 c -4.5e-6,0.81914 -0.3460976,1.523768 -1.0382803,2.113889 0.6921827,0.594536 1.0382758,1.299165 1.0382803,2.113888 l 0,2.814114 c -4.5e-6,0.876383 0.5107812,1.347603 1.5323585,1.413662 l 0,1.413663 C 2.7188008,26.517483 1.7020032,25.575042 1.7020063,23.905952 l 0,-2.814114 c -3.1e-6,-0.942437 -0.4654386,-1.413657 -1.39630799,-1.413663 l -0.13605051,0"
         style="font-size:16.91110611px;font-weight:bold;fill:#646464;fill-opacity:1;font-family:Krungthep;-inkscape-font-specification:Krungthep Bold"
         id="path4037"
         inkscape:connector-curvature="0" />
      <path
         d="m 4.4032565,18.97795 6.1079525,-4.928002 2.291377,0 -6.1079524,4.928002 6.1079524,4.928002 -2.291377,0 -6.1079525,-4.928002"
         style="letter-spacing:0px;fill:url(#linearGradient4924);fill-opacity:1"
         id="path4039"
         inkscape:connector-curvature="0" />
      <path
         d="m 22.125626,18.97795 -6.115113,4.928002 -2.291376,0 6.115112,-4.928002 -6.115112,-4.928002 2.291376,0 6.115113,4.928002"
         id="path4041"
         inkscape:connector-curvature="0"
         style="fill:url(#linearGradient4922);fill-opacity:1" />
      <path
         d="m 26.373555,18.277724 0,1.400451 -0.13605,0 c -0.930876,6e-6 -1.396313,0.471226 -1.396307,1.413663 l 0,2.814114 c -6e-6,1.664686 -1.016803,2.607127 -3.050396,2.827325 l 0,-1.413663 c 1.021569,-0.07927 1.532355,-0.550491 1.532358,-1.413662 l 0,-2.814114 c -3e-6,-0.814723 0.341316,-1.519352 1.02396,-2.113888 -0.682644,-0.594525 -1.023963,-1.299153 -1.02396,-2.113889 l 0,-2.814113 c -3e-6,-0.871967 -0.510789,-1.343188 -1.532358,-1.413663 l 0,-1.413663 c 2.033593,0.215807 3.05039,1.158248 3.050396,2.827326 l 0,2.814113 c -6e-6,0.94245 0.465431,1.41367 1.396307,1.413663 l 0.13605,0"
         style="font-size:16.91110611px;font-weight:bold;fill:#646464;fill-opacity:1;font-family:Krungthep;-inkscape-font-specification:Krungthep Bold"
         id="path4043"
         inkscape:connector-curvature="0" />
    </g>
  </g>
</svg>
